M48
; DRILL file KiCad 10.0.3 date 2026-08-05T11:32:08
; FORMAT={-:-/ absolute / metric / decimal}
; #@! TF.CreationDate,2026-08-05T11:32:08+03:00
; #@! TF.GenerationSoftware,Kicad,Pcbnew,10.0.3
; #@! TF.FileFunction,Plated,1,4,PTH
FMAT,2
METRIC
; #@! TA.AperFunction,Plated,PTH,ViaDrill
T1C0.300
; #@! TA.AperFunction,Plated,PTH,ComponentDrill
T2C0.550
; #@! TA.AperFunction,Plated,PTH,ComponentDrill
T3C0.850
; #@! TA.AperFunction,Plated,PTH,ComponentDrill
T4C1.000
%
G90
G05
T1
X139.318Y-88.929
X141.1Y-85.3
X141.418Y-84.179
X146.318Y-98.179
X148.9Y-89.4
X149.5Y-90.6
X149.6Y-92.1
X150.065Y-82.67
X150.8Y-81.4
X150.8Y-83.6
X151.268Y-100.279
X153.568Y-88.429
X154.3Y-78.7
X155.6Y-92.6
X177.068Y-88.429
T4
X127.358Y-75.879
X127.483Y-105.479
X129.898Y-75.879
X130.023Y-105.479
X132.438Y-75.879
X132.563Y-105.479
X134.978Y-75.879
X135.103Y-105.479
X137.518Y-75.879
X137.643Y-105.479
X140.058Y-75.879
X140.183Y-105.479
X142.598Y-75.879
X142.723Y-105.479
X145.138Y-75.879
X145.263Y-105.479
X147.678Y-75.879
X147.803Y-105.479
X150.218Y-75.879
X150.343Y-105.479
X152.758Y-75.879
X152.883Y-105.479
X155.298Y-75.879
X155.423Y-105.479
X157.838Y-75.879
X157.963Y-105.479
X160.378Y-75.879
X160.503Y-105.479
X162.918Y-75.879
X163.043Y-105.479
X165.458Y-75.879
X165.583Y-105.479
X167.998Y-75.879
X168.123Y-105.479
X170.538Y-75.879
X170.663Y-105.479
X173.078Y-75.879
X173.203Y-105.479
X175.618Y-75.879
X175.743Y-105.479
T2
G00X121.948Y-86.799
M15
G01X121.298Y-86.799
M16
G05
G00X121.948Y-94.549
M15
G01X121.298Y-94.549
M16
G05
T3
G00X125.698Y-86.949
M15
G01X125.148Y-86.949
M16
G05
G00X125.698Y-94.399
M15
G01X125.148Y-94.399
M16
G05
M30
