%TF.GenerationSoftware,KiCad,Pcbnew,10.0.3*%
%TF.CreationDate,2026-08-05T11:00:14+03:00*%
%TF.ProjectId,STM32-Breakout-Board,53544d33-322d-4427-9265-616b6f75742d,rev?*%
%TF.SameCoordinates,Original*%
%TF.FileFunction,Copper,L1,Top*%
%TF.FilePolarity,Positive*%
%FSLAX46Y46*%
G04 Gerber Fmt 4.6, Leading zero omitted, Abs format (unit mm)*
G04 Created by KiCad (PCBNEW 10.0.3) date 2026-08-05 11:00:14*
%MOMM*%
%LPD*%
G01*
G04 APERTURE LIST*
G04 Aperture macros list*
%AMRoundRect*
0 Rectangle with rounded corners*
0 $1 Rounding radius*
0 $2 $3 $4 $5 $6 $7 $8 $9 X,Y pos of 4 corners*
0 Add a 4 corners polygon primitive as box body*
4,1,4,$2,$3,$4,$5,$6,$7,$8,$9,$2,$3,0*
0 Add four circle primitives for the rounded corners*
1,1,$1+$1,$2,$3*
1,1,$1+$1,$4,$5*
1,1,$1+$1,$6,$7*
1,1,$1+$1,$8,$9*
0 Add four rect primitives between the rounded corners*
20,1,$1+$1,$2,$3,$4,$5,0*
20,1,$1+$1,$4,$5,$6,$7,0*
20,1,$1+$1,$6,$7,$8,$9,0*
20,1,$1+$1,$8,$9,$2,$3,0*%
G04 Aperture macros list end*
%TA.AperFunction,SMDPad,CuDef*%
%ADD10RoundRect,0.140000X0.219203X0.021213X0.021213X0.219203X-0.219203X-0.021213X-0.021213X-0.219203X0*%
%TD*%
%TA.AperFunction,SMDPad,CuDef*%
%ADD11RoundRect,0.112500X-0.537500X0.112500X-0.537500X-0.112500X0.537500X-0.112500X0.537500X0.112500X0*%
%TD*%
%TA.AperFunction,ComponentPad*%
%ADD12O,1.800000X1.150000*%
%TD*%
%TA.AperFunction,ComponentPad*%
%ADD13O,2.000000X1.450000*%
%TD*%
%TA.AperFunction,SMDPad,CuDef*%
%ADD14RoundRect,0.140000X-0.219203X-0.021213X-0.021213X-0.219203X0.219203X0.021213X0.021213X0.219203X0*%
%TD*%
%TA.AperFunction,SMDPad,CuDef*%
%ADD15RoundRect,0.140000X0.140000X0.170000X-0.140000X0.170000X-0.140000X-0.170000X0.140000X-0.170000X0*%
%TD*%
%TA.AperFunction,SMDPad,CuDef*%
%ADD16RoundRect,0.250000X-0.475000X0.250000X-0.475000X-0.250000X0.475000X-0.250000X0.475000X0.250000X0*%
%TD*%
%TA.AperFunction,SMDPad,CuDef*%
%ADD17RoundRect,0.250000X0.250000X0.475000X-0.250000X0.475000X-0.250000X-0.475000X0.250000X-0.475000X0*%
%TD*%
%TA.AperFunction,SMDPad,CuDef*%
%ADD18RoundRect,0.140000X0.021213X-0.219203X0.219203X-0.021213X-0.021213X0.219203X-0.219203X0.021213X0*%
%TD*%
%TA.AperFunction,SMDPad,CuDef*%
%ADD19RoundRect,0.135000X-0.185000X0.135000X-0.185000X-0.135000X0.185000X-0.135000X0.185000X0.135000X0*%
%TD*%
%TA.AperFunction,SMDPad,CuDef*%
%ADD20RoundRect,0.225000X-0.225000X-0.250000X0.225000X-0.250000X0.225000X0.250000X-0.225000X0.250000X0*%
%TD*%
%TA.AperFunction,SMDPad,CuDef*%
%ADD21RoundRect,0.218750X-0.256250X0.218750X-0.256250X-0.218750X0.256250X-0.218750X0.256250X0.218750X0*%
%TD*%
%TA.AperFunction,SMDPad,CuDef*%
%ADD22R,0.800000X1.000000*%
%TD*%
%TA.AperFunction,SMDPad,CuDef*%
%ADD23R,1.500000X0.700000*%
%TD*%
%TA.AperFunction,SMDPad,CuDef*%
%ADD24RoundRect,0.375000X0.375000X-0.625000X0.375000X0.625000X-0.375000X0.625000X-0.375000X-0.625000X0*%
%TD*%
%TA.AperFunction,SMDPad,CuDef*%
%ADD25RoundRect,0.500000X1.400000X-0.500000X1.400000X0.500000X-1.400000X0.500000X-1.400000X-0.500000X0*%
%TD*%
%TA.AperFunction,SMDPad,CuDef*%
%ADD26RoundRect,0.250000X0.565685X-0.070711X-0.070711X0.565685X-0.565685X0.070711X0.070711X-0.565685X0*%
%TD*%
%TA.AperFunction,SMDPad,CuDef*%
%ADD27RoundRect,0.218750X0.256250X-0.218750X0.256250X0.218750X-0.256250X0.218750X-0.256250X-0.218750X0*%
%TD*%
%TA.AperFunction,SMDPad,CuDef*%
%ADD28RoundRect,0.035000X0.427800X0.576292X-0.576292X-0.427800X-0.427800X-0.576292X0.576292X0.427800X0*%
%TD*%
%TA.AperFunction,SMDPad,CuDef*%
%ADD29RoundRect,0.035000X-0.427800X0.576292X-0.576292X0.427800X0.427800X-0.576292X0.576292X-0.427800X0*%
%TD*%
%TA.AperFunction,ComponentPad*%
%ADD30R,1.700000X1.700000*%
%TD*%
%TA.AperFunction,ComponentPad*%
%ADD31C,1.700000*%
%TD*%
%TA.AperFunction,ViaPad*%
%ADD32C,0.700000*%
%TD*%
%TA.AperFunction,Conductor*%
%ADD33C,0.300000*%
%TD*%
%TA.AperFunction,Conductor*%
%ADD34C,0.500000*%
%TD*%
%TA.AperFunction,Conductor*%
%ADD35C,0.200000*%
%TD*%
G04 APERTURE END LIST*
D10*
%TO.P,C11,1*%
%TO.N,/HSE_OUT*%
X154818305Y-86878965D03*
%TO.P,C11,2*%
%TO.N,GND*%
X154139483Y-86200143D03*
%TD*%
D11*
%TO.P,USB,1,VBUS_1*%
%TO.N,VBUS*%
X125473305Y-89373965D03*
%TO.P,USB,2,D-_2*%
%TO.N,unconnected-(J1-D--Pad2)*%
X125473305Y-90023965D03*
%TO.P,USB,3,D+_3*%
%TO.N,unconnected-(J1-D+-Pad3)*%
X125473305Y-90673965D03*
%TO.P,USB,4,ID_4*%
%TO.N,unconnected-(J1-ID-Pad4)*%
X125473305Y-91323965D03*
%TO.P,USB,5,GND_5*%
%TO.N,GND*%
X125473305Y-91973965D03*
D12*
%TO.P,USB,SH,Shield_SH*%
%TO.N,unconnected-(J1-Shield-PadSH)_2*%
X121623305Y-86798965D03*
D13*
%TO.N,unconnected-(J1-Shield-PadSH)_3*%
X125423305Y-86948965D03*
%TO.N,unconnected-(J1-Shield-PadSH)*%
X125423305Y-94398965D03*
D12*
%TO.N,unconnected-(J1-Shield-PadSH)_1*%
X121623305Y-94548965D03*
%TD*%
D14*
%TO.P,C1,1*%
%TO.N,+3.3V*%
X154178894Y-88939554D03*
%TO.P,C1,2*%
%TO.N,GND*%
X154857716Y-89618376D03*
%TD*%
D15*
%TO.P,C9,1*%
%TO.N,GND*%
X155598305Y-82678965D03*
%TO.P,C9,2*%
%TO.N,/NRST*%
X154638305Y-82678965D03*
%TD*%
D10*
%TO.P,C3,1*%
%TO.N,+3.3V*%
X146157716Y-97118376D03*
%TO.P,C3,2*%
%TO.N,GND*%
X145478894Y-96439554D03*
%TD*%
D16*
%TO.P,C12,1*%
%TO.N,VBUS*%
X131755805Y-91128965D03*
%TO.P,C12,2*%
%TO.N,GND*%
X131755805Y-93028965D03*
%TD*%
D17*
%TO.P,C5,1*%
%TO.N,+3.3V*%
X150168305Y-100278965D03*
%TO.P,C5,2*%
%TO.N,GND*%
X148268305Y-100278965D03*
%TD*%
D18*
%TO.P,C2,1*%
%TO.N,+3.3V*%
X154078894Y-92518376D03*
%TO.P,C2,2*%
%TO.N,GND*%
X154757716Y-91839554D03*
%TD*%
D19*
%TO.P,R1,1*%
%TO.N,/SW_BOOT0*%
X159568305Y-89918965D03*
%TO.P,R1,2*%
%TO.N,/BOOT0*%
X159568305Y-90938965D03*
%TD*%
D14*
%TO.P,C6,1*%
%TO.N,+3.3VA*%
X151278894Y-84639554D03*
%TO.P,C6,2*%
%TO.N,GND*%
X151957716Y-85318376D03*
%TD*%
D19*
%TO.P,R4,1*%
%TO.N,+3.3V*%
X138018305Y-91168965D03*
%TO.P,R4,2*%
%TO.N,/LED_A*%
X138018305Y-92188965D03*
%TD*%
D20*
%TO.P,C8,1*%
%TO.N,+3.3V*%
X153818305Y-79678965D03*
%TO.P,C8,2*%
%TO.N,GND*%
X155368305Y-79678965D03*
%TD*%
D21*
%TO.P,D1,1,K_1*%
%TO.N,GND*%
X139418305Y-91091465D03*
%TO.P,D1,2,A_2*%
%TO.N,/LED_A*%
X139418305Y-92666465D03*
%TD*%
D22*
%TO.P,BOOT,*%
%TO.N,*%
X180163305Y-94328965D03*
X182373305Y-94328965D03*
X180163305Y-87028965D03*
X182373305Y-87028965D03*
D23*
%TO.P,BOOT,1,A_1*%
%TO.N,GND*%
X179513305Y-92928965D03*
%TO.P,BOOT,2,B_2*%
%TO.N,/SW_BOOT0*%
X179513305Y-89928965D03*
%TO.P,BOOT,3,C_3*%
%TO.N,+3.3V*%
X179513305Y-88428965D03*
%TD*%
D16*
%TO.P,C13,1*%
%TO.N,+3.3V*%
X136355805Y-91128965D03*
%TO.P,C13,2*%
%TO.N,GND*%
X136355805Y-93028965D03*
%TD*%
D24*
%TO.P,U2,1,VIN_1*%
%TO.N,VBUS*%
X131755805Y-88928965D03*
%TO.P,U2,2,GND_2*%
%TO.N,GND*%
X134055805Y-88928965D03*
D25*
X134055805Y-82628965D03*
D24*
%TO.P,U2,3,VOUT_3*%
%TO.N,+3.3V*%
X136355805Y-88928965D03*
%TD*%
D20*
%TO.P,C7,1*%
%TO.N,+3.3VA*%
X153818305Y-81278965D03*
%TO.P,C7,2*%
%TO.N,GND*%
X155368305Y-81278965D03*
%TD*%
D26*
%TO.P,Y1,1,1_1*%
%TO.N,/HSE_IN*%
X158197163Y-85755742D03*
%TO.P,Y1,2,G_2*%
%TO.N,GND*%
X156641528Y-84200107D03*
%TO.P,Y1,3,3_3*%
%TO.N,/HSE_OUT*%
X155439447Y-85402188D03*
%TO.P,Y1,4,G_4*%
%TO.N,GND*%
X156995082Y-86957823D03*
%TD*%
D18*
%TO.P,C4,1*%
%TO.N,+3.3V*%
X141378894Y-89018376D03*
%TO.P,C4,2*%
%TO.N,GND*%
X142057716Y-88339554D03*
%TD*%
D14*
%TO.P,C10,1*%
%TO.N,/HSE_IN*%
X155478894Y-87539554D03*
%TO.P,C10,2*%
%TO.N,GND*%
X156157716Y-88218376D03*
%TD*%
D27*
%TO.P,FB1,1*%
%TO.N,+3.3VA*%
X152293305Y-81266465D03*
%TO.P,FB1,2*%
%TO.N,+3.3V*%
X152293305Y-79691465D03*
%TD*%
D28*
%TO.P,U1,1,VBAT_1*%
%TO.N,+3.3V*%
X152711484Y-89674873D03*
%TO.P,U1,2,PC13_2*%
%TO.N,/PC13*%
X152357931Y-89321320D03*
%TO.P,U1,3,PC14_3*%
%TO.N,/PC14*%
X152004377Y-88967767D03*
%TO.P,U1,4,PC15_4*%
%TO.N,/PC15*%
X151650824Y-88614213D03*
%TO.P,U1,5,PH0_5*%
%TO.N,/HSE_IN*%
X151297270Y-88260660D03*
%TO.P,U1,6,PH1_6*%
%TO.N,/HSE_OUT*%
X150943717Y-87907106D03*
%TO.P,U1,7,NRST_7*%
%TO.N,/NRST*%
X150590164Y-87553553D03*
%TO.P,U1,8,VSSA_8*%
%TO.N,GND*%
X150236610Y-87200000D03*
%TO.P,U1,9,VDDA_9*%
%TO.N,+3.3VA*%
X149883057Y-86846446D03*
%TO.P,U1,10,PA0_10*%
%TO.N,/PA0*%
X149529503Y-86492893D03*
%TO.P,U1,11,PA1_11*%
%TO.N,/PA1*%
X149175950Y-86139339D03*
%TO.P,U1,12,PA2_12*%
%TO.N,/PA2*%
X148822397Y-85785786D03*
D29*
%TO.P,U1,13,PA3_13*%
%TO.N,/PA3*%
X146814213Y-85785786D03*
%TO.P,U1,14,PA4_14*%
%TO.N,/PA4*%
X146460660Y-86139339D03*
%TO.P,U1,15,PA5_15*%
%TO.N,/PA5*%
X146107107Y-86492893D03*
%TO.P,U1,16,PA6_16*%
%TO.N,/PA6*%
X145753553Y-86846446D03*
%TO.P,U1,17,PA7_17*%
%TO.N,/PA7*%
X145400000Y-87200000D03*
%TO.P,U1,18,PB0_18*%
%TO.N,/PB0*%
X145046446Y-87553553D03*
%TO.P,U1,19,PB1_19*%
%TO.N,/PB1*%
X144692893Y-87907106D03*
%TO.P,U1,20,PB2_20*%
%TO.N,/PB2*%
X144339340Y-88260660D03*
%TO.P,U1,21,PB10_21*%
%TO.N,/PB10*%
X143985786Y-88614213D03*
%TO.P,U1,22,PB11_22*%
%TO.N,/PB11*%
X143632233Y-88967767D03*
%TO.P,U1,23,VSS_23*%
%TO.N,GND*%
X143278679Y-89321320D03*
%TO.P,U1,24,VDD_24*%
%TO.N,+3.3V*%
X142925126Y-89674873D03*
D28*
%TO.P,U1,25,PB12_25*%
%TO.N,/PB12*%
X142925126Y-91683057D03*
%TO.P,U1,26,PB13_26*%
%TO.N,/PB13*%
X143278679Y-92036610D03*
%TO.P,U1,27,PB14_27*%
%TO.N,/PB14*%
X143632233Y-92390163D03*
%TO.P,U1,28,PB15_28*%
%TO.N,/PB15*%
X143985786Y-92743717D03*
%TO.P,U1,29,PA8_29*%
%TO.N,/PA8*%
X144339340Y-93097270D03*
%TO.P,U1,30,PA9_30*%
%TO.N,/PA9*%
X144692893Y-93450824D03*
%TO.P,U1,31,PA10_31*%
%TO.N,/PA10*%
X145046446Y-93804377D03*
%TO.P,U1,32,PA11_32*%
%TO.N,/PA11*%
X145400000Y-94157930D03*
%TO.P,U1,33,PA12_33*%
%TO.N,/PA12*%
X145753553Y-94511484D03*
%TO.P,U1,34,PA13_34*%
%TO.N,/PA13*%
X146107107Y-94865037D03*
%TO.P,U1,35,VSS_35*%
%TO.N,GND*%
X146460660Y-95218591D03*
%TO.P,U1,36,VDDUSB_36*%
%TO.N,+3.3V*%
X146814213Y-95572144D03*
D29*
%TO.P,U1,37,PA14_37*%
%TO.N,/PA14*%
X148822397Y-95572144D03*
%TO.P,U1,38,PA15_38*%
%TO.N,/PA15*%
X149175950Y-95218591D03*
%TO.P,U1,39,PB3_39*%
%TO.N,/PB3*%
X149529503Y-94865037D03*
%TO.P,U1,40,PB4_40*%
%TO.N,/PB4*%
X149883057Y-94511484D03*
%TO.P,U1,41,PB5_41*%
%TO.N,/PB5*%
X150236610Y-94157930D03*
%TO.P,U1,42,PB6_42*%
%TO.N,/PB6*%
X150590164Y-93804377D03*
%TO.P,U1,43,PB7_43*%
%TO.N,/PB7*%
X150943717Y-93450824D03*
%TO.P,U1,44,BOOT0_44*%
%TO.N,/BOOT0*%
X151297270Y-93097270D03*
%TO.P,U1,45,PB8_45*%
%TO.N,/PB8*%
X151650824Y-92743717D03*
%TO.P,U1,46,PB9_46*%
%TO.N,/PB9*%
X152004377Y-92390163D03*
%TO.P,U1,47,VSS_47*%
%TO.N,GND*%
X152357931Y-92036610D03*
%TO.P,U1,48,VDD_48*%
%TO.N,+3.3V*%
X152711484Y-91683057D03*
%TD*%
D30*
%TO.P,J3,1,Pin_1_1*%
%TO.N,/PB9*%
X175743305Y-105478965D03*
D31*
%TO.P,J3,2,Pin_2_2*%
%TO.N,/PB8*%
X173203305Y-105478965D03*
%TO.P,J3,3,Pin_3_3*%
%TO.N,/PB7*%
X170663305Y-105478965D03*
%TO.P,J3,4,Pin_4_4*%
%TO.N,/PB6*%
X168123305Y-105478965D03*
%TO.P,J3,5,Pin_5_5*%
%TO.N,/PB5*%
X165583305Y-105478965D03*
%TO.P,J3,6,Pin_6_6*%
%TO.N,/PB4*%
X163043305Y-105478965D03*
%TO.P,J3,7,Pin_7_7*%
%TO.N,/PB3*%
X160503305Y-105478965D03*
%TO.P,J3,8,Pin_8_8*%
%TO.N,/PA15*%
X157963305Y-105478965D03*
%TO.P,J3,9,Pin_9_9*%
%TO.N,/PA14*%
X155423305Y-105478965D03*
%TO.P,J3,10,Pin_10_10*%
%TO.N,GND*%
X152883305Y-105478965D03*
%TO.P,J3,11,Pin_11_11*%
%TO.N,/PA13*%
X150343305Y-105478965D03*
%TO.P,J3,12,Pin_12_12*%
%TO.N,/PA12*%
X147803305Y-105478965D03*
%TO.P,J3,13,Pin_13_13*%
%TO.N,/PA11*%
X145263305Y-105478965D03*
%TO.P,J3,14,Pin_14_14*%
%TO.N,/PA10*%
X142723305Y-105478965D03*
%TO.P,J3,15,Pin_15_15*%
%TO.N,/PA9*%
X140183305Y-105478965D03*
%TO.P,J3,16,Pin_16_16*%
%TO.N,/PA8*%
X137643305Y-105478965D03*
%TO.P,J3,17,Pin_17_17*%
%TO.N,/PB15*%
X135103305Y-105478965D03*
%TO.P,J3,18,Pin_18_18*%
%TO.N,/PB14*%
X132563305Y-105478965D03*
%TO.P,J3,19,Pin_19_19*%
%TO.N,/PB13*%
X130023305Y-105478965D03*
%TO.P,J3,20,Pin_20_20*%
%TO.N,/PB12*%
X127483305Y-105478965D03*
%TD*%
D30*
%TO.P,J2,1,Pin_1_1*%
%TO.N,GND*%
X175618305Y-75878965D03*
D31*
%TO.P,J2,2,Pin_2_2*%
%TO.N,/PC13*%
X173078305Y-75878965D03*
%TO.P,J2,3,Pin_3_3*%
%TO.N,/PC14*%
X170538305Y-75878965D03*
%TO.P,J2,4,Pin_4_4*%
%TO.N,/PC15*%
X167998305Y-75878965D03*
%TO.P,J2,5,Pin_5_5*%
%TO.N,/PA0*%
X165458305Y-75878965D03*
%TO.P,J2,6,Pin_6_6*%
%TO.N,/PA1*%
X162918305Y-75878965D03*
%TO.P,J2,7,Pin_7_7*%
%TO.N,/PA2*%
X160378305Y-75878965D03*
%TO.P,J2,8,Pin_8_8*%
%TO.N,+3.3V*%
X157838305Y-75878965D03*
%TO.P,J2,9,Pin_9_9*%
%TO.N,GND*%
X155298305Y-75878965D03*
%TO.P,J2,10,Pin_10_10*%
%TO.N,/PA3*%
X152758305Y-75878965D03*
%TO.P,J2,11,Pin_11_11*%
%TO.N,/PA4*%
X150218305Y-75878965D03*
%TO.P,J2,12,Pin_12_12*%
%TO.N,/PA5*%
X147678305Y-75878965D03*
%TO.P,J2,13,Pin_13_13*%
%TO.N,/PA6*%
X145138305Y-75878965D03*
%TO.P,J2,14,Pin_14_14*%
%TO.N,/PA7*%
X142598305Y-75878965D03*
%TO.P,J2,15,Pin_15_15*%
%TO.N,/PB0*%
X140058305Y-75878965D03*
%TO.P,J2,16,Pin_16_16*%
%TO.N,/PB1*%
X137518305Y-75878965D03*
%TO.P,J2,17,Pin_17_17*%
%TO.N,/PB2*%
X134978305Y-75878965D03*
%TO.P,J2,18,Pin_18_18*%
%TO.N,/PB10*%
X132438305Y-75878965D03*
%TO.P,J2,19,Pin_19_19*%
%TO.N,/PB11*%
X129898305Y-75878965D03*
%TO.P,J2,20,Pin_20_20*%
%TO.N,VBUS*%
X127358305Y-75878965D03*
%TD*%
D32*
%TO.N,GND*%
X148300000Y-101600000D03*
%TO.N,+3.3V*%
X146318305Y-98178965D03*
X153568305Y-88428965D03*
X139318305Y-88928965D03*
X151268305Y-100278965D03*
X154300000Y-78700000D03*
X177068305Y-88428965D03*
X155600000Y-92600000D03*
%TO.N,/PC13*%
X149600000Y-92100000D03*
%TO.N,/PC14*%
X149500000Y-90600000D03*
%TO.N,/PC15*%
X148900000Y-89400000D03*
%TO.N,/PA0*%
X150800000Y-83600000D03*
%TO.N,/PA1*%
X150065322Y-82670016D03*
%TO.N,/PA2*%
X150800000Y-81400000D03*
%TO.N,/PB10*%
X141418305Y-84178965D03*
%TO.N,/PB11*%
X141100000Y-85300000D03*
%TD*%
%TO.N,/HSE_OUT*%
D33*
X151938733Y-86912090D02*
X150943717Y-87907106D01*
X155439447Y-86257823D02*
X154818305Y-86878965D01*
X155439447Y-85402188D02*
X155439447Y-86257823D01*
X154818305Y-86878965D02*
X154785180Y-86912090D01*
X154785180Y-86912090D02*
X151938733Y-86912090D01*
%TO.N,GND*%
D34*
X155418305Y-82498965D02*
X155418305Y-81328965D01*
D33*
X142296913Y-88339554D02*
X142057716Y-88339554D01*
D34*
X156641528Y-83722188D02*
X155598305Y-82678965D01*
D33*
X151957716Y-85478894D02*
X151957716Y-85318376D01*
D34*
X155418305Y-81328965D02*
X155368305Y-81278965D01*
X156146553Y-83705132D02*
X155510157Y-83705132D01*
D33*
X150236610Y-87200000D02*
X151957716Y-85478894D01*
X145478894Y-96200357D02*
X145478894Y-96439554D01*
X143278679Y-89321320D02*
X142296913Y-88339554D01*
D34*
X155510157Y-83705132D02*
X154139483Y-85075806D01*
X156641528Y-84200107D02*
X156641528Y-83722188D01*
D33*
X146460660Y-95218591D02*
X145478894Y-96200357D01*
X145307716Y-96439554D02*
X145478894Y-96439554D01*
D34*
X148268305Y-100278965D02*
X148268305Y-101568305D01*
X154139483Y-85075806D02*
X154139483Y-86200143D01*
X148268305Y-101568305D02*
X148300000Y-101600000D01*
X156641528Y-84200107D02*
X156146553Y-83705132D01*
X155598305Y-82678965D02*
X155418305Y-82498965D01*
X155368305Y-81278965D02*
X155368305Y-79678965D01*
%TO.N,VBUS*%
X131755805Y-88928965D02*
X131755805Y-91128965D01*
%TO.N,+3.3V*%
D33*
X142035391Y-89674873D02*
X141378894Y-89018376D01*
D34*
X139318305Y-88928965D02*
X136355805Y-88928965D01*
D33*
X155600000Y-92600000D02*
X154160518Y-92600000D01*
X153546803Y-92518376D02*
X152711484Y-91683057D01*
D34*
X136355805Y-88928965D02*
X136355805Y-91128965D01*
D33*
X154078894Y-92518376D02*
X153546803Y-92518376D01*
X154178894Y-88939554D02*
X154078894Y-88939554D01*
D34*
X153818305Y-79678965D02*
X152305805Y-79678965D01*
X137978305Y-91128965D02*
X138018305Y-91168965D01*
X136355805Y-88928965D02*
X136555805Y-88728965D01*
D33*
X154160518Y-92600000D02*
X154078894Y-92518376D01*
X146157716Y-97118376D02*
X146814213Y-96461879D01*
D34*
X136355805Y-91128965D02*
X137978305Y-91128965D01*
D33*
X139407716Y-89018376D02*
X139318305Y-88928965D01*
X142925126Y-89674873D02*
X142035391Y-89674873D01*
D34*
X152305805Y-79678965D02*
X152293305Y-79691465D01*
X153818305Y-79678965D02*
X153818305Y-79181695D01*
X150168305Y-100278965D02*
X151268305Y-100278965D01*
D33*
X146814213Y-96461879D02*
X146814213Y-95572144D01*
X154078894Y-88939554D02*
X153568305Y-88428965D01*
X141378894Y-89018376D02*
X139407716Y-89018376D01*
X146157716Y-97118376D02*
X146157716Y-98018376D01*
X152711484Y-89674873D02*
X153446803Y-88939554D01*
X146157716Y-98018376D02*
X146318305Y-98178965D01*
X153446803Y-88939554D02*
X154178894Y-88939554D01*
D34*
X179513305Y-88428965D02*
X177068305Y-88428965D01*
X153818305Y-79181695D02*
X154300000Y-78700000D01*
%TO.N,/NRST*%
D33*
X151731627Y-86412090D02*
X151887910Y-86412090D01*
X154638305Y-83661695D02*
X154638305Y-82678965D01*
X151887910Y-86412090D02*
X154638305Y-83661695D01*
X150590164Y-87553553D02*
X151731627Y-86412090D01*
%TO.N,/SW_BOOT0*%
D34*
X179503305Y-89918965D02*
X179513305Y-89928965D01*
X159568305Y-89918965D02*
X179503305Y-89918965D01*
%TO.N,/BOOT0*%
D33*
X159266191Y-90636851D02*
X159568305Y-90938965D01*
X150688846Y-92157129D02*
X152209124Y-90636851D01*
X151297270Y-93097270D02*
X150688846Y-92488846D01*
X152209124Y-90636851D02*
X159266191Y-90636851D01*
X150688846Y-92488846D02*
X150688846Y-92157129D01*
%TO.N,+3.3VA*%
D34*
X152305805Y-81278965D02*
X152293305Y-81266465D01*
X152293305Y-83625143D02*
X151278894Y-84639554D01*
D33*
X150818305Y-85911198D02*
X150818305Y-85100143D01*
X150818305Y-85100143D02*
X151278894Y-84639554D01*
D34*
X152293305Y-81266465D02*
X152293305Y-83625143D01*
X153818305Y-81278965D02*
X152305805Y-81278965D01*
D33*
X149883057Y-86846446D02*
X150818305Y-85911198D01*
%TO.N,/LED_A*%
D34*
X138018305Y-92188965D02*
X138940805Y-92188965D01*
X138940805Y-92188965D02*
X139418305Y-92666465D01*
%TO.N,/HSE_IN*%
D33*
X155530252Y-86937727D02*
X155530252Y-87488196D01*
X155530252Y-87488196D02*
X155478894Y-87539554D01*
X155427536Y-87590912D02*
X151967018Y-87590912D01*
X151967018Y-87590912D02*
X151297270Y-88260660D01*
X158197163Y-85755742D02*
X156712237Y-85755742D01*
X156712237Y-85755742D02*
X155530252Y-86937727D01*
X155478894Y-87539554D02*
X155427536Y-87590912D01*
%TO.N,/PC13*%
X151268305Y-90410946D02*
X152357931Y-89321320D01*
X150858255Y-90828962D02*
X151268305Y-90418912D01*
X150850289Y-90828962D02*
X150858255Y-90828962D01*
X150750286Y-90949714D02*
X150750286Y-90928965D01*
X149600000Y-92100000D02*
X150750286Y-90949714D01*
X151268305Y-90418912D02*
X151268305Y-90410946D01*
X150750286Y-90928965D02*
X150850289Y-90828962D01*
%TO.N,/PC14*%
X150843182Y-90128962D02*
X152004377Y-88967767D01*
X149500000Y-90600000D02*
X149971038Y-90128962D01*
X149971038Y-90128962D02*
X150843182Y-90128962D01*
%TO.N,/PC15*%
X148900000Y-89400000D02*
X148924434Y-89375566D01*
X150889471Y-89375566D02*
X151650824Y-88614213D01*
X148924434Y-89375566D02*
X150889471Y-89375566D01*
%TO.N,/PA0*%
X150318305Y-84081695D02*
X150318305Y-85704091D01*
X150800000Y-83600000D02*
X150318305Y-84081695D01*
X150318305Y-85704091D02*
X149529503Y-86492893D01*
%TO.N,/PA1*%
X149784375Y-83814274D02*
X149668305Y-83698204D01*
X149668305Y-83698204D02*
X149668305Y-83067033D01*
X149175950Y-86139339D02*
X149784375Y-85530914D01*
X149784375Y-85530914D02*
X149784375Y-83814274D01*
X149668305Y-83067033D02*
X150065322Y-82670016D01*
%TO.N,/PA2*%
X150800000Y-81400000D02*
X150750909Y-81400000D01*
X150750909Y-81400000D02*
X150280889Y-81870020D01*
X149627250Y-81870020D02*
X148822397Y-82674873D01*
X148822397Y-82674873D02*
X148822397Y-85785786D01*
X150280889Y-81870020D02*
X149627250Y-81870020D01*
%TO.N,/PA3*%
D35*
X152758305Y-77138965D02*
X152758305Y-75878965D01*
X146814213Y-83083057D02*
X152758305Y-77138965D01*
X146814213Y-85785786D02*
X146814213Y-83083057D01*
%TO.N,/PA4*%
X145902235Y-85580914D02*
X145902235Y-81695035D01*
X145902235Y-81695035D02*
X150218305Y-77378965D01*
X150218305Y-77378965D02*
X150218305Y-75878965D01*
X146460660Y-86139339D02*
X145902235Y-85580914D01*
%TO.N,/PA5*%
X146107107Y-86492893D02*
X145218305Y-85604091D01*
X147678305Y-77818965D02*
X147678305Y-75878965D01*
X145218305Y-80278965D02*
X147678305Y-77818965D01*
X145218305Y-85604091D02*
X145218305Y-80278965D01*
%TO.N,/PA6*%
X145138305Y-77658965D02*
X145138305Y-75878965D01*
X144518305Y-78278965D02*
X145138305Y-77658965D01*
X145753553Y-86846446D02*
X144518305Y-85611198D01*
X144518305Y-85611198D02*
X144518305Y-78278965D01*
%TO.N,/PA7*%
X143918305Y-85718305D02*
X143918305Y-79078965D01*
X143918305Y-79078965D02*
X142598305Y-77758965D01*
X145400000Y-87200000D02*
X143918305Y-85718305D01*
X142598305Y-77758965D02*
X142598305Y-75878965D01*
%TO.N,/PB0*%
X141218305Y-77038965D02*
X140058305Y-75878965D01*
X143418305Y-85925412D02*
X143418305Y-79978965D01*
X143418305Y-79978965D02*
X141218305Y-77778965D01*
X145046446Y-87553553D02*
X143418305Y-85925412D01*
X141218305Y-77778965D02*
X141218305Y-77038965D01*
%TO.N,/PB1*%
X144134468Y-87263829D02*
X144134468Y-87207261D01*
X143018305Y-86091097D02*
X143018305Y-81878965D01*
X144134468Y-87207261D02*
X143018305Y-86091097D01*
X143018305Y-81878965D02*
X138918305Y-77778965D01*
X144692893Y-87822254D02*
X144134468Y-87263829D01*
X138918305Y-77278965D02*
X137518305Y-75878965D01*
X144692893Y-87907106D02*
X144692893Y-87822254D01*
X138918305Y-77778965D02*
X138918305Y-77278965D01*
%TO.N,/PB2*%
X136018305Y-76918965D02*
X134978305Y-75878965D01*
X144339340Y-88260660D02*
X142618305Y-86539625D01*
X142618305Y-84378965D02*
X136018305Y-77778965D01*
X142618305Y-86539625D02*
X142618305Y-84378965D01*
X136018305Y-77778965D02*
X136018305Y-76918965D01*
%TO.N,/PB10*%
X142060739Y-86689166D02*
X143985786Y-88614213D01*
X142060739Y-84821399D02*
X142060739Y-86689166D01*
X141418305Y-84178965D02*
X142060739Y-84821399D01*
%TO.N,/PB11*%
X141100000Y-85300000D02*
X141460739Y-85660739D01*
X141460739Y-86796273D02*
X143632233Y-88967767D01*
X141460739Y-85660739D02*
X141460739Y-86796273D01*
%TO.N,/PB12*%
X140529218Y-94078965D02*
X130418305Y-94078965D01*
X130418305Y-94078965D02*
X127218305Y-97278965D01*
X127218305Y-105213965D02*
X127483305Y-105478965D01*
X142925126Y-91683057D02*
X140529218Y-94078965D01*
X127218305Y-97278965D02*
X127218305Y-105213965D01*
%TO.N,/PB13*%
X140836324Y-94478965D02*
X132118305Y-94478965D01*
X130018305Y-96578965D02*
X130018305Y-105473965D01*
X132118305Y-94478965D02*
X130018305Y-96578965D01*
X143278679Y-92036610D02*
X140836324Y-94478965D01*
X130018305Y-105473965D02*
X130023305Y-105478965D01*
%TO.N,/PB14*%
X132418305Y-105333965D02*
X132563305Y-105478965D01*
X141143431Y-94878965D02*
X134718305Y-94878965D01*
X143632233Y-92390163D02*
X141143431Y-94878965D01*
X132418305Y-97178965D02*
X132418305Y-105333965D01*
X134718305Y-94878965D02*
X132418305Y-97178965D01*
%TO.N,/PB15*%
X143985786Y-92743717D02*
X141350538Y-95378965D01*
X135018305Y-105393965D02*
X135103305Y-105478965D01*
X135018305Y-97378965D02*
X135018305Y-105393965D01*
X137018305Y-95378965D02*
X135018305Y-97378965D01*
X141350538Y-95378965D02*
X137018305Y-95378965D01*
%TO.N,/PA8*%
X144339340Y-93097270D02*
X141657645Y-95778965D01*
X137618305Y-97578965D02*
X137618305Y-105453965D01*
X139418305Y-95778965D02*
X137618305Y-97578965D01*
X141657645Y-95778965D02*
X139418305Y-95778965D01*
X137618305Y-105453965D02*
X137643305Y-105478965D01*
%TO.N,/PA9*%
X140118305Y-96778965D02*
X140118305Y-105413965D01*
X144692893Y-93450824D02*
X141964752Y-96178965D01*
X140718305Y-96178965D02*
X140118305Y-96778965D01*
X141964752Y-96178965D02*
X140718305Y-96178965D01*
X140118305Y-105413965D02*
X140183305Y-105478965D01*
%TO.N,/PA10*%
X145046446Y-93804377D02*
X142618305Y-96232518D01*
X142618305Y-105373965D02*
X142723305Y-105478965D01*
X142618305Y-96232518D02*
X142618305Y-105373965D01*
%TO.N,/PA11*%
X143868305Y-102428965D02*
X145263305Y-103823965D01*
X145263305Y-103823965D02*
X145263305Y-105478965D01*
X143868305Y-95689625D02*
X143868305Y-102428965D01*
X145400000Y-94157930D02*
X143868305Y-95689625D01*
%TO.N,/PA12*%
X147803305Y-103863965D02*
X147803305Y-105478965D01*
X145753553Y-94511484D02*
X144518305Y-95746732D01*
X144518305Y-100578965D02*
X147803305Y-103863965D01*
X144518305Y-95746732D02*
X144518305Y-100578965D01*
%TO.N,/PA13*%
X150343305Y-105103965D02*
X150343305Y-105478965D01*
X146668305Y-100030436D02*
X146668305Y-101428965D01*
X147726191Y-98972550D02*
X146668305Y-100030436D01*
X147026536Y-94306613D02*
X147726191Y-95006268D01*
X146107107Y-94865037D02*
X146665531Y-94306613D01*
X146665531Y-94306613D02*
X147026536Y-94306613D01*
X146668305Y-101428965D02*
X150343305Y-105103965D01*
X147726191Y-95006268D02*
X147726191Y-98972550D01*
X146107107Y-94865037D02*
X146107107Y-94790163D01*
%TO.N,/PA14*%
X150729218Y-97478965D02*
X153918305Y-97478965D01*
X153918305Y-97478965D02*
X155418305Y-98978965D01*
X148822397Y-95572144D02*
X150729218Y-97478965D01*
X155418305Y-105473965D02*
X155423305Y-105478965D01*
X155418305Y-98978965D02*
X155418305Y-105473965D01*
%TO.N,/PA15*%
X158018305Y-98778965D02*
X158018305Y-105423965D01*
X158018305Y-105423965D02*
X157963305Y-105478965D01*
X149175950Y-95218591D02*
X150836324Y-96878965D01*
X150836324Y-96878965D02*
X156118305Y-96878965D01*
X156118305Y-96878965D02*
X158018305Y-98778965D01*
%TO.N,/PB3*%
X151143431Y-96478965D02*
X158818305Y-96478965D01*
X149529503Y-94865037D02*
X151143431Y-96478965D01*
X160518305Y-98178965D02*
X160518305Y-105463965D01*
X158818305Y-96478965D02*
X160518305Y-98178965D01*
X160518305Y-105463965D02*
X160503305Y-105478965D01*
%TO.N,/PB4*%
X163118305Y-97278965D02*
X163118305Y-105403965D01*
X161918305Y-96078965D02*
X163118305Y-97278965D01*
X163118305Y-105403965D02*
X163043305Y-105478965D01*
X149883057Y-94511484D02*
X151450538Y-96078965D01*
X151450538Y-96078965D02*
X161918305Y-96078965D01*
%TO.N,/PB5*%
X165718305Y-105343965D02*
X165583305Y-105478965D01*
X151757645Y-95678965D02*
X164318305Y-95678965D01*
X164318305Y-95678965D02*
X165718305Y-97078965D01*
X165718305Y-97078965D02*
X165718305Y-105343965D01*
X150236610Y-94157930D02*
X151757645Y-95678965D01*
%TO.N,/PB6*%
X165286933Y-95278965D02*
X168218305Y-98210337D01*
X168218305Y-105383965D02*
X168123305Y-105478965D01*
X152064752Y-95278965D02*
X165286933Y-95278965D01*
X168218305Y-98210337D02*
X168218305Y-105383965D01*
X150590164Y-93804377D02*
X152064752Y-95278965D01*
%TO.N,/PB7*%
X150943717Y-93450824D02*
X152371858Y-94878965D01*
X152371858Y-94878965D02*
X166918305Y-94878965D01*
X170618305Y-98578965D02*
X170618305Y-105433965D01*
X166918305Y-94878965D02*
X170618305Y-98578965D01*
X170618305Y-105433965D02*
X170663305Y-105478965D01*
%TO.N,/PB8*%
X153386072Y-94478965D02*
X169118305Y-94478965D01*
X169118305Y-94478965D02*
X173118305Y-98478965D01*
X173118305Y-98478965D02*
X173118305Y-105393965D01*
X151650824Y-92743717D02*
X153386072Y-94478965D01*
X173118305Y-105393965D02*
X173203305Y-105478965D01*
%TO.N,/PB9*%
X152004377Y-92390163D02*
X153693179Y-94078965D01*
X153693179Y-94078965D02*
X171318305Y-94078965D01*
X175618305Y-98378965D02*
X175618305Y-105353965D01*
X171318305Y-94078965D02*
X175618305Y-98378965D01*
X175618305Y-105353965D02*
X175743305Y-105478965D01*
%TD*%
%TA.AperFunction,Conductor*%
%TO.N,GND*%
G36*
X133418305Y-75499804D02*
G01*
X133369247Y-75381368D01*
X133254280Y-75209307D01*
X133107962Y-75062989D01*
X133021931Y-75005506D01*
X132935903Y-74948024D01*
X132823471Y-74901453D01*
X132744725Y-74868835D01*
X132744717Y-74868833D01*
X132541774Y-74828465D01*
X132541770Y-74828465D01*
X132334840Y-74828465D01*
X132334835Y-74828465D01*
X132131892Y-74868833D01*
X132131884Y-74868835D01*
X131940708Y-74948023D01*
X131768647Y-75062989D01*
X131622329Y-75209307D01*
X131507363Y-75381368D01*
X131428175Y-75572544D01*
X131428173Y-75572552D01*
X131387805Y-75775495D01*
X131387805Y-75982434D01*
X131390714Y-75997057D01*
X131428175Y-76185385D01*
X131507364Y-76376563D01*
X131564846Y-76462591D01*
X131622329Y-76548622D01*
X131768647Y-76694940D01*
X131768650Y-76694942D01*
X131940707Y-76809906D01*
X132131885Y-76889095D01*
X132334835Y-76929464D01*
X132334839Y-76929465D01*
X132334840Y-76929465D01*
X132541771Y-76929465D01*
X132541772Y-76929464D01*
X132744725Y-76889095D01*
X132935903Y-76809906D01*
X133107960Y-76694942D01*
X133254282Y-76548620D01*
X133369246Y-76376563D01*
X133418305Y-76258124D01*
X133418305Y-85500000D01*
X129924000Y-85500000D01*
X129856961Y-85480315D01*
X129811206Y-85427511D01*
X129800000Y-85376000D01*
X129800000Y-77053465D01*
X129819685Y-76986426D01*
X129872489Y-76940671D01*
X129924000Y-76929465D01*
X130001771Y-76929465D01*
X130001772Y-76929464D01*
X130204725Y-76889095D01*
X130395903Y-76809906D01*
X130567960Y-76694942D01*
X130714282Y-76548620D01*
X130829246Y-76376563D01*
X130908435Y-76185385D01*
X130948805Y-75982430D01*
X130948805Y-75775500D01*
X130908435Y-75572545D01*
X130829246Y-75381367D01*
X130714282Y-75209310D01*
X130714280Y-75209307D01*
X130567962Y-75062989D01*
X130481931Y-75005506D01*
X130395903Y-74948024D01*
X130283471Y-74901453D01*
X130204725Y-74868835D01*
X130204717Y-74868833D01*
X130001774Y-74828465D01*
X130001770Y-74828465D01*
X129924000Y-74828465D01*
X129856961Y-74808780D01*
X129811206Y-74755976D01*
X129800000Y-74704465D01*
X129800000Y-74400000D01*
X124800000Y-74400000D01*
X124800000Y-86008629D01*
X124780315Y-86075668D01*
X124727511Y-86121423D01*
X124723456Y-86123189D01*
X124709913Y-86128798D01*
X124558337Y-86230078D01*
X124558329Y-86230084D01*
X124429424Y-86358989D01*
X124429418Y-86358997D01*
X124328138Y-86510573D01*
X124328136Y-86510577D01*
X124258373Y-86679002D01*
X124258370Y-86679012D01*
X124222805Y-86857808D01*
X124222805Y-86857811D01*
X124222805Y-87040119D01*
X124222805Y-87040121D01*
X124222804Y-87040121D01*
X124258370Y-87218917D01*
X124258373Y-87218927D01*
X124320965Y-87370038D01*
X124328434Y-87439507D01*
X124297159Y-87501986D01*
X124237070Y-87537638D01*
X124230597Y-87539107D01*
X124183565Y-87548462D01*
X124183560Y-87548464D01*
X124065180Y-87597498D01*
X124065171Y-87597503D01*
X123958636Y-87668688D01*
X123958632Y-87668691D01*
X123868031Y-87759292D01*
X123868028Y-87759296D01*
X123796843Y-87865831D01*
X123796838Y-87865840D01*
X123747804Y-87984220D01*
X123747802Y-87984226D01*
X123722805Y-88109893D01*
X123722805Y-88109896D01*
X123722805Y-88238034D01*
X123722805Y-88238036D01*
X123722804Y-88238036D01*
X123747802Y-88363703D01*
X123747804Y-88363709D01*
X123796838Y-88482089D01*
X123796843Y-88482098D01*
X123868028Y-88588633D01*
X123868031Y-88588637D01*
X123958632Y-88679238D01*
X123958636Y-88679241D01*
X124065171Y-88750426D01*
X124065177Y-88750429D01*
X124065178Y-88750430D01*
X124183561Y-88799466D01*
X124183565Y-88799466D01*
X124183566Y-88799467D01*
X124309233Y-88824465D01*
X124309236Y-88824465D01*
X124437376Y-88824465D01*
X124521920Y-88807647D01*
X124563049Y-88799466D01*
X124628549Y-88772334D01*
X124661178Y-88768826D01*
X124693647Y-88764158D01*
X124695734Y-88765111D01*
X124698016Y-88764866D01*
X124727359Y-88779553D01*
X124757203Y-88793183D01*
X124758443Y-88795113D01*
X124760495Y-88796140D01*
X124777237Y-88824357D01*
X124794977Y-88851961D01*
X124795412Y-88854989D01*
X124796148Y-88856229D01*
X124800000Y-88886896D01*
X124800000Y-88904009D01*
X124780315Y-88971048D01*
X124759962Y-88992229D01*
X124761177Y-88993444D01*
X124675455Y-89079165D01*
X124628805Y-89179206D01*
X124622806Y-89224776D01*
X124622805Y-89224792D01*
X124622805Y-89523145D01*
X124628805Y-89568721D01*
X124628807Y-89568728D01*
X124665101Y-89646560D01*
X124675593Y-89715638D01*
X124665101Y-89751369D01*
X124628805Y-89829204D01*
X124628805Y-89829206D01*
X124622806Y-89874776D01*
X124622805Y-89874792D01*
X124622805Y-90173145D01*
X124628805Y-90218721D01*
X124628807Y-90218728D01*
X124665101Y-90296560D01*
X124675593Y-90365638D01*
X124665101Y-90401369D01*
X124628805Y-90479204D01*
X124628805Y-90479206D01*
X124622806Y-90524776D01*
X124622805Y-90524792D01*
X124622805Y-90823145D01*
X124628805Y-90868721D01*
X124628807Y-90868728D01*
X124665101Y-90946560D01*
X124675593Y-91015638D01*
X124665101Y-91051369D01*
X124628805Y-91129204D01*
X124628805Y-91129206D01*
X124622806Y-91174776D01*
X124622805Y-91174792D01*
X124622805Y-91473145D01*
X124628805Y-91518721D01*
X124628806Y-91518725D01*
X124675455Y-91618764D01*
X124753506Y-91696815D01*
X124761178Y-91704487D01*
X124758759Y-91706905D01*
X124790744Y-91746913D01*
X124800000Y-91793921D01*
X124800000Y-91800000D01*
X131098986Y-91800000D01*
X131139940Y-91806958D01*
X131163788Y-91815302D01*
X131196106Y-91826611D01*
X131202192Y-91827181D01*
X131226535Y-91829465D01*
X131226539Y-91829465D01*
X132285075Y-91829465D01*
X132305359Y-91827562D01*
X132315504Y-91826611D01*
X132356531Y-91812254D01*
X132371670Y-91806958D01*
X132412624Y-91800000D01*
X133418305Y-91800000D01*
X133418305Y-93778465D01*
X130378743Y-93778465D01*
X130302316Y-93798944D01*
X130302314Y-93798945D01*
X130284910Y-93808993D01*
X130284909Y-93808992D01*
X130233800Y-93838500D01*
X130233792Y-93838506D01*
X126977846Y-97094452D01*
X126977840Y-97094460D01*
X126938287Y-97162969D01*
X126938284Y-97162974D01*
X126917805Y-97239404D01*
X126917805Y-104527114D01*
X126898120Y-104594153D01*
X126862696Y-104630216D01*
X126813650Y-104662987D01*
X126813646Y-104662990D01*
X126667329Y-104809307D01*
X126552363Y-104981368D01*
X126473175Y-105172544D01*
X126473173Y-105172552D01*
X126432805Y-105375495D01*
X126432805Y-105582434D01*
X126473173Y-105785377D01*
X126473175Y-105785385D01*
X126552364Y-105976563D01*
X126609846Y-106062591D01*
X126667329Y-106148622D01*
X126813647Y-106294940D01*
X126813650Y-106294942D01*
X126985707Y-106409906D01*
X127176885Y-106489095D01*
X127356247Y-106524772D01*
X127379835Y-106529464D01*
X127379839Y-106529465D01*
X127379840Y-106529465D01*
X127586771Y-106529465D01*
X127586772Y-106529464D01*
X127789725Y-106489095D01*
X127980903Y-106409906D01*
X128152960Y-106294942D01*
X128299282Y-106148620D01*
X128414246Y-105976563D01*
X128493435Y-105785385D01*
X128533805Y-105582430D01*
X128533805Y-105375500D01*
X128493435Y-105172545D01*
X128414246Y-104981367D01*
X128299282Y-104809310D01*
X128299281Y-104809309D01*
X128299280Y-104809307D01*
X128152962Y-104662989D01*
X128048804Y-104593394D01*
X127980903Y-104548024D01*
X127980898Y-104548022D01*
X127789725Y-104468835D01*
X127789717Y-104468833D01*
X127618614Y-104434798D01*
X127556703Y-104402413D01*
X127522128Y-104341697D01*
X127518805Y-104313181D01*
X127518805Y-97454798D01*
X127538490Y-97387759D01*
X127555124Y-97367117D01*
X130506457Y-94415784D01*
X130567780Y-94382299D01*
X130594138Y-94379465D01*
X131493472Y-94379465D01*
X131560511Y-94399150D01*
X131606266Y-94451954D01*
X131616210Y-94521112D01*
X131587185Y-94584668D01*
X131581153Y-94591146D01*
X129777846Y-96394452D01*
X129777840Y-96394460D01*
X129738287Y-96462969D01*
X129738284Y-96462974D01*
X129717805Y-96539404D01*
X129717805Y-104385599D01*
X129698120Y-104452638D01*
X129645316Y-104498393D01*
X129641259Y-104500160D01*
X129525707Y-104548023D01*
X129353647Y-104662989D01*
X129207329Y-104809307D01*
X129092363Y-104981368D01*
X129013175Y-105172544D01*
X129013173Y-105172552D01*
X128972805Y-105375495D01*
X128972805Y-105582434D01*
X129013173Y-105785377D01*
X129013175Y-105785385D01*
X129092364Y-105976563D01*
X129149846Y-106062591D01*
X129207329Y-106148622D01*
X129353647Y-106294940D01*
X129353650Y-106294942D01*
X129525707Y-106409906D01*
X129716885Y-106489095D01*
X129896247Y-106524772D01*
X129919835Y-106529464D01*
X129919839Y-106529465D01*
X129919840Y-106529465D01*
X130126771Y-106529465D01*
X130126772Y-106529464D01*
X130329725Y-106489095D01*
X130520903Y-106409906D01*
X130692960Y-106294942D01*
X130839282Y-106148620D01*
X130954246Y-105976563D01*
X131033435Y-105785385D01*
X131073805Y-105582430D01*
X131073805Y-105375500D01*
X131033435Y-105172545D01*
X130954246Y-104981367D01*
X130839282Y-104809310D01*
X130839281Y-104809309D01*
X130839280Y-104809307D01*
X130692962Y-104662989D01*
X130520900Y-104548022D01*
X130395352Y-104496018D01*
X130340948Y-104452176D01*
X130318884Y-104385882D01*
X130318805Y-104381457D01*
X130318805Y-96754798D01*
X130338490Y-96687759D01*
X130355124Y-96667117D01*
X132206457Y-94815784D01*
X132267780Y-94782299D01*
X132294138Y-94779465D01*
X133418305Y-94779465D01*
X133418305Y-95753993D01*
X132177846Y-96994452D01*
X132177840Y-96994460D01*
X132138287Y-97062969D01*
X132138284Y-97062974D01*
X132117805Y-97139404D01*
X132117805Y-104446933D01*
X132098120Y-104513972D01*
X132062696Y-104550035D01*
X131893649Y-104662987D01*
X131747329Y-104809307D01*
X131632363Y-104981368D01*
X131553175Y-105172544D01*
X131553173Y-105172552D01*
X131512805Y-105375495D01*
X131512805Y-105582434D01*
X131553173Y-105785377D01*
X131553175Y-105785385D01*
X131632364Y-105976563D01*
X131689846Y-106062591D01*
X131747329Y-106148622D01*
X131893647Y-106294940D01*
X131893650Y-106294942D01*
X132065707Y-106409906D01*
X132256885Y-106489095D01*
X132436247Y-106524772D01*
X132459835Y-106529464D01*
X132459839Y-106529465D01*
X132459840Y-106529465D01*
X132666771Y-106529465D01*
X132666772Y-106529464D01*
X132869725Y-106489095D01*
X133060903Y-106409906D01*
X133232960Y-106294942D01*
X133379282Y-106148620D01*
X133418305Y-106090217D01*
X133418305Y-107880381D01*
X122892707Y-107869592D01*
X122892701Y-107869592D01*
X122884443Y-107869583D01*
X122884191Y-107869516D01*
X122822782Y-107869516D01*
X122821914Y-107869516D01*
X122821898Y-107869511D01*
X122814561Y-107869290D01*
X122524504Y-107851748D01*
X122509640Y-107849943D01*
X122227511Y-107798244D01*
X122212976Y-107794662D01*
X122086681Y-107755308D01*
X121939125Y-107709329D01*
X121925125Y-107704019D01*
X121663565Y-107586303D01*
X121650306Y-107579344D01*
X121404848Y-107430961D01*
X121392524Y-107422455D01*
X121166734Y-107245562D01*
X121155526Y-107235633D01*
X120952703Y-107032812D01*
X120942774Y-107021604D01*
X120823633Y-106869533D01*
X120765879Y-106795816D01*
X120757379Y-106783502D01*
X120608980Y-106538023D01*
X120602027Y-106524772D01*
X120585970Y-106489096D01*
X120484308Y-106263214D01*
X120478999Y-106249214D01*
X120393667Y-105975374D01*
X120390083Y-105960835D01*
X120357931Y-105785385D01*
X120338380Y-105678700D01*
X120336576Y-105663840D01*
X120332537Y-105597062D01*
X120319033Y-105373823D01*
X120318808Y-105366249D01*
X120318813Y-105360867D01*
X121317805Y-105360867D01*
X121317805Y-105597062D01*
X121354751Y-105830333D01*
X121427738Y-106054961D01*
X121526716Y-106249214D01*
X121534962Y-106265398D01*
X121673788Y-106456475D01*
X121840795Y-106623482D01*
X122031872Y-106762308D01*
X122073456Y-106783496D01*
X122242308Y-106869531D01*
X122242310Y-106869531D01*
X122242313Y-106869533D01*
X122362717Y-106908654D01*
X122466936Y-106942518D01*
X122700208Y-106979465D01*
X122700213Y-106979465D01*
X122936402Y-106979465D01*
X123169673Y-106942518D01*
X123394297Y-106869533D01*
X123396319Y-106868503D01*
X123402024Y-106865595D01*
X123604738Y-106762308D01*
X123795815Y-106623482D01*
X123962822Y-106456475D01*
X124101648Y-106265398D01*
X124208873Y-106054957D01*
X124281858Y-105830333D01*
X124288978Y-105785377D01*
X124318805Y-105597062D01*
X124318805Y-105360867D01*
X124281858Y-105127596D01*
X124208871Y-104902968D01*
X124101647Y-104692531D01*
X124080184Y-104662990D01*
X123962822Y-104501455D01*
X123795815Y-104334448D01*
X123604738Y-104195622D01*
X123394301Y-104088398D01*
X123169673Y-104015411D01*
X122936402Y-103978465D01*
X122936397Y-103978465D01*
X122700213Y-103978465D01*
X122700208Y-103978465D01*
X122466936Y-104015411D01*
X122242308Y-104088398D01*
X122031871Y-104195622D01*
X121922855Y-104274827D01*
X121840795Y-104334448D01*
X121840793Y-104334450D01*
X121840792Y-104334450D01*
X121673790Y-104501452D01*
X121673790Y-104501453D01*
X121673788Y-104501455D01*
X121614167Y-104583515D01*
X121534962Y-104692531D01*
X121427738Y-104902968D01*
X121354751Y-105127596D01*
X121317805Y-105360867D01*
X120318813Y-105360867D01*
X120328473Y-94857337D01*
X120348219Y-94790319D01*
X120401065Y-94744612D01*
X120470233Y-94734732D01*
X120533762Y-94763816D01*
X120567034Y-94810001D01*
X120611064Y-94916298D01*
X120611069Y-94916308D01*
X120695934Y-95043316D01*
X120695937Y-95043320D01*
X120803949Y-95151332D01*
X120803953Y-95151335D01*
X120930961Y-95236200D01*
X120930967Y-95236203D01*
X120930968Y-95236204D01*
X121072100Y-95294663D01*
X121221920Y-95324464D01*
X121221924Y-95324465D01*
X121221925Y-95324465D01*
X122024686Y-95324465D01*
X122024687Y-95324464D01*
X122174510Y-95294663D01*
X122315642Y-95236204D01*
X122442657Y-95151335D01*
X122550675Y-95043317D01*
X122635544Y-94916302D01*
X122694003Y-94775170D01*
X122723805Y-94625345D01*
X122723805Y-94472585D01*
X122694003Y-94322760D01*
X122635544Y-94181628D01*
X122635543Y-94181627D01*
X122635540Y-94181621D01*
X122550675Y-94054613D01*
X122550672Y-94054609D01*
X122442660Y-93946597D01*
X122442656Y-93946594D01*
X122315648Y-93861729D01*
X122315639Y-93861724D01*
X122174510Y-93803267D01*
X122174502Y-93803265D01*
X122024689Y-93773465D01*
X122024685Y-93773465D01*
X121221925Y-93773465D01*
X121221920Y-93773465D01*
X121072107Y-93803265D01*
X121072099Y-93803267D01*
X120930970Y-93861724D01*
X120930961Y-93861729D01*
X120803953Y-93946594D01*
X120803949Y-93946597D01*
X120695937Y-94054609D01*
X120695934Y-94054613D01*
X120611069Y-94181621D01*
X120611064Y-94181631D01*
X120567603Y-94286555D01*
X120523762Y-94340959D01*
X120457467Y-94363023D01*
X120389768Y-94345743D01*
X120342158Y-94294606D01*
X120329042Y-94238990D01*
X120329963Y-93238036D01*
X123722804Y-93238036D01*
X123747802Y-93363703D01*
X123747804Y-93363709D01*
X123796838Y-93482089D01*
X123796843Y-93482098D01*
X123868028Y-93588633D01*
X123868031Y-93588637D01*
X123958632Y-93679238D01*
X123958636Y-93679241D01*
X124065171Y-93750426D01*
X124065177Y-93750429D01*
X124065178Y-93750430D01*
X124183561Y-93799466D01*
X124221186Y-93806950D01*
X124230595Y-93808822D01*
X124292506Y-93841206D01*
X124327080Y-93901922D01*
X124323341Y-93971692D01*
X124320965Y-93977891D01*
X124258373Y-94129002D01*
X124258370Y-94129012D01*
X124222805Y-94307808D01*
X124222805Y-94307811D01*
X124222805Y-94490119D01*
X124222805Y-94490121D01*
X124222804Y-94490121D01*
X124258370Y-94668917D01*
X124258373Y-94668927D01*
X124328136Y-94837352D01*
X124328138Y-94837356D01*
X124429418Y-94988932D01*
X124429424Y-94988940D01*
X124558329Y-95117845D01*
X124558337Y-95117851D01*
X124709913Y-95219131D01*
X124709917Y-95219133D01*
X124878342Y-95288896D01*
X124878347Y-95288898D01*
X124878351Y-95288898D01*
X124878352Y-95288899D01*
X125057148Y-95324465D01*
X125057151Y-95324465D01*
X125789461Y-95324465D01*
X125909750Y-95300537D01*
X125968263Y-95288898D01*
X126136694Y-95219132D01*
X126136696Y-95219131D01*
X126238164Y-95151332D01*
X126288277Y-95117848D01*
X126417188Y-94988937D01*
X126518472Y-94837354D01*
X126588238Y-94668923D01*
X126623805Y-94490119D01*
X126623805Y-94307811D01*
X126623805Y-94307808D01*
X126588239Y-94129012D01*
X126588238Y-94129011D01*
X126588238Y-94129007D01*
X126551123Y-94039403D01*
X126518473Y-93960577D01*
X126518471Y-93960573D01*
X126417191Y-93808997D01*
X126417185Y-93808989D01*
X126288280Y-93680084D01*
X126288272Y-93680078D01*
X126136696Y-93578798D01*
X126136692Y-93578796D01*
X125968267Y-93509033D01*
X125968257Y-93509030D01*
X125789461Y-93473465D01*
X125789459Y-93473465D01*
X125128069Y-93473465D01*
X125061030Y-93453780D01*
X125015275Y-93400976D01*
X125005331Y-93331818D01*
X125006452Y-93325273D01*
X125023805Y-93238036D01*
X125023805Y-93109893D01*
X124998807Y-92984226D01*
X124998806Y-92984225D01*
X124998806Y-92984221D01*
X124949770Y-92865838D01*
X124949769Y-92865837D01*
X124949766Y-92865831D01*
X124878581Y-92759296D01*
X124878578Y-92759292D01*
X124787977Y-92668691D01*
X124787973Y-92668688D01*
X124681438Y-92597503D01*
X124681429Y-92597498D01*
X124563049Y-92548464D01*
X124563043Y-92548462D01*
X124437376Y-92523465D01*
X124437374Y-92523465D01*
X124309236Y-92523465D01*
X124309234Y-92523465D01*
X124183566Y-92548462D01*
X124183560Y-92548464D01*
X124065180Y-92597498D01*
X124065171Y-92597503D01*
X123958636Y-92668688D01*
X123958632Y-92668691D01*
X123868031Y-92759292D01*
X123868028Y-92759296D01*
X123796843Y-92865831D01*
X123796838Y-92865840D01*
X123747804Y-92984220D01*
X123747802Y-92984226D01*
X123722805Y-93109893D01*
X123722805Y-93109896D01*
X123722805Y-93238034D01*
X123722805Y-93238036D01*
X123722804Y-93238036D01*
X120329963Y-93238036D01*
X120335585Y-87124506D01*
X120355331Y-87057489D01*
X120408177Y-87011782D01*
X120477345Y-87001902D01*
X120540874Y-87030986D01*
X120574146Y-87077171D01*
X120611064Y-87166298D01*
X120611069Y-87166308D01*
X120695934Y-87293316D01*
X120695937Y-87293320D01*
X120803949Y-87401332D01*
X120803953Y-87401335D01*
X120930961Y-87486200D01*
X120930967Y-87486203D01*
X120930968Y-87486204D01*
X121072100Y-87544663D01*
X121221920Y-87574464D01*
X121221924Y-87574465D01*
X121221925Y-87574465D01*
X122024686Y-87574465D01*
X122024687Y-87574464D01*
X122174510Y-87544663D01*
X122315642Y-87486204D01*
X122442657Y-87401335D01*
X122550675Y-87293317D01*
X122635544Y-87166302D01*
X122694003Y-87025170D01*
X122723805Y-86875345D01*
X122723805Y-86722585D01*
X122694003Y-86572760D01*
X122635544Y-86431628D01*
X122635543Y-86431627D01*
X122635540Y-86431621D01*
X122550675Y-86304613D01*
X122550672Y-86304609D01*
X122442660Y-86196597D01*
X122442656Y-86196594D01*
X122315648Y-86111729D01*
X122315639Y-86111724D01*
X122174510Y-86053267D01*
X122174502Y-86053265D01*
X122024689Y-86023465D01*
X122024685Y-86023465D01*
X121221925Y-86023465D01*
X121221920Y-86023465D01*
X121072107Y-86053265D01*
X121072099Y-86053267D01*
X120930970Y-86111724D01*
X120930961Y-86111729D01*
X120803953Y-86196594D01*
X120803949Y-86196597D01*
X120695937Y-86304609D01*
X120695934Y-86304613D01*
X120611069Y-86431621D01*
X120611064Y-86431631D01*
X120574747Y-86519308D01*
X120530905Y-86573712D01*
X120464611Y-86595776D01*
X120396912Y-86578496D01*
X120349302Y-86527359D01*
X120336186Y-86471741D01*
X120336409Y-86230084D01*
X120345893Y-75917959D01*
X120345954Y-75917732D01*
X120345954Y-75855471D01*
X120345958Y-75855457D01*
X120346180Y-75848104D01*
X120351458Y-75760867D01*
X121317805Y-75760867D01*
X121317805Y-75997062D01*
X121354751Y-76230333D01*
X121427738Y-76454961D01*
X121534962Y-76665398D01*
X121673788Y-76856475D01*
X121840795Y-77023482D01*
X122031872Y-77162308D01*
X122131296Y-77212967D01*
X122242308Y-77269531D01*
X122242310Y-77269531D01*
X122242313Y-77269533D01*
X122362717Y-77308654D01*
X122466936Y-77342518D01*
X122700208Y-77379465D01*
X122700213Y-77379465D01*
X122936402Y-77379465D01*
X123169673Y-77342518D01*
X123394297Y-77269533D01*
X123604738Y-77162308D01*
X123795815Y-77023482D01*
X123962822Y-76856475D01*
X124101648Y-76665398D01*
X124208873Y-76454957D01*
X124281858Y-76230333D01*
X124288978Y-76185377D01*
X124318805Y-75997062D01*
X124318805Y-75760867D01*
X124281858Y-75527596D01*
X124208871Y-75302968D01*
X124101647Y-75092531D01*
X123962822Y-74901455D01*
X123795815Y-74734448D01*
X123604738Y-74595622D01*
X123394301Y-74488398D01*
X123169673Y-74415411D01*
X122936402Y-74378465D01*
X122936397Y-74378465D01*
X122700213Y-74378465D01*
X122700208Y-74378465D01*
X122466936Y-74415411D01*
X122242308Y-74488398D01*
X122031871Y-74595622D01*
X121922855Y-74674827D01*
X121840795Y-74734448D01*
X121840793Y-74734450D01*
X121840792Y-74734450D01*
X121673790Y-74901452D01*
X121673790Y-74901453D01*
X121673788Y-74901455D01*
X121639954Y-74948023D01*
X121534962Y-75092531D01*
X121427738Y-75302968D01*
X121354751Y-75527596D01*
X121317805Y-75760867D01*
X120351458Y-75760867D01*
X120352205Y-75748513D01*
X120363530Y-75561316D01*
X120365335Y-75546452D01*
X120416451Y-75267530D01*
X120420030Y-75253012D01*
X120504396Y-74982275D01*
X120509691Y-74968312D01*
X120626087Y-74709693D01*
X120633020Y-74696482D01*
X120779736Y-74453785D01*
X120788223Y-74441489D01*
X120963112Y-74218260D01*
X120973025Y-74207070D01*
X121173548Y-74006545D01*
X121184748Y-73996625D01*
X121407954Y-73821753D01*
X121420270Y-73813251D01*
X121662941Y-73666548D01*
X121676187Y-73659596D01*
X121934767Y-73543215D01*
X121948756Y-73537910D01*
X122219483Y-73453545D01*
X122234008Y-73449964D01*
X122512927Y-73398847D01*
X122527787Y-73397043D01*
X122814578Y-73379691D01*
X122822067Y-73379465D01*
X133418305Y-73379465D01*
X133418305Y-75499804D01*
G37*
%TD.AperFunction*%
%TA.AperFunction,Conductor*%
G36*
X133418305Y-104867711D02*
G01*
X133379282Y-104809309D01*
X133232962Y-104662989D01*
X133128804Y-104593394D01*
X133060903Y-104548024D01*
X133060898Y-104548022D01*
X132869725Y-104468835D01*
X132869717Y-104468833D01*
X132818614Y-104458668D01*
X132756703Y-104426283D01*
X132722129Y-104365568D01*
X132718805Y-104337051D01*
X132718805Y-97354798D01*
X132738490Y-97287759D01*
X132755124Y-97267117D01*
X133418305Y-96603936D01*
X133418305Y-104867711D01*
G37*
%TD.AperFunction*%
%TD*%
%TA.AperFunction,Conductor*%
%TO.N,VBUS*%
G36*
X129443979Y-74683986D02*
G01*
X129452611Y-74686520D01*
X129464868Y-74694396D01*
X129479052Y-74697749D01*
X129493675Y-74712905D01*
X129511392Y-74724290D01*
X129517446Y-74737545D01*
X129527564Y-74748032D01*
X129531671Y-74768687D01*
X129540421Y-74787844D01*
X129538348Y-74802267D01*
X129541190Y-74816560D01*
X129533477Y-74836156D01*
X129530482Y-74857003D01*
X129520475Y-74869195D01*
X129515603Y-74881577D01*
X129490203Y-74906082D01*
X129486049Y-74909077D01*
X129460983Y-74923055D01*
X129400711Y-74948020D01*
X129400702Y-74948025D01*
X129228651Y-75062985D01*
X129228643Y-75062991D01*
X129082332Y-75209302D01*
X128967362Y-75381369D01*
X128888175Y-75572544D01*
X128888169Y-75572569D01*
X128847805Y-75775492D01*
X128847805Y-75775495D01*
X128847805Y-75982434D01*
X128847805Y-75982436D01*
X128847804Y-75982436D01*
X128888169Y-76185359D01*
X128888175Y-76185384D01*
X128967362Y-76376559D01*
X129082332Y-76548626D01*
X129228641Y-76694935D01*
X129228645Y-76694938D01*
X129228647Y-76694940D01*
X129228650Y-76694942D01*
X129228654Y-76694945D01*
X129228653Y-76694945D01*
X129228716Y-76694997D01*
X129228753Y-76695011D01*
X129400707Y-76809906D01*
X129475283Y-76840796D01*
X129505635Y-76858804D01*
X129517808Y-76868613D01*
X129557657Y-76926001D01*
X129561957Y-76938918D01*
X129568305Y-76978084D01*
X129568305Y-85778965D01*
X132676476Y-85778965D01*
X132711411Y-85783988D01*
X132726409Y-85788392D01*
X132785160Y-85826137D01*
X132785184Y-85826165D01*
X132785187Y-85826167D01*
X132785188Y-85826169D01*
X132786347Y-85827506D01*
X132813823Y-85882367D01*
X132815468Y-85889925D01*
X132818305Y-85916296D01*
X132818305Y-91458170D01*
X132813283Y-91493101D01*
X132809663Y-91505431D01*
X132771891Y-91564210D01*
X132708336Y-91593237D01*
X132690685Y-91594500D01*
X132412606Y-91594500D01*
X132378211Y-91597402D01*
X132378198Y-91597403D01*
X132373229Y-91598248D01*
X132352460Y-91600000D01*
X131159150Y-91600000D01*
X131138381Y-91598248D01*
X131133411Y-91597403D01*
X131133398Y-91597402D01*
X131099003Y-91594500D01*
X131098986Y-91594500D01*
X126449687Y-91594500D01*
X126416511Y-91584758D01*
X126382773Y-91574896D01*
X126382695Y-91574828D01*
X126382648Y-91574815D01*
X126356072Y-91551815D01*
X126355834Y-91551541D01*
X126328285Y-91496594D01*
X126327525Y-91493101D01*
X126326639Y-91489028D01*
X126323804Y-91462675D01*
X126323804Y-91174784D01*
X126317804Y-91129208D01*
X126317804Y-91129205D01*
X126287145Y-91063459D01*
X126285552Y-91059277D01*
X126285201Y-91054824D01*
X126278830Y-91033746D01*
X126275142Y-91009460D01*
X126278733Y-90956003D01*
X126278844Y-90955628D01*
X126285457Y-90938090D01*
X126317804Y-90868725D01*
X126323805Y-90823144D01*
X126323804Y-90524787D01*
X126317804Y-90479205D01*
X126289042Y-90417525D01*
X126289041Y-90417522D01*
X126289040Y-90417521D01*
X126278829Y-90383736D01*
X126275143Y-90359464D01*
X126278733Y-90306003D01*
X126278844Y-90305628D01*
X126284476Y-90290692D01*
X126284539Y-90290229D01*
X126284739Y-90289993D01*
X126285457Y-90288090D01*
X126317804Y-90218725D01*
X126323805Y-90173144D01*
X126323804Y-89874787D01*
X126317804Y-89829205D01*
X126271155Y-89729166D01*
X126193104Y-89651115D01*
X126093065Y-89604466D01*
X126093063Y-89604465D01*
X126047493Y-89598466D01*
X126047490Y-89598465D01*
X126047484Y-89598465D01*
X126047477Y-89598465D01*
X126046474Y-89598465D01*
X125210135Y-89598465D01*
X125175194Y-89593440D01*
X125160195Y-89589035D01*
X125145207Y-89579405D01*
X125128129Y-89574397D01*
X125101449Y-89551292D01*
X125100262Y-89549923D01*
X125072782Y-89495048D01*
X125071137Y-89487486D01*
X125068305Y-89461133D01*
X125068305Y-88279851D01*
X125073328Y-88244917D01*
X125081041Y-88218648D01*
X125097479Y-88187221D01*
X125100000Y-88180078D01*
X125100000Y-88016294D01*
X125105023Y-87981358D01*
X125109427Y-87966360D01*
X125147172Y-87907609D01*
X125147200Y-87907584D01*
X125147199Y-87907584D01*
X125148541Y-87906421D01*
X125203420Y-87878942D01*
X125210979Y-87877298D01*
X125237332Y-87874465D01*
X125789462Y-87874465D01*
X125813518Y-87869679D01*
X125909750Y-87850537D01*
X125968263Y-87838898D01*
X126136694Y-87769132D01*
X126136696Y-87769131D01*
X126287018Y-87668689D01*
X126288277Y-87667848D01*
X126417188Y-87538937D01*
X126518472Y-87387354D01*
X126588238Y-87218923D01*
X126623805Y-87040119D01*
X126623805Y-86857811D01*
X126623805Y-86857808D01*
X126623805Y-86857805D01*
X126588298Y-86679308D01*
X126588298Y-86679309D01*
X126588239Y-86679012D01*
X126588238Y-86679011D01*
X126587998Y-86677803D01*
X126585915Y-86673398D01*
X126518473Y-86510577D01*
X126518471Y-86510573D01*
X126417191Y-86358997D01*
X126417185Y-86358989D01*
X126417184Y-86358987D01*
X126288281Y-86230084D01*
X126136696Y-86128798D01*
X126136692Y-86128796D01*
X126099560Y-86113415D01*
X125968282Y-86059038D01*
X125968271Y-86059035D01*
X125968267Y-86059033D01*
X125968257Y-86059030D01*
X125968254Y-86059029D01*
X125968250Y-86059028D01*
X125789463Y-86023465D01*
X125789461Y-86023465D01*
X125789459Y-86023465D01*
X125241830Y-86023465D01*
X125241825Y-86023464D01*
X125241823Y-86023465D01*
X125206889Y-86018440D01*
X125191890Y-86014035D01*
X125133144Y-85976292D01*
X125133115Y-85976258D01*
X125133114Y-85976258D01*
X125133113Y-85976256D01*
X125131957Y-85974923D01*
X125104477Y-85920048D01*
X125102832Y-85912486D01*
X125100000Y-85886133D01*
X125100000Y-74820794D01*
X125105023Y-74785858D01*
X125109427Y-74770860D01*
X125147172Y-74712109D01*
X125147200Y-74712084D01*
X125147199Y-74712084D01*
X125148541Y-74710921D01*
X125203420Y-74683442D01*
X125210979Y-74681798D01*
X125237332Y-74678965D01*
X129409052Y-74678965D01*
X129443979Y-74683986D01*
G37*
%TD.AperFunction*%
%TD*%
%TA.AperFunction,Conductor*%
%TO.N,GND*%
G36*
X180321777Y-73379660D02*
G01*
X180603595Y-73395487D01*
X180617396Y-73397042D01*
X180892240Y-73443739D01*
X180905779Y-73446829D01*
X181173669Y-73524007D01*
X181186788Y-73528597D01*
X181444342Y-73635280D01*
X181456856Y-73641306D01*
X181688118Y-73769120D01*
X181700850Y-73776157D01*
X181712625Y-73783556D01*
X181939973Y-73944869D01*
X181950844Y-73953538D01*
X182158707Y-74139295D01*
X182168540Y-74149128D01*
X182354297Y-74356991D01*
X182362966Y-74367862D01*
X182524279Y-74595210D01*
X182531678Y-74606985D01*
X182666525Y-74850972D01*
X182672558Y-74863500D01*
X182779237Y-75121046D01*
X182783830Y-75134171D01*
X182861003Y-75402045D01*
X182864097Y-75415602D01*
X182910792Y-75690431D01*
X182912349Y-75704249D01*
X182928176Y-75986058D01*
X182928371Y-75993011D01*
X182928371Y-86204979D01*
X182908686Y-86272018D01*
X182855882Y-86317773D01*
X182799145Y-86327231D01*
X182799145Y-86328465D01*
X181953552Y-86328465D01*
X181895075Y-86340096D01*
X181895074Y-86340097D01*
X181828752Y-86384412D01*
X181784437Y-86450734D01*
X181784436Y-86450735D01*
X181772805Y-86509212D01*
X181772805Y-87548717D01*
X181784436Y-87607194D01*
X181784437Y-87607195D01*
X181828752Y-87673517D01*
X181895074Y-87717832D01*
X181895075Y-87717833D01*
X181953552Y-87729464D01*
X181953555Y-87729465D01*
X182799145Y-87729465D01*
X182799145Y-87730862D01*
X182860857Y-87742563D01*
X182911570Y-87790625D01*
X182928371Y-87852950D01*
X182928371Y-93504979D01*
X182908686Y-93572018D01*
X182855882Y-93617773D01*
X182799145Y-93627231D01*
X182799145Y-93628465D01*
X181953552Y-93628465D01*
X181895075Y-93640096D01*
X181895074Y-93640097D01*
X181828752Y-93684412D01*
X181784437Y-93750734D01*
X181784436Y-93750735D01*
X181772805Y-93809212D01*
X181772805Y-94848717D01*
X181784436Y-94907194D01*
X181784437Y-94907195D01*
X181828752Y-94973517D01*
X181895074Y-95017832D01*
X181895075Y-95017833D01*
X181953552Y-95029464D01*
X181953555Y-95029465D01*
X182799145Y-95029465D01*
X182799145Y-95030862D01*
X182860857Y-95042563D01*
X182911570Y-95090625D01*
X182928371Y-95152950D01*
X182928371Y-105252513D01*
X182928370Y-105252517D01*
X182928370Y-105274358D01*
X182928370Y-105288962D01*
X182928370Y-105314933D01*
X182928175Y-105321883D01*
X182912355Y-105603692D01*
X182910798Y-105617511D01*
X182864107Y-105892338D01*
X182861013Y-105905895D01*
X182783845Y-106173763D01*
X182779253Y-106186888D01*
X182672572Y-106444447D01*
X182666538Y-106456976D01*
X182531696Y-106700958D01*
X182524298Y-106712733D01*
X182362984Y-106940086D01*
X182354314Y-106950958D01*
X182168558Y-107158819D01*
X182158725Y-107168652D01*
X181950864Y-107354408D01*
X181939992Y-107363078D01*
X181712639Y-107524392D01*
X181700864Y-107531790D01*
X181456882Y-107666632D01*
X181444353Y-107672666D01*
X181186794Y-107779347D01*
X181173669Y-107783939D01*
X180905801Y-107861107D01*
X180892244Y-107864201D01*
X180617417Y-107910892D01*
X180603598Y-107912449D01*
X180321854Y-107928265D01*
X180314777Y-107928460D01*
X133418305Y-107880382D01*
X133418305Y-106090217D01*
X133494246Y-105976563D01*
X133573435Y-105785385D01*
X133613805Y-105582430D01*
X133613805Y-105375500D01*
X133573435Y-105172545D01*
X133494246Y-104981367D01*
X133418305Y-104867712D01*
X133418305Y-96603936D01*
X134806457Y-95215784D01*
X134867780Y-95182299D01*
X134894138Y-95179465D01*
X136493472Y-95179465D01*
X136560511Y-95199150D01*
X136606266Y-95251954D01*
X136616210Y-95321112D01*
X136587185Y-95384668D01*
X136581153Y-95391146D01*
X134777846Y-97194452D01*
X134777840Y-97194460D01*
X134738287Y-97262969D01*
X134738284Y-97262974D01*
X134717805Y-97339404D01*
X134717805Y-104418736D01*
X134698120Y-104485775D01*
X134645316Y-104531530D01*
X134641260Y-104533296D01*
X134605710Y-104548022D01*
X134433647Y-104662989D01*
X134287329Y-104809307D01*
X134172363Y-104981368D01*
X134093175Y-105172544D01*
X134093173Y-105172552D01*
X134052805Y-105375495D01*
X134052805Y-105582434D01*
X134093173Y-105785377D01*
X134093175Y-105785385D01*
X134119478Y-105848887D01*
X134172364Y-105976563D01*
X134229846Y-106062591D01*
X134287329Y-106148622D01*
X134433647Y-106294940D01*
X134433650Y-106294942D01*
X134605707Y-106409906D01*
X134796885Y-106489095D01*
X134941357Y-106517832D01*
X134999835Y-106529464D01*
X134999839Y-106529465D01*
X134999840Y-106529465D01*
X135206771Y-106529465D01*
X135206772Y-106529464D01*
X135409725Y-106489095D01*
X135600903Y-106409906D01*
X135772960Y-106294942D01*
X135919282Y-106148620D01*
X136034246Y-105976563D01*
X136113435Y-105785385D01*
X136153805Y-105582430D01*
X136153805Y-105375500D01*
X136113435Y-105172545D01*
X136034246Y-104981367D01*
X135919282Y-104809310D01*
X135919280Y-104809307D01*
X135772962Y-104662989D01*
X135604960Y-104550735D01*
X135600903Y-104548024D01*
X135600898Y-104548022D01*
X135409725Y-104468835D01*
X135406807Y-104467950D01*
X135405465Y-104467070D01*
X135404097Y-104466504D01*
X135404204Y-104466244D01*
X135348369Y-104429651D01*
X135319914Y-104365838D01*
X135318805Y-104349290D01*
X135318805Y-97554798D01*
X135338490Y-97487759D01*
X135355124Y-97467117D01*
X137106457Y-95715784D01*
X137167780Y-95682299D01*
X137194138Y-95679465D01*
X138793472Y-95679465D01*
X138860511Y-95699150D01*
X138906266Y-95751954D01*
X138916210Y-95821112D01*
X138887185Y-95884668D01*
X138881153Y-95891146D01*
X137377846Y-97394452D01*
X137377840Y-97394460D01*
X137338287Y-97462969D01*
X137338284Y-97462974D01*
X137317805Y-97539404D01*
X137317805Y-104393884D01*
X137298120Y-104460923D01*
X137245316Y-104506678D01*
X137241258Y-104508445D01*
X137145708Y-104548022D01*
X136973647Y-104662989D01*
X136827329Y-104809307D01*
X136712363Y-104981368D01*
X136633175Y-105172544D01*
X136633173Y-105172552D01*
X136592805Y-105375495D01*
X136592805Y-105582434D01*
X136633173Y-105785377D01*
X136633175Y-105785385D01*
X136659478Y-105848887D01*
X136712364Y-105976563D01*
X136769846Y-106062591D01*
X136827329Y-106148622D01*
X136973647Y-106294940D01*
X136973650Y-106294942D01*
X137145707Y-106409906D01*
X137336885Y-106489095D01*
X137481357Y-106517832D01*
X137539835Y-106529464D01*
X137539839Y-106529465D01*
X137539840Y-106529465D01*
X137746771Y-106529465D01*
X137746772Y-106529464D01*
X137949725Y-106489095D01*
X138140903Y-106409906D01*
X138312960Y-106294942D01*
X138459282Y-106148620D01*
X138574246Y-105976563D01*
X138653435Y-105785385D01*
X138693805Y-105582430D01*
X138693805Y-105375500D01*
X138653435Y-105172545D01*
X138574246Y-104981367D01*
X138459282Y-104809310D01*
X138459280Y-104809307D01*
X138312962Y-104662989D01*
X138140900Y-104548022D01*
X137995352Y-104487734D01*
X137940949Y-104443893D01*
X137918884Y-104377598D01*
X137918805Y-104373173D01*
X137918805Y-97754798D01*
X137938490Y-97687759D01*
X137955124Y-97667117D01*
X139506457Y-96115784D01*
X139567780Y-96082299D01*
X139594138Y-96079465D01*
X140093472Y-96079465D01*
X140160511Y-96099150D01*
X140206266Y-96151954D01*
X140216210Y-96221112D01*
X140187185Y-96284668D01*
X140181153Y-96291146D01*
X139877846Y-96594452D01*
X139877840Y-96594460D01*
X139838287Y-96662969D01*
X139838284Y-96662974D01*
X139817805Y-96739404D01*
X139817805Y-104410452D01*
X139798120Y-104477491D01*
X139745316Y-104523246D01*
X139741259Y-104525013D01*
X139685707Y-104548024D01*
X139685700Y-104548027D01*
X139513649Y-104662987D01*
X139367329Y-104809307D01*
X139252363Y-104981368D01*
X139173175Y-105172544D01*
X139173173Y-105172552D01*
X139132805Y-105375495D01*
X139132805Y-105582434D01*
X139173173Y-105785377D01*
X139173175Y-105785385D01*
X139199478Y-105848887D01*
X139252364Y-105976563D01*
X139309846Y-106062591D01*
X139367329Y-106148622D01*
X139513647Y-106294940D01*
X139513650Y-106294942D01*
X139685707Y-106409906D01*
X139876885Y-106489095D01*
X140021357Y-106517832D01*
X140079835Y-106529464D01*
X140079839Y-106529465D01*
X140079840Y-106529465D01*
X140286771Y-106529465D01*
X140286772Y-106529464D01*
X140489725Y-106489095D01*
X140680903Y-106409906D01*
X140852960Y-106294942D01*
X140999282Y-106148620D01*
X141114246Y-105976563D01*
X141193435Y-105785385D01*
X141233805Y-105582430D01*
X141233805Y-105375500D01*
X141193435Y-105172545D01*
X141114246Y-104981367D01*
X140999282Y-104809310D01*
X140999280Y-104809307D01*
X140852962Y-104662989D01*
X140680900Y-104548022D01*
X140495352Y-104471165D01*
X140440948Y-104427324D01*
X140418884Y-104361029D01*
X140418805Y-104356604D01*
X140418805Y-96954798D01*
X140438490Y-96887759D01*
X140455124Y-96867117D01*
X140806457Y-96515784D01*
X140867780Y-96482299D01*
X140894138Y-96479465D01*
X142004312Y-96479465D01*
X142004314Y-96479465D01*
X142080741Y-96458986D01*
X142131805Y-96429503D01*
X142199705Y-96413031D01*
X142265732Y-96435883D01*
X142308922Y-96490805D01*
X142317805Y-96536891D01*
X142317805Y-104427021D01*
X142298120Y-104494060D01*
X142245316Y-104539815D01*
X142241259Y-104541581D01*
X142225715Y-104548019D01*
X142225700Y-104548027D01*
X142053649Y-104662987D01*
X141907329Y-104809307D01*
X141792363Y-104981368D01*
X141713175Y-105172544D01*
X141713173Y-105172552D01*
X141672805Y-105375495D01*
X141672805Y-105582434D01*
X141713173Y-105785377D01*
X141713175Y-105785385D01*
X141739478Y-105848887D01*
X141792364Y-105976563D01*
X141849846Y-106062591D01*
X141907329Y-106148622D01*
X142053647Y-106294940D01*
X142053650Y-106294942D01*
X142225707Y-106409906D01*
X142416885Y-106489095D01*
X142561357Y-106517832D01*
X142619835Y-106529464D01*
X142619839Y-106529465D01*
X142619840Y-106529465D01*
X142826771Y-106529465D01*
X142826772Y-106529464D01*
X143029725Y-106489095D01*
X143220903Y-106409906D01*
X143392960Y-106294942D01*
X143539282Y-106148620D01*
X143654246Y-105976563D01*
X143733435Y-105785385D01*
X143773805Y-105582430D01*
X143773805Y-105375500D01*
X143733435Y-105172545D01*
X143654246Y-104981367D01*
X143539282Y-104809310D01*
X143539280Y-104809307D01*
X143392962Y-104662989D01*
X143224960Y-104550735D01*
X143220903Y-104548024D01*
X143220898Y-104548022D01*
X143029725Y-104468835D01*
X143029722Y-104468834D01*
X143018611Y-104466624D01*
X142956701Y-104434237D01*
X142922128Y-104373521D01*
X142918805Y-104345007D01*
X142918805Y-96408351D01*
X142938490Y-96341312D01*
X142955124Y-96320670D01*
X143356124Y-95919670D01*
X143417447Y-95886185D01*
X143487139Y-95891169D01*
X143543072Y-95933041D01*
X143567489Y-95998505D01*
X143567805Y-96007351D01*
X143567805Y-102468527D01*
X143581457Y-102519478D01*
X143588284Y-102544955D01*
X143588287Y-102544960D01*
X143627840Y-102613469D01*
X143627846Y-102613477D01*
X144926486Y-103912117D01*
X144959971Y-103973440D01*
X144962805Y-103999798D01*
X144962805Y-104383528D01*
X144943120Y-104450567D01*
X144890316Y-104496322D01*
X144886258Y-104498089D01*
X144765709Y-104548022D01*
X144593647Y-104662989D01*
X144447329Y-104809307D01*
X144332363Y-104981368D01*
X144253175Y-105172544D01*
X144253173Y-105172552D01*
X144212805Y-105375495D01*
X144212805Y-105582434D01*
X144253173Y-105785377D01*
X144253175Y-105785385D01*
X144279478Y-105848887D01*
X144332364Y-105976563D01*
X144389846Y-106062591D01*
X144447329Y-106148622D01*
X144593647Y-106294940D01*
X144593650Y-106294942D01*
X144765707Y-106409906D01*
X144956885Y-106489095D01*
X145101357Y-106517832D01*
X145159835Y-106529464D01*
X145159839Y-106529465D01*
X145159840Y-106529465D01*
X145366771Y-106529465D01*
X145366772Y-106529464D01*
X145569725Y-106489095D01*
X145760903Y-106409906D01*
X145932960Y-106294942D01*
X146079282Y-106148620D01*
X146194246Y-105976563D01*
X146273435Y-105785385D01*
X146313805Y-105582430D01*
X146313805Y-105375500D01*
X146273435Y-105172545D01*
X146194246Y-104981367D01*
X146079282Y-104809310D01*
X146079280Y-104809307D01*
X145932962Y-104662989D01*
X145760900Y-104548022D01*
X145640352Y-104498089D01*
X145585948Y-104454247D01*
X145563884Y-104387953D01*
X145563805Y-104383528D01*
X145563805Y-103784404D01*
X145554045Y-103747979D01*
X145543326Y-103707976D01*
X145526857Y-103679451D01*
X145503769Y-103639460D01*
X145503763Y-103639452D01*
X144205124Y-102340813D01*
X144171639Y-102279490D01*
X144168805Y-102253132D01*
X144168805Y-100953798D01*
X144188490Y-100886759D01*
X144241294Y-100841004D01*
X144310452Y-100831060D01*
X144374008Y-100860085D01*
X144380486Y-100866117D01*
X147466486Y-103952117D01*
X147499971Y-104013440D01*
X147502805Y-104039798D01*
X147502805Y-104383528D01*
X147483120Y-104450567D01*
X147430316Y-104496322D01*
X147426258Y-104498089D01*
X147305709Y-104548022D01*
X147133647Y-104662989D01*
X146987329Y-104809307D01*
X146872363Y-104981368D01*
X146793175Y-105172544D01*
X146793173Y-105172552D01*
X146752805Y-105375495D01*
X146752805Y-105582434D01*
X146793173Y-105785377D01*
X146793175Y-105785385D01*
X146819478Y-105848887D01*
X146872364Y-105976563D01*
X146929846Y-106062591D01*
X146987329Y-106148622D01*
X147133647Y-106294940D01*
X147133650Y-106294942D01*
X147305707Y-106409906D01*
X147496885Y-106489095D01*
X147641357Y-106517832D01*
X147699835Y-106529464D01*
X147699839Y-106529465D01*
X147699840Y-106529465D01*
X147906771Y-106529465D01*
X147906772Y-106529464D01*
X148109725Y-106489095D01*
X148300903Y-106409906D01*
X148472960Y-106294942D01*
X148619282Y-106148620D01*
X148734246Y-105976563D01*
X148813435Y-105785385D01*
X148853805Y-105582430D01*
X148853805Y-105375500D01*
X148813435Y-105172545D01*
X148734246Y-104981367D01*
X148619282Y-104809310D01*
X148619280Y-104809307D01*
X148472962Y-104662989D01*
X148300900Y-104548022D01*
X148180352Y-104498089D01*
X148125948Y-104454247D01*
X148103884Y-104387953D01*
X148103805Y-104383528D01*
X148103805Y-103824405D01*
X148103804Y-103824401D01*
X148093087Y-103784401D01*
X148083328Y-103747979D01*
X148083327Y-103747978D01*
X148083327Y-103747977D01*
X148043765Y-103679454D01*
X144855124Y-100490813D01*
X144821639Y-100429490D01*
X144818805Y-100403132D01*
X144818805Y-95922564D01*
X144838490Y-95855525D01*
X144855120Y-95834887D01*
X145209789Y-95480217D01*
X145271110Y-95446734D01*
X145340801Y-95451718D01*
X145385149Y-95480219D01*
X145529180Y-95624250D01*
X145529187Y-95624256D01*
X145587416Y-95663163D01*
X145587418Y-95663163D01*
X145587420Y-95663165D01*
X145587422Y-95663165D01*
X145587424Y-95663166D01*
X145679305Y-95681443D01*
X145679307Y-95681443D01*
X145679309Y-95681443D01*
X145771190Y-95663166D01*
X145771190Y-95663165D01*
X145771195Y-95663165D01*
X145829429Y-95624255D01*
X146786637Y-94667047D01*
X146794582Y-94662708D01*
X146800008Y-94655461D01*
X146824767Y-94646226D01*
X146847960Y-94633562D01*
X146856989Y-94634207D01*
X146865472Y-94631044D01*
X146891292Y-94636660D01*
X146917651Y-94638546D01*
X146926704Y-94644364D01*
X146933745Y-94645896D01*
X146961999Y-94667047D01*
X147012203Y-94717251D01*
X147045688Y-94778574D01*
X147040704Y-94848266D01*
X147012203Y-94892613D01*
X146644002Y-95260813D01*
X146618327Y-95280516D01*
X146598997Y-95291677D01*
X146533746Y-95356928D01*
X146522585Y-95376258D01*
X146502882Y-95401933D01*
X146054997Y-95849819D01*
X146054991Y-95849827D01*
X146016086Y-95908052D01*
X146016083Y-95908060D01*
X145997807Y-95999941D01*
X145997807Y-95999946D01*
X146016083Y-96091826D01*
X146016086Y-96091834D01*
X146054993Y-96150063D01*
X146054999Y-96150070D01*
X146236286Y-96331357D01*
X146236290Y-96331360D01*
X146236292Y-96331362D01*
X146236295Y-96331364D01*
X146236607Y-96331573D01*
X146236733Y-96331724D01*
X146240996Y-96335222D01*
X146240332Y-96336030D01*
X146281411Y-96385186D01*
X146290117Y-96454511D01*
X146259960Y-96517538D01*
X146200517Y-96554256D01*
X146167714Y-96558673D01*
X146118889Y-96558673D01*
X146006056Y-96599740D01*
X146006047Y-96599745D01*
X145966381Y-96630182D01*
X145966372Y-96630190D01*
X145669533Y-96927030D01*
X145669525Y-96927039D01*
X145639084Y-96966708D01*
X145639080Y-96966715D01*
X145607183Y-97054355D01*
X145598013Y-97079550D01*
X145598013Y-97199628D01*
X145639082Y-97312466D01*
X145669529Y-97352145D01*
X145669533Y-97352149D01*
X145669534Y-97352150D01*
X145770897Y-97453513D01*
X145804382Y-97514836D01*
X145807216Y-97541194D01*
X145807216Y-97943083D01*
X145802991Y-97975174D01*
X145767805Y-98106490D01*
X145767805Y-98251440D01*
X145803906Y-98386170D01*
X145805322Y-98391453D01*
X145877793Y-98516976D01*
X145877795Y-98516978D01*
X145877796Y-98516980D01*
X145980290Y-98619474D01*
X145980291Y-98619475D01*
X145980293Y-98619476D01*
X146105816Y-98691947D01*
X146105817Y-98691947D01*
X146105820Y-98691949D01*
X146245830Y-98729465D01*
X146245833Y-98729465D01*
X146390777Y-98729465D01*
X146390780Y-98729465D01*
X146530790Y-98691949D01*
X146656320Y-98619474D01*
X146758814Y-98516980D01*
X146831289Y-98391450D01*
X146868805Y-98251440D01*
X146868805Y-98106490D01*
X146831289Y-97966480D01*
X146758814Y-97840950D01*
X146656320Y-97738456D01*
X146570215Y-97688743D01*
X146561931Y-97680055D01*
X146551013Y-97675069D01*
X146538267Y-97655236D01*
X146522000Y-97638175D01*
X146518784Y-97624919D01*
X146513239Y-97616291D01*
X146508216Y-97581356D01*
X146508216Y-97498766D01*
X146527901Y-97431727D01*
X146544530Y-97411089D01*
X146645902Y-97309718D01*
X146676350Y-97270040D01*
X146717419Y-97157202D01*
X146717419Y-97105717D01*
X146737104Y-97038678D01*
X146753738Y-97018036D01*
X146911643Y-96860131D01*
X147094683Y-96677091D01*
X147140827Y-96597167D01*
X147140828Y-96597164D01*
X147156545Y-96538506D01*
X147156545Y-96538505D01*
X147164713Y-96508023D01*
X147164713Y-95754546D01*
X147173357Y-95725105D01*
X147179881Y-95695119D01*
X147183635Y-95690103D01*
X147184398Y-95687507D01*
X147201032Y-95666865D01*
X147214010Y-95653887D01*
X147275333Y-95620402D01*
X147345025Y-95625386D01*
X147400958Y-95667258D01*
X147425375Y-95732722D01*
X147425691Y-95741568D01*
X147425691Y-98796717D01*
X147406006Y-98863756D01*
X147389372Y-98884398D01*
X146427846Y-99845923D01*
X146427840Y-99845931D01*
X146388287Y-99914440D01*
X146388284Y-99914445D01*
X146374631Y-99965398D01*
X146367805Y-99990874D01*
X146367805Y-101468527D01*
X146381457Y-101519478D01*
X146388284Y-101544955D01*
X146388287Y-101544960D01*
X146427840Y-101613469D01*
X146427846Y-101613477D01*
X149493962Y-104679593D01*
X149527447Y-104740916D01*
X149522463Y-104810608D01*
X149509384Y-104836164D01*
X149412363Y-104981368D01*
X149333175Y-105172544D01*
X149333173Y-105172552D01*
X149292805Y-105375495D01*
X149292805Y-105582434D01*
X149333173Y-105785377D01*
X149333175Y-105785385D01*
X149359478Y-105848887D01*
X149412364Y-105976563D01*
X149469846Y-106062591D01*
X149527329Y-106148622D01*
X149673647Y-106294940D01*
X149673650Y-106294942D01*
X149845707Y-106409906D01*
X150036885Y-106489095D01*
X150181357Y-106517832D01*
X150239835Y-106529464D01*
X150239839Y-106529465D01*
X150239840Y-106529465D01*
X150446771Y-106529465D01*
X150446772Y-106529464D01*
X150649725Y-106489095D01*
X150840903Y-106409906D01*
X151012960Y-106294942D01*
X151159282Y-106148620D01*
X151274246Y-105976563D01*
X151353435Y-105785385D01*
X151393805Y-105582430D01*
X151393805Y-105375500D01*
X151353435Y-105172545D01*
X151274246Y-104981367D01*
X151159282Y-104809310D01*
X151159280Y-104809307D01*
X151012962Y-104662989D01*
X150844960Y-104550735D01*
X150840903Y-104548024D01*
X150840898Y-104548022D01*
X150649725Y-104468835D01*
X150649717Y-104468833D01*
X150446774Y-104428465D01*
X150446770Y-104428465D01*
X150239840Y-104428465D01*
X150213496Y-104433705D01*
X150182179Y-104439934D01*
X150112587Y-104433705D01*
X150070308Y-104405997D01*
X147005124Y-101340813D01*
X146971639Y-101279490D01*
X146968805Y-101253132D01*
X146968805Y-100206269D01*
X146988490Y-100139230D01*
X147005124Y-100118588D01*
X147374017Y-99749695D01*
X149467805Y-99749695D01*
X149467805Y-100808234D01*
X149470658Y-100838664D01*
X149470658Y-100838666D01*
X149510946Y-100953798D01*
X149515512Y-100966847D01*
X149596155Y-101076115D01*
X149705423Y-101156758D01*
X149748150Y-101171709D01*
X149833604Y-101201611D01*
X149864035Y-101204465D01*
X149864039Y-101204465D01*
X150472575Y-101204465D01*
X150503004Y-101201611D01*
X150503006Y-101201611D01*
X150567095Y-101179184D01*
X150631187Y-101156758D01*
X150740455Y-101076115D01*
X150821098Y-100966847D01*
X150857632Y-100862435D01*
X150862031Y-100849867D01*
X150902752Y-100793091D01*
X150967705Y-100767344D01*
X151036267Y-100780800D01*
X151041071Y-100783435D01*
X151055812Y-100791946D01*
X151055815Y-100791947D01*
X151055817Y-100791947D01*
X151055820Y-100791949D01*
X151195830Y-100829465D01*
X151195833Y-100829465D01*
X151340777Y-100829465D01*
X151340780Y-100829465D01*
X151480790Y-100791949D01*
X151606320Y-100719474D01*
X151708814Y-100616980D01*
X151781289Y-100491450D01*
X151818805Y-100351440D01*
X151818805Y-100206490D01*
X151781289Y-100066480D01*
X151737638Y-99990875D01*
X151708816Y-99940953D01*
X151708811Y-99940947D01*
X151606322Y-99838458D01*
X151606316Y-99838453D01*
X151480793Y-99765982D01*
X151480794Y-99765982D01*
X151469311Y-99762905D01*
X151340780Y-99728465D01*
X151195830Y-99728465D01*
X151055820Y-99765981D01*
X151055819Y-99765981D01*
X151055817Y-99765982D01*
X151041068Y-99774497D01*
X150973167Y-99790966D01*
X150907141Y-99768112D01*
X150863953Y-99713189D01*
X150862031Y-99708062D01*
X150821098Y-99591084D01*
X150821097Y-99591082D01*
X150740455Y-99481815D01*
X150631187Y-99401172D01*
X150631185Y-99401171D01*
X150503005Y-99356318D01*
X150472575Y-99353465D01*
X150472571Y-99353465D01*
X149864039Y-99353465D01*
X149864035Y-99353465D01*
X149833605Y-99356318D01*
X149833603Y-99356318D01*
X149705424Y-99401171D01*
X149705422Y-99401172D01*
X149596155Y-99481815D01*
X149515512Y-99591082D01*
X149515511Y-99591084D01*
X149470658Y-99719263D01*
X149470658Y-99719265D01*
X149467805Y-99749695D01*
X147374017Y-99749695D01*
X147464593Y-99659119D01*
X147641897Y-99481815D01*
X147966651Y-99157061D01*
X148006213Y-99088538D01*
X148026691Y-99012112D01*
X148026691Y-98932988D01*
X148026691Y-95557340D01*
X148046376Y-95490301D01*
X148099180Y-95444546D01*
X148168338Y-95434602D01*
X148231894Y-95463627D01*
X148238372Y-95469659D01*
X149100069Y-96331357D01*
X149100076Y-96331363D01*
X149158307Y-96370271D01*
X149158309Y-96370272D01*
X149167909Y-96372181D01*
X149229820Y-96404565D01*
X149231400Y-96406118D01*
X150488758Y-97663476D01*
X150544707Y-97719425D01*
X150544709Y-97719426D01*
X150544713Y-97719429D01*
X150577673Y-97738458D01*
X150613229Y-97758986D01*
X150689656Y-97779465D01*
X150768780Y-97779465D01*
X153742472Y-97779465D01*
X153809511Y-97799150D01*
X153830153Y-97815784D01*
X155081486Y-99067117D01*
X155114971Y-99128440D01*
X155117805Y-99154798D01*
X155117805Y-104385599D01*
X155098120Y-104452638D01*
X155045316Y-104498393D01*
X155041259Y-104500160D01*
X154925707Y-104548023D01*
X154753647Y-104662989D01*
X154607329Y-104809307D01*
X154492363Y-104981368D01*
X154413175Y-105172544D01*
X154413173Y-105172552D01*
X154372805Y-105375495D01*
X154372805Y-105582434D01*
X154413173Y-105785377D01*
X154413175Y-105785385D01*
X154439478Y-105848887D01*
X154492364Y-105976563D01*
X154549846Y-106062591D01*
X154607329Y-106148622D01*
X154753647Y-106294940D01*
X154753650Y-106294942D01*
X154925707Y-106409906D01*
X155116885Y-106489095D01*
X155261357Y-106517832D01*
X155319835Y-106529464D01*
X155319839Y-106529465D01*
X155319840Y-106529465D01*
X155526771Y-106529465D01*
X155526772Y-106529464D01*
X155729725Y-106489095D01*
X155920903Y-106409906D01*
X156092960Y-106294942D01*
X156239282Y-106148620D01*
X156354246Y-105976563D01*
X156433435Y-105785385D01*
X156473805Y-105582430D01*
X156473805Y-105375500D01*
X156433435Y-105172545D01*
X156354246Y-104981367D01*
X156239282Y-104809310D01*
X156239280Y-104809307D01*
X156092962Y-104662989D01*
X155920900Y-104548022D01*
X155795352Y-104496018D01*
X155740948Y-104452176D01*
X155718884Y-104385882D01*
X155718805Y-104381457D01*
X155718805Y-98939404D01*
X155704066Y-98884398D01*
X155698326Y-98862976D01*
X155660072Y-98796717D01*
X155658769Y-98794460D01*
X155658763Y-98794452D01*
X154255457Y-97391146D01*
X154221972Y-97329823D01*
X154226956Y-97260131D01*
X154268828Y-97204198D01*
X154334292Y-97179781D01*
X154343138Y-97179465D01*
X155942472Y-97179465D01*
X156009511Y-97199150D01*
X156030153Y-97215784D01*
X157681486Y-98867117D01*
X157714971Y-98928440D01*
X157717805Y-98954798D01*
X157717805Y-104360747D01*
X157698120Y-104427786D01*
X157645316Y-104473541D01*
X157641258Y-104475308D01*
X157465708Y-104548022D01*
X157293647Y-104662989D01*
X157147329Y-104809307D01*
X157032363Y-104981368D01*
X156953175Y-105172544D01*
X156953173Y-105172552D01*
X156912805Y-105375495D01*
X156912805Y-105582434D01*
X156953173Y-105785377D01*
X156953175Y-105785385D01*
X156979478Y-105848887D01*
X157032364Y-105976563D01*
X157089846Y-106062591D01*
X157147329Y-106148622D01*
X157293647Y-106294940D01*
X157293650Y-106294942D01*
X157465707Y-106409906D01*
X157656885Y-106489095D01*
X157801357Y-106517832D01*
X157859835Y-106529464D01*
X157859839Y-106529465D01*
X157859840Y-106529465D01*
X158066771Y-106529465D01*
X158066772Y-106529464D01*
X158269725Y-106489095D01*
X158460903Y-106409906D01*
X158632960Y-106294942D01*
X158779282Y-106148620D01*
X158894246Y-105976563D01*
X158973435Y-105785385D01*
X159013805Y-105582430D01*
X159013805Y-105375500D01*
X158973435Y-105172545D01*
X158894246Y-104981367D01*
X158779282Y-104809310D01*
X158779280Y-104809307D01*
X158632960Y-104662987D01*
X158460909Y-104548027D01*
X158460903Y-104548024D01*
X158448163Y-104542747D01*
X158395350Y-104520870D01*
X158340948Y-104477029D01*
X158318884Y-104410735D01*
X158318805Y-104406310D01*
X158318805Y-98739403D01*
X158318565Y-98738509D01*
X158318551Y-98738456D01*
X158298328Y-98662979D01*
X158298327Y-98662978D01*
X158298327Y-98662977D01*
X158258765Y-98594454D01*
X156655457Y-96991146D01*
X156621972Y-96929823D01*
X156626956Y-96860131D01*
X156668828Y-96804198D01*
X156734292Y-96779781D01*
X156743138Y-96779465D01*
X158642472Y-96779465D01*
X158709511Y-96799150D01*
X158730153Y-96815784D01*
X160181486Y-98267117D01*
X160214971Y-98328440D01*
X160217805Y-98354798D01*
X160217805Y-104377315D01*
X160198120Y-104444354D01*
X160145316Y-104490109D01*
X160141258Y-104491876D01*
X160005709Y-104548022D01*
X159833647Y-104662989D01*
X159687329Y-104809307D01*
X159572363Y-104981368D01*
X159493175Y-105172544D01*
X159493173Y-105172552D01*
X159452805Y-105375495D01*
X159452805Y-105582434D01*
X159493173Y-105785377D01*
X159493175Y-105785385D01*
X159519478Y-105848887D01*
X159572364Y-105976563D01*
X159629846Y-106062591D01*
X159687329Y-106148622D01*
X159833647Y-106294940D01*
X159833650Y-106294942D01*
X160005707Y-106409906D01*
X160196885Y-106489095D01*
X160341357Y-106517832D01*
X160399835Y-106529464D01*
X160399839Y-106529465D01*
X160399840Y-106529465D01*
X160606771Y-106529465D01*
X160606772Y-106529464D01*
X160809725Y-106489095D01*
X161000903Y-106409906D01*
X161172960Y-106294942D01*
X161319282Y-106148620D01*
X161434246Y-105976563D01*
X161513435Y-105785385D01*
X161553805Y-105582430D01*
X161553805Y-105375500D01*
X161513435Y-105172545D01*
X161434246Y-104981367D01*
X161319282Y-104809310D01*
X161319280Y-104809307D01*
X161172962Y-104662989D01*
X161000902Y-104548023D01*
X160895351Y-104504302D01*
X160840948Y-104460460D01*
X160818884Y-104394166D01*
X160818805Y-104389741D01*
X160818805Y-98139404D01*
X160809986Y-98106492D01*
X160798326Y-98062976D01*
X160776878Y-98025826D01*
X160758769Y-97994460D01*
X160758763Y-97994452D01*
X159355457Y-96591146D01*
X159321972Y-96529823D01*
X159326956Y-96460131D01*
X159368828Y-96404198D01*
X159434292Y-96379781D01*
X159443138Y-96379465D01*
X161742472Y-96379465D01*
X161809511Y-96399150D01*
X161830153Y-96415784D01*
X162781486Y-97367117D01*
X162814971Y-97428440D01*
X162817805Y-97454798D01*
X162817805Y-104352462D01*
X162798120Y-104419501D01*
X162745316Y-104465256D01*
X162741258Y-104467023D01*
X162545709Y-104548022D01*
X162373647Y-104662989D01*
X162227329Y-104809307D01*
X162112363Y-104981368D01*
X162033175Y-105172544D01*
X162033173Y-105172552D01*
X161992805Y-105375495D01*
X161992805Y-105582434D01*
X162033173Y-105785377D01*
X162033175Y-105785385D01*
X162059478Y-105848887D01*
X162112364Y-105976563D01*
X162169846Y-106062591D01*
X162227329Y-106148622D01*
X162373647Y-106294940D01*
X162373650Y-106294942D01*
X162545707Y-106409906D01*
X162736885Y-106489095D01*
X162881357Y-106517832D01*
X162939835Y-106529464D01*
X162939839Y-106529465D01*
X162939840Y-106529465D01*
X163146771Y-106529465D01*
X163146772Y-106529464D01*
X163349725Y-106489095D01*
X163540903Y-106409906D01*
X163712960Y-106294942D01*
X163859282Y-106148620D01*
X163974246Y-105976563D01*
X164053435Y-105785385D01*
X164093805Y-105582430D01*
X164093805Y-105375500D01*
X164053435Y-105172545D01*
X163974246Y-104981367D01*
X163859282Y-104809310D01*
X163859280Y-104809307D01*
X163712962Y-104662989D01*
X163632478Y-104609212D01*
X163540903Y-104548024D01*
X163540900Y-104548022D01*
X163540899Y-104548022D01*
X163495350Y-104529154D01*
X163440948Y-104485312D01*
X163418884Y-104419018D01*
X163418805Y-104414594D01*
X163418805Y-97239404D01*
X163412476Y-97215784D01*
X163398326Y-97162976D01*
X163365268Y-97105717D01*
X163358769Y-97094460D01*
X163358763Y-97094452D01*
X162455457Y-96191146D01*
X162421972Y-96129823D01*
X162426956Y-96060131D01*
X162468828Y-96004198D01*
X162534292Y-95979781D01*
X162543138Y-95979465D01*
X164142472Y-95979465D01*
X164209511Y-95999150D01*
X164230153Y-96015784D01*
X165381486Y-97167117D01*
X165414971Y-97228440D01*
X165417805Y-97254798D01*
X165417805Y-104339040D01*
X165398120Y-104406079D01*
X165345316Y-104451834D01*
X165317996Y-104460657D01*
X165276892Y-104468833D01*
X165276884Y-104468835D01*
X165085708Y-104548023D01*
X164913647Y-104662989D01*
X164767329Y-104809307D01*
X164652363Y-104981368D01*
X164573175Y-105172544D01*
X164573173Y-105172552D01*
X164532805Y-105375495D01*
X164532805Y-105582434D01*
X164573173Y-105785377D01*
X164573175Y-105785385D01*
X164599478Y-105848887D01*
X164652364Y-105976563D01*
X164709846Y-106062591D01*
X164767329Y-106148622D01*
X164913647Y-106294940D01*
X164913650Y-106294942D01*
X165085707Y-106409906D01*
X165276885Y-106489095D01*
X165421357Y-106517832D01*
X165479835Y-106529464D01*
X165479839Y-106529465D01*
X165479840Y-106529465D01*
X165686771Y-106529465D01*
X165686772Y-106529464D01*
X165889725Y-106489095D01*
X166080903Y-106409906D01*
X166252960Y-106294942D01*
X166399282Y-106148620D01*
X166514246Y-105976563D01*
X166593435Y-105785385D01*
X166633805Y-105582430D01*
X166633805Y-105375500D01*
X166593435Y-105172545D01*
X166514246Y-104981367D01*
X166399282Y-104809310D01*
X166399280Y-104809307D01*
X166252962Y-104662989D01*
X166084960Y-104550735D01*
X166080903Y-104548024D01*
X166080901Y-104548023D01*
X166075838Y-104544640D01*
X166077102Y-104542747D01*
X166034504Y-104500899D01*
X166018805Y-104440509D01*
X166018805Y-97039404D01*
X166018805Y-97039403D01*
X165998326Y-96962976D01*
X165998322Y-96962969D01*
X165958769Y-96894460D01*
X165958763Y-96894452D01*
X164855457Y-95791146D01*
X164844844Y-95771709D01*
X164830344Y-95754976D01*
X164828427Y-95741644D01*
X164821972Y-95729823D01*
X164823551Y-95707736D01*
X164820400Y-95685818D01*
X164825995Y-95673566D01*
X164826956Y-95660131D01*
X164840226Y-95642404D01*
X164849425Y-95622262D01*
X164860756Y-95614979D01*
X164868828Y-95604198D01*
X164889573Y-95596460D01*
X164908203Y-95584488D01*
X164930121Y-95581336D01*
X164934292Y-95579781D01*
X164943138Y-95579465D01*
X165111100Y-95579465D01*
X165178139Y-95599150D01*
X165198781Y-95615784D01*
X167881486Y-98298489D01*
X167914971Y-98359812D01*
X167917805Y-98386170D01*
X167917805Y-104346996D01*
X167898120Y-104414035D01*
X167845316Y-104459790D01*
X167818001Y-104468612D01*
X167816894Y-104468832D01*
X167816886Y-104468834D01*
X167625708Y-104548023D01*
X167453647Y-104662989D01*
X167307329Y-104809307D01*
X167192363Y-104981368D01*
X167113175Y-105172544D01*
X167113173Y-105172552D01*
X167072805Y-105375495D01*
X167072805Y-105582434D01*
X167113173Y-105785377D01*
X167113175Y-105785385D01*
X167139478Y-105848887D01*
X167192364Y-105976563D01*
X167249846Y-106062591D01*
X167307329Y-106148622D01*
X167453647Y-106294940D01*
X167453650Y-106294942D01*
X167625707Y-106409906D01*
X167816885Y-106489095D01*
X167961357Y-106517832D01*
X168019835Y-106529464D01*
X168019839Y-106529465D01*
X168019840Y-106529465D01*
X168226771Y-106529465D01*
X168226772Y-106529464D01*
X168429725Y-106489095D01*
X168620903Y-106409906D01*
X168792960Y-106294942D01*
X168939282Y-106148620D01*
X169054246Y-105976563D01*
X169133435Y-105785385D01*
X169173805Y-105582430D01*
X169173805Y-105375500D01*
X169133435Y-105172545D01*
X169054246Y-104981367D01*
X168939282Y-104809310D01*
X168939280Y-104809307D01*
X168792962Y-104662989D01*
X168620900Y-104548022D01*
X168595352Y-104537440D01*
X168540948Y-104493598D01*
X168518884Y-104427304D01*
X168518805Y-104422879D01*
X168518805Y-98170776D01*
X168510399Y-98139404D01*
X168498326Y-98094348D01*
X168498322Y-98094341D01*
X168458769Y-98025832D01*
X168458763Y-98025824D01*
X165824085Y-95391146D01*
X165790600Y-95329823D01*
X165795584Y-95260131D01*
X165837456Y-95204198D01*
X165902920Y-95179781D01*
X165911766Y-95179465D01*
X166742472Y-95179465D01*
X166809511Y-95199150D01*
X166830153Y-95215784D01*
X170281486Y-98667117D01*
X170314971Y-98728440D01*
X170317805Y-98754798D01*
X170317805Y-104402168D01*
X170298120Y-104469207D01*
X170245316Y-104514962D01*
X170241258Y-104516729D01*
X170165709Y-104548022D01*
X169993647Y-104662989D01*
X169847329Y-104809307D01*
X169732363Y-104981368D01*
X169653175Y-105172544D01*
X169653173Y-105172552D01*
X169612805Y-105375495D01*
X169612805Y-105582434D01*
X169653173Y-105785377D01*
X169653175Y-105785385D01*
X169679478Y-105848887D01*
X169732364Y-105976563D01*
X169789846Y-106062591D01*
X169847329Y-106148622D01*
X169993647Y-106294940D01*
X169993650Y-106294942D01*
X170165707Y-106409906D01*
X170356885Y-106489095D01*
X170501357Y-106517832D01*
X170559835Y-106529464D01*
X170559839Y-106529465D01*
X170559840Y-106529465D01*
X170766771Y-106529465D01*
X170766772Y-106529464D01*
X170969725Y-106489095D01*
X171160903Y-106409906D01*
X171332960Y-106294942D01*
X171479282Y-106148620D01*
X171594246Y-105976563D01*
X171673435Y-105785385D01*
X171713805Y-105582430D01*
X171713805Y-105375500D01*
X171673435Y-105172545D01*
X171594246Y-104981367D01*
X171479282Y-104809310D01*
X171479280Y-104809307D01*
X171332962Y-104662989D01*
X171160901Y-104548022D01*
X170995352Y-104479450D01*
X170940949Y-104435609D01*
X170918884Y-104369315D01*
X170918805Y-104364889D01*
X170918805Y-98539404D01*
X170912797Y-98516982D01*
X170898326Y-98462976D01*
X170884716Y-98439403D01*
X170858769Y-98394460D01*
X170858763Y-98394452D01*
X167455457Y-94991146D01*
X167421972Y-94929823D01*
X167426956Y-94860131D01*
X167468828Y-94804198D01*
X167534292Y-94779781D01*
X167543138Y-94779465D01*
X168942472Y-94779465D01*
X169009511Y-94799150D01*
X169030153Y-94815784D01*
X172781486Y-98567117D01*
X172814971Y-98628440D01*
X172817805Y-98654798D01*
X172817805Y-104418736D01*
X172798120Y-104485775D01*
X172745316Y-104531530D01*
X172741260Y-104533296D01*
X172705710Y-104548022D01*
X172533647Y-104662989D01*
X172387329Y-104809307D01*
X172272363Y-104981368D01*
X172193175Y-105172544D01*
X172193173Y-105172552D01*
X172152805Y-105375495D01*
X172152805Y-105582434D01*
X172193173Y-105785377D01*
X172193175Y-105785385D01*
X172219478Y-105848887D01*
X172272364Y-105976563D01*
X172329846Y-106062591D01*
X172387329Y-106148622D01*
X172533647Y-106294940D01*
X172533650Y-106294942D01*
X172705707Y-106409906D01*
X172896885Y-106489095D01*
X173041357Y-106517832D01*
X173099835Y-106529464D01*
X173099839Y-106529465D01*
X173099840Y-106529465D01*
X173306771Y-106529465D01*
X173306772Y-106529464D01*
X173509725Y-106489095D01*
X173700903Y-106409906D01*
X173872960Y-106294942D01*
X174019282Y-106148620D01*
X174134246Y-105976563D01*
X174213435Y-105785385D01*
X174253805Y-105582430D01*
X174253805Y-105375500D01*
X174213435Y-105172545D01*
X174134246Y-104981367D01*
X174019282Y-104809310D01*
X174019280Y-104809307D01*
X173872962Y-104662989D01*
X173704960Y-104550735D01*
X173700903Y-104548024D01*
X173700898Y-104548022D01*
X173509725Y-104468835D01*
X173506807Y-104467950D01*
X173505465Y-104467070D01*
X173504097Y-104466504D01*
X173504204Y-104466244D01*
X173448369Y-104429651D01*
X173419914Y-104365838D01*
X173418805Y-104349290D01*
X173418805Y-98439404D01*
X173406762Y-98394460D01*
X173398326Y-98362976D01*
X173396499Y-98359812D01*
X173358769Y-98294460D01*
X173358763Y-98294452D01*
X169655457Y-94591146D01*
X169621972Y-94529823D01*
X169626956Y-94460131D01*
X169668828Y-94404198D01*
X169734292Y-94379781D01*
X169743138Y-94379465D01*
X171142472Y-94379465D01*
X171209511Y-94399150D01*
X171230153Y-94415784D01*
X175281486Y-98467117D01*
X175314971Y-98528440D01*
X175317805Y-98554798D01*
X175317805Y-104304465D01*
X175298120Y-104371504D01*
X175245316Y-104417259D01*
X175193805Y-104428465D01*
X174873552Y-104428465D01*
X174815075Y-104440096D01*
X174815074Y-104440097D01*
X174748752Y-104484412D01*
X174704437Y-104550734D01*
X174704436Y-104550735D01*
X174692805Y-104609212D01*
X174692805Y-106348717D01*
X174704436Y-106407194D01*
X174704437Y-106407195D01*
X174748752Y-106473517D01*
X174815074Y-106517832D01*
X174815075Y-106517833D01*
X174873552Y-106529464D01*
X174873555Y-106529465D01*
X174873557Y-106529465D01*
X176613055Y-106529465D01*
X176613056Y-106529464D01*
X176627873Y-106526517D01*
X176671534Y-106517833D01*
X176671534Y-106517832D01*
X176671536Y-106517832D01*
X176737857Y-106473517D01*
X176782172Y-106407196D01*
X176782172Y-106407194D01*
X176782173Y-106407194D01*
X176793804Y-106348717D01*
X176793805Y-106348715D01*
X176793805Y-105360867D01*
X178817805Y-105360867D01*
X178817805Y-105597062D01*
X178854751Y-105830333D01*
X178927738Y-106054961D01*
X178991685Y-106180462D01*
X179034962Y-106265398D01*
X179173788Y-106456475D01*
X179340795Y-106623482D01*
X179531872Y-106762308D01*
X179631296Y-106812967D01*
X179742308Y-106869531D01*
X179742310Y-106869531D01*
X179742313Y-106869533D01*
X179862717Y-106908654D01*
X179966936Y-106942518D01*
X180200208Y-106979465D01*
X180200213Y-106979465D01*
X180436402Y-106979465D01*
X180669673Y-106942518D01*
X180677158Y-106940086D01*
X180894297Y-106869533D01*
X181104738Y-106762308D01*
X181295815Y-106623482D01*
X181462822Y-106456475D01*
X181601648Y-106265398D01*
X181708873Y-106054957D01*
X181781858Y-105830333D01*
X181788978Y-105785377D01*
X181818805Y-105597062D01*
X181818805Y-105360867D01*
X181781858Y-105127596D01*
X181708871Y-104902968D01*
X181601647Y-104692531D01*
X181592247Y-104679593D01*
X181462822Y-104501455D01*
X181295815Y-104334448D01*
X181104738Y-104195622D01*
X180894301Y-104088398D01*
X180669673Y-104015411D01*
X180436402Y-103978465D01*
X180436397Y-103978465D01*
X180200213Y-103978465D01*
X180200208Y-103978465D01*
X179966936Y-104015411D01*
X179742308Y-104088398D01*
X179531871Y-104195622D01*
X179422855Y-104274827D01*
X179340795Y-104334448D01*
X179340793Y-104334450D01*
X179340792Y-104334450D01*
X179173790Y-104501452D01*
X179173790Y-104501453D01*
X179173788Y-104501455D01*
X179137985Y-104550734D01*
X179034962Y-104692531D01*
X178927738Y-104902968D01*
X178854751Y-105127596D01*
X178817805Y-105360867D01*
X176793805Y-105360867D01*
X176793805Y-104609214D01*
X176793804Y-104609212D01*
X176782173Y-104550735D01*
X176782172Y-104550734D01*
X176737857Y-104484412D01*
X176671535Y-104440097D01*
X176671534Y-104440096D01*
X176613057Y-104428465D01*
X176613053Y-104428465D01*
X176042805Y-104428465D01*
X175975766Y-104408780D01*
X175930011Y-104355976D01*
X175918805Y-104304465D01*
X175918805Y-98339404D01*
X175918564Y-98338505D01*
X175898326Y-98262976D01*
X175884198Y-98238505D01*
X175858769Y-98194460D01*
X175858763Y-98194452D01*
X171502817Y-93838506D01*
X171502809Y-93838500D01*
X171452080Y-93809212D01*
X179562805Y-93809212D01*
X179562805Y-94848717D01*
X179574436Y-94907194D01*
X179574437Y-94907195D01*
X179618752Y-94973517D01*
X179685074Y-95017832D01*
X179685075Y-95017833D01*
X179743552Y-95029464D01*
X179743555Y-95029465D01*
X179743557Y-95029465D01*
X180583055Y-95029465D01*
X180583056Y-95029464D01*
X180597873Y-95026517D01*
X180641534Y-95017833D01*
X180641534Y-95017832D01*
X180641536Y-95017832D01*
X180707857Y-94973517D01*
X180752172Y-94907196D01*
X180752172Y-94907194D01*
X180752173Y-94907194D01*
X180763071Y-94852403D01*
X180763805Y-94848713D01*
X180763805Y-93809217D01*
X180763805Y-93809214D01*
X180763804Y-93809212D01*
X180752173Y-93750735D01*
X180752172Y-93750734D01*
X180707857Y-93684412D01*
X180641535Y-93640097D01*
X180641534Y-93640096D01*
X180583057Y-93628465D01*
X180583053Y-93628465D01*
X179743557Y-93628465D01*
X179743552Y-93628465D01*
X179685075Y-93640096D01*
X179685074Y-93640097D01*
X179618752Y-93684412D01*
X179574437Y-93750734D01*
X179574436Y-93750735D01*
X179562805Y-93809212D01*
X171452080Y-93809212D01*
X171434300Y-93798947D01*
X171434295Y-93798944D01*
X171408818Y-93792117D01*
X171357867Y-93778465D01*
X171357865Y-93778465D01*
X153869012Y-93778465D01*
X153801973Y-93758780D01*
X153781331Y-93742146D01*
X152838351Y-92799166D01*
X152804866Y-92737843D01*
X152804414Y-92735674D01*
X152803441Y-92730781D01*
X152802505Y-92726075D01*
X152800503Y-92723079D01*
X152763596Y-92667842D01*
X152763590Y-92667835D01*
X151806386Y-91710631D01*
X151802047Y-91702685D01*
X151794800Y-91697260D01*
X151785565Y-91672500D01*
X151772901Y-91649308D01*
X151773546Y-91640278D01*
X151770383Y-91631796D01*
X151775999Y-91605975D01*
X151777885Y-91579616D01*
X151783703Y-91570562D01*
X151785235Y-91563523D01*
X151806383Y-91535272D01*
X151856592Y-91485063D01*
X151917913Y-91451580D01*
X151987605Y-91456564D01*
X152031952Y-91485065D01*
X152400150Y-91853263D01*
X152419855Y-91878942D01*
X152431011Y-91898265D01*
X152431013Y-91898267D01*
X152431014Y-91898269D01*
X153331590Y-92798845D01*
X153355220Y-92812488D01*
X153367522Y-92819590D01*
X153367524Y-92819592D01*
X153367525Y-92819592D01*
X153411515Y-92844990D01*
X153500659Y-92868876D01*
X153698504Y-92868876D01*
X153765543Y-92888561D01*
X153786180Y-92905190D01*
X153887552Y-93006562D01*
X153927230Y-93037010D01*
X154040068Y-93078079D01*
X154040070Y-93078079D01*
X154160144Y-93078079D01*
X154160146Y-93078079D01*
X154272984Y-93037010D01*
X154312663Y-93006563D01*
X154312667Y-93006558D01*
X154312672Y-93006555D01*
X154332408Y-92986819D01*
X154393731Y-92953334D01*
X154420089Y-92950500D01*
X155120614Y-92950500D01*
X155187653Y-92970185D01*
X155208295Y-92986819D01*
X155261985Y-93040509D01*
X155261986Y-93040510D01*
X155261988Y-93040511D01*
X155387511Y-93112982D01*
X155387512Y-93112982D01*
X155387515Y-93112984D01*
X155527525Y-93150500D01*
X155527528Y-93150500D01*
X155672472Y-93150500D01*
X155672475Y-93150500D01*
X155812485Y-93112984D01*
X155938015Y-93040509D01*
X156040509Y-92938015D01*
X156112984Y-92812485D01*
X156150500Y-92672475D01*
X156150500Y-92527525D01*
X156112984Y-92387515D01*
X156110546Y-92383293D01*
X156040511Y-92261988D01*
X156040506Y-92261982D01*
X156026484Y-92247960D01*
X180572804Y-92247960D01*
X180599723Y-92383287D01*
X180599726Y-92383297D01*
X180652526Y-92510769D01*
X180652533Y-92510782D01*
X180729190Y-92625506D01*
X180729193Y-92625510D01*
X180826759Y-92723076D01*
X180826763Y-92723079D01*
X180941487Y-92799736D01*
X180941500Y-92799743D01*
X181068972Y-92852543D01*
X181068977Y-92852545D01*
X181068981Y-92852545D01*
X181068982Y-92852546D01*
X181204309Y-92879465D01*
X181204312Y-92879465D01*
X181342300Y-92879465D01*
X181433346Y-92861354D01*
X181477633Y-92852545D01*
X181605116Y-92799740D01*
X181719847Y-92723079D01*
X181817419Y-92625507D01*
X181894080Y-92510776D01*
X181946885Y-92383293D01*
X181960162Y-92316545D01*
X181973805Y-92247960D01*
X181973805Y-92109969D01*
X181946886Y-91974642D01*
X181946885Y-91974641D01*
X181946885Y-91974637D01*
X181915723Y-91899404D01*
X181894083Y-91847160D01*
X181894076Y-91847147D01*
X181817419Y-91732423D01*
X181817416Y-91732419D01*
X181719850Y-91634853D01*
X181719846Y-91634850D01*
X181605122Y-91558193D01*
X181605109Y-91558186D01*
X181477637Y-91505386D01*
X181477627Y-91505383D01*
X181342300Y-91478465D01*
X181342298Y-91478465D01*
X181204312Y-91478465D01*
X181204310Y-91478465D01*
X181068982Y-91505383D01*
X181068972Y-91505386D01*
X180941500Y-91558186D01*
X180941487Y-91558193D01*
X180826763Y-91634850D01*
X180826759Y-91634853D01*
X180729193Y-91732419D01*
X180729190Y-91732423D01*
X180652533Y-91847147D01*
X180652526Y-91847160D01*
X180599726Y-91974632D01*
X180599723Y-91974642D01*
X180572805Y-92109969D01*
X180572805Y-92109972D01*
X180572805Y-92247958D01*
X180572805Y-92247960D01*
X180572804Y-92247960D01*
X156026484Y-92247960D01*
X155938017Y-92159493D01*
X155938011Y-92159488D01*
X155812488Y-92087017D01*
X155812489Y-92087017D01*
X155801006Y-92083940D01*
X155672475Y-92049500D01*
X155527525Y-92049500D01*
X155398993Y-92083940D01*
X155387511Y-92087017D01*
X155261988Y-92159488D01*
X155261982Y-92159493D01*
X155208295Y-92213181D01*
X155146972Y-92246666D01*
X155120614Y-92249500D01*
X154540909Y-92249500D01*
X154473870Y-92229815D01*
X154453228Y-92213181D01*
X154270239Y-92030193D01*
X154270230Y-92030185D01*
X154230561Y-91999744D01*
X154230559Y-91999743D01*
X154230558Y-91999742D01*
X154230556Y-91999741D01*
X154230554Y-91999740D01*
X154117720Y-91958673D01*
X153997642Y-91958673D01*
X153997641Y-91958673D01*
X153884803Y-91999742D01*
X153884802Y-91999743D01*
X153845129Y-92030185D01*
X153787392Y-92087922D01*
X153726068Y-92121406D01*
X153656376Y-92116421D01*
X153612030Y-92087921D01*
X152926698Y-91402589D01*
X152926692Y-91402584D01*
X152907369Y-91391428D01*
X152881690Y-91371723D01*
X152708999Y-91199032D01*
X152675514Y-91137709D01*
X152680498Y-91068017D01*
X152722370Y-91012084D01*
X152787834Y-90987667D01*
X152796680Y-90987351D01*
X158923805Y-90987351D01*
X158990844Y-91007036D01*
X159036599Y-91059840D01*
X159047346Y-91109242D01*
X159047539Y-91109230D01*
X159047623Y-91110515D01*
X159047805Y-91111351D01*
X159047805Y-91113281D01*
X159054236Y-91162136D01*
X159054237Y-91162138D01*
X159104240Y-91269369D01*
X159187901Y-91353030D01*
X159295132Y-91403033D01*
X159343988Y-91409465D01*
X159343989Y-91409465D01*
X159792622Y-91409465D01*
X159808906Y-91407321D01*
X159841478Y-91403033D01*
X159948709Y-91353030D01*
X160032370Y-91269369D01*
X160082373Y-91162138D01*
X160088805Y-91113281D01*
X160088805Y-90764649D01*
X160082373Y-90715792D01*
X160032370Y-90608561D01*
X160004955Y-90581146D01*
X159971470Y-90519823D01*
X159976454Y-90450131D01*
X160018326Y-90394198D01*
X160083790Y-90369781D01*
X160092636Y-90369465D01*
X178516357Y-90369465D01*
X178583396Y-90389150D01*
X178609856Y-90415142D01*
X178610117Y-90414882D01*
X178618751Y-90423516D01*
X178685074Y-90467832D01*
X178685075Y-90467833D01*
X178743552Y-90479464D01*
X178743555Y-90479465D01*
X178743557Y-90479465D01*
X180283055Y-90479465D01*
X180283056Y-90479464D01*
X180306018Y-90474897D01*
X180341534Y-90467833D01*
X180341534Y-90467832D01*
X180341536Y-90467832D01*
X180407857Y-90423517D01*
X180452172Y-90357196D01*
X180452172Y-90357194D01*
X180452173Y-90357194D01*
X180463804Y-90298717D01*
X180463805Y-90298715D01*
X180463805Y-89637102D01*
X180483490Y-89570063D01*
X180536294Y-89524308D01*
X180605452Y-89514364D01*
X180669008Y-89543389D01*
X180690907Y-89568212D01*
X180729187Y-89625502D01*
X180729193Y-89625510D01*
X180826759Y-89723076D01*
X180826763Y-89723079D01*
X180941487Y-89799736D01*
X180941500Y-89799743D01*
X181068938Y-89852529D01*
X181068977Y-89852545D01*
X181068981Y-89852545D01*
X181068982Y-89852546D01*
X181204309Y-89879465D01*
X181204312Y-89879465D01*
X181342300Y-89879465D01*
X181433346Y-89861354D01*
X181477633Y-89852545D01*
X181605116Y-89799740D01*
X181719847Y-89723079D01*
X181817419Y-89625507D01*
X181894080Y-89510776D01*
X181895826Y-89506562D01*
X181925710Y-89434413D01*
X181946885Y-89383293D01*
X181961516Y-89309739D01*
X181973805Y-89247960D01*
X181973805Y-89109969D01*
X181946886Y-88974642D01*
X181946885Y-88974641D01*
X181946885Y-88974637D01*
X181933345Y-88941949D01*
X181894083Y-88847160D01*
X181894076Y-88847147D01*
X181817419Y-88732423D01*
X181817416Y-88732419D01*
X181719850Y-88634853D01*
X181719846Y-88634850D01*
X181605122Y-88558193D01*
X181605109Y-88558186D01*
X181477637Y-88505386D01*
X181477627Y-88505383D01*
X181342300Y-88478465D01*
X181342298Y-88478465D01*
X181204312Y-88478465D01*
X181204310Y-88478465D01*
X181068982Y-88505383D01*
X181068972Y-88505386D01*
X180941500Y-88558186D01*
X180941487Y-88558193D01*
X180826763Y-88634850D01*
X180826759Y-88634853D01*
X180729193Y-88732419D01*
X180729190Y-88732423D01*
X180690907Y-88789718D01*
X180637295Y-88834523D01*
X180567970Y-88843230D01*
X180504942Y-88813075D01*
X180468223Y-88753632D01*
X180463805Y-88720827D01*
X180463805Y-88059214D01*
X180463804Y-88059212D01*
X180452173Y-88000735D01*
X180452172Y-88000734D01*
X180401072Y-87924258D01*
X180404220Y-87922154D01*
X180381106Y-87879823D01*
X180386090Y-87810131D01*
X180427962Y-87754198D01*
X180493426Y-87729781D01*
X180502272Y-87729465D01*
X180583055Y-87729465D01*
X180583056Y-87729464D01*
X180597873Y-87726517D01*
X180641534Y-87717833D01*
X180641534Y-87717832D01*
X180641536Y-87717832D01*
X180707857Y-87673517D01*
X180752172Y-87607196D01*
X180752172Y-87607194D01*
X180752173Y-87607194D01*
X180763804Y-87548717D01*
X180763805Y-87548715D01*
X180763805Y-86509214D01*
X180763804Y-86509212D01*
X180752173Y-86450735D01*
X180752172Y-86450734D01*
X180707857Y-86384412D01*
X180641535Y-86340097D01*
X180641534Y-86340096D01*
X180583057Y-86328465D01*
X180583053Y-86328465D01*
X179743557Y-86328465D01*
X179743552Y-86328465D01*
X179685075Y-86340096D01*
X179685074Y-86340097D01*
X179618752Y-86384412D01*
X179574437Y-86450734D01*
X179574436Y-86450735D01*
X179562805Y-86509212D01*
X179562805Y-87548717D01*
X179574436Y-87607194D01*
X179574437Y-87607195D01*
X179625538Y-87683672D01*
X179622389Y-87685775D01*
X179645504Y-87728107D01*
X179640520Y-87797799D01*
X179598648Y-87853732D01*
X179533184Y-87878149D01*
X179524338Y-87878465D01*
X178743552Y-87878465D01*
X178685075Y-87890096D01*
X178685074Y-87890097D01*
X178618751Y-87934413D01*
X178611019Y-87942146D01*
X178549696Y-87975631D01*
X178523338Y-87978465D01*
X177422241Y-87978465D01*
X177360241Y-87961852D01*
X177280790Y-87915981D01*
X177140780Y-87878465D01*
X176995830Y-87878465D01*
X176867298Y-87912905D01*
X176855816Y-87915982D01*
X176730293Y-87988453D01*
X176730287Y-87988458D01*
X176627798Y-88090947D01*
X176627793Y-88090953D01*
X176555322Y-88216476D01*
X176555321Y-88216480D01*
X176517805Y-88356490D01*
X176517805Y-88501440D01*
X176555321Y-88641450D01*
X176555322Y-88641453D01*
X176627793Y-88766976D01*
X176627795Y-88766978D01*
X176627796Y-88766980D01*
X176730290Y-88869474D01*
X176730291Y-88869475D01*
X176730293Y-88869476D01*
X176855816Y-88941947D01*
X176855817Y-88941947D01*
X176855820Y-88941949D01*
X176995830Y-88979465D01*
X176995833Y-88979465D01*
X177140777Y-88979465D01*
X177140780Y-88979465D01*
X177280790Y-88941949D01*
X177360241Y-88896077D01*
X177422241Y-88879465D01*
X178523338Y-88879465D01*
X178590377Y-88899150D01*
X178611019Y-88915784D01*
X178618751Y-88923516D01*
X178685074Y-88967832D01*
X178685075Y-88967833D01*
X178743552Y-88979464D01*
X178743555Y-88979465D01*
X178743557Y-88979465D01*
X180283055Y-88979465D01*
X180283056Y-88979464D01*
X180307350Y-88974632D01*
X180341533Y-88967833D01*
X180341533Y-88967832D01*
X180341536Y-88967832D01*
X180391950Y-88934145D01*
X180458627Y-88913268D01*
X180526007Y-88931752D01*
X180572698Y-88983731D01*
X180583874Y-89052700D01*
X180582458Y-89061439D01*
X180572805Y-89109967D01*
X180572805Y-89247962D01*
X180582458Y-89296490D01*
X180576231Y-89366081D01*
X180533368Y-89421259D01*
X180467478Y-89444503D01*
X180399481Y-89428435D01*
X180391951Y-89423783D01*
X180341538Y-89390098D01*
X180341534Y-89390096D01*
X180283057Y-89378465D01*
X180283053Y-89378465D01*
X178743557Y-89378465D01*
X178743552Y-89378465D01*
X178685075Y-89390096D01*
X178685074Y-89390097D01*
X178608598Y-89441198D01*
X178607486Y-89439535D01*
X178559696Y-89465631D01*
X178533338Y-89468465D01*
X159898064Y-89468465D01*
X159845660Y-89456847D01*
X159841478Y-89454897D01*
X159841476Y-89454896D01*
X159841477Y-89454896D01*
X159792622Y-89448465D01*
X159792621Y-89448465D01*
X159343989Y-89448465D01*
X159343988Y-89448465D01*
X159295133Y-89454896D01*
X159187900Y-89504900D01*
X159104240Y-89588560D01*
X159054236Y-89695793D01*
X159047805Y-89744648D01*
X159047805Y-90093281D01*
X159054767Y-90146166D01*
X159044001Y-90215202D01*
X158997621Y-90267457D01*
X158931828Y-90286351D01*
X152880907Y-90286351D01*
X152859661Y-90280112D01*
X152837574Y-90278533D01*
X152826790Y-90270460D01*
X152813868Y-90266666D01*
X152799369Y-90249934D01*
X152781640Y-90236662D01*
X152776932Y-90224039D01*
X152768113Y-90213862D01*
X152764961Y-90191946D01*
X152757223Y-90171198D01*
X152760085Y-90158036D01*
X152758169Y-90144704D01*
X152767367Y-90124562D01*
X152772074Y-90102925D01*
X152785345Y-90085196D01*
X152787194Y-90081148D01*
X152793207Y-90074689D01*
X152881697Y-89986198D01*
X152907367Y-89966501D01*
X152926696Y-89955343D01*
X153555666Y-89326373D01*
X153582593Y-89311669D01*
X153608412Y-89295077D01*
X153614612Y-89294185D01*
X153616989Y-89292888D01*
X153643347Y-89290054D01*
X153756076Y-89290054D01*
X153823115Y-89309739D01*
X153843753Y-89326368D01*
X153945125Y-89427740D01*
X153945129Y-89427743D01*
X153945131Y-89427745D01*
X153945132Y-89427746D01*
X153966970Y-89444503D01*
X153984804Y-89458188D01*
X154097642Y-89499257D01*
X154097644Y-89499257D01*
X154217718Y-89499257D01*
X154217720Y-89499257D01*
X154330558Y-89458188D01*
X154370236Y-89427741D01*
X154667080Y-89130896D01*
X154697528Y-89091218D01*
X154738597Y-88978380D01*
X154738597Y-88858302D01*
X154697528Y-88745464D01*
X154667081Y-88705785D01*
X154412663Y-88451368D01*
X154412662Y-88451367D01*
X154412655Y-88451361D01*
X154372988Y-88420923D01*
X154372987Y-88420922D01*
X154372984Y-88420920D01*
X154309634Y-88397863D01*
X154260146Y-88379851D01*
X154220213Y-88379851D01*
X154153174Y-88360166D01*
X154107419Y-88307362D01*
X154106531Y-88305374D01*
X154102834Y-88296889D01*
X154081289Y-88216480D01*
X154026365Y-88121350D01*
X154023571Y-88114935D01*
X154020046Y-88086935D01*
X154013393Y-88059512D01*
X154015740Y-88052730D01*
X154014844Y-88045612D01*
X154027013Y-88020157D01*
X154036245Y-87993485D01*
X154041886Y-87989048D01*
X154044981Y-87982576D01*
X154068981Y-87967741D01*
X154091167Y-87950294D01*
X154099943Y-87948602D01*
X154104413Y-87945840D01*
X154113453Y-87945998D01*
X154137253Y-87941412D01*
X155107435Y-87941412D01*
X155174474Y-87961097D01*
X155195116Y-87977731D01*
X155245125Y-88027740D01*
X155284804Y-88058188D01*
X155397642Y-88099257D01*
X155397644Y-88099257D01*
X155517718Y-88099257D01*
X155517720Y-88099257D01*
X155630558Y-88058188D01*
X155670236Y-88027741D01*
X155967080Y-87730896D01*
X155997528Y-87691218D01*
X156038597Y-87578380D01*
X156038597Y-87458302D01*
X155997528Y-87345464D01*
X155967081Y-87305785D01*
X155967080Y-87305784D01*
X155967073Y-87305776D01*
X155917071Y-87255774D01*
X155902367Y-87228846D01*
X155885775Y-87203028D01*
X155884883Y-87196827D01*
X155883586Y-87194451D01*
X155880752Y-87168093D01*
X155880752Y-87134271D01*
X155900437Y-87067232D01*
X155917071Y-87046590D01*
X156821100Y-86142561D01*
X156882423Y-86109076D01*
X156908781Y-86106242D01*
X157364223Y-86106242D01*
X157431262Y-86125927D01*
X157451904Y-86142561D01*
X157987694Y-86678351D01*
X158011231Y-86697852D01*
X158133586Y-86756775D01*
X158267874Y-86777016D01*
X158402161Y-86756775D01*
X158524516Y-86697852D01*
X158548053Y-86678351D01*
X159119772Y-86106632D01*
X159139273Y-86083095D01*
X159198196Y-85960740D01*
X159218437Y-85826453D01*
X159198196Y-85692165D01*
X159139273Y-85569810D01*
X159119772Y-85546273D01*
X158406632Y-84833133D01*
X158383095Y-84813632D01*
X158383094Y-84813631D01*
X158319662Y-84783084D01*
X158260740Y-84754709D01*
X158126452Y-84734468D01*
X157992165Y-84754709D01*
X157869810Y-84813631D01*
X157846268Y-84833137D01*
X157310483Y-85368923D01*
X157249160Y-85402408D01*
X157222802Y-85405242D01*
X156666093Y-85405242D01*
X156592063Y-85425078D01*
X156522213Y-85423415D01*
X156464351Y-85384252D01*
X156441477Y-85341845D01*
X156440480Y-85338615D01*
X156440480Y-85338611D01*
X156381557Y-85216256D01*
X156362056Y-85192719D01*
X155648916Y-84479579D01*
X155625379Y-84460078D01*
X155625378Y-84460077D01*
X155561946Y-84429530D01*
X155503024Y-84401155D01*
X155368736Y-84380914D01*
X155234449Y-84401155D01*
X155112094Y-84460077D01*
X155088552Y-84479583D01*
X154516842Y-85051293D01*
X154497336Y-85074835D01*
X154440567Y-85192719D01*
X154438414Y-85197190D01*
X154418173Y-85331477D01*
X154438414Y-85465765D01*
X154448509Y-85486727D01*
X154497336Y-85588119D01*
X154497337Y-85588120D01*
X154516838Y-85611657D01*
X154516842Y-85611661D01*
X154965703Y-86060522D01*
X154970041Y-86068467D01*
X154977288Y-86073892D01*
X154986523Y-86098651D01*
X154999188Y-86121845D01*
X154998542Y-86130874D01*
X155001706Y-86139356D01*
X154996089Y-86165178D01*
X154994204Y-86191537D01*
X154988386Y-86200589D01*
X154986855Y-86207629D01*
X154965704Y-86235883D01*
X154918646Y-86282942D01*
X154857323Y-86316428D01*
X154830964Y-86319262D01*
X154779478Y-86319262D01*
X154666645Y-86360329D01*
X154666636Y-86360334D01*
X154626970Y-86390771D01*
X154626969Y-86390772D01*
X154626963Y-86390777D01*
X154626963Y-86390778D01*
X154492469Y-86525272D01*
X154431149Y-86558756D01*
X154404790Y-86561590D01*
X152533454Y-86561590D01*
X152466415Y-86541905D01*
X152420660Y-86489101D01*
X152410716Y-86419943D01*
X152439741Y-86356387D01*
X152445773Y-86349909D01*
X153667943Y-85127739D01*
X154918775Y-83876907D01*
X154964919Y-83796983D01*
X154967370Y-83787833D01*
X154972651Y-83768129D01*
X154979022Y-83744348D01*
X154988805Y-83707839D01*
X154988805Y-83171367D01*
X155008490Y-83104328D01*
X155025124Y-83083686D01*
X155061529Y-83047281D01*
X155112277Y-82938452D01*
X155118805Y-82888866D01*
X155118804Y-82469065D01*
X155112277Y-82419478D01*
X155061529Y-82310649D01*
X154976621Y-82225741D01*
X154867792Y-82174993D01*
X154867790Y-82174992D01*
X154867791Y-82174992D01*
X154818207Y-82168465D01*
X154458410Y-82168465D01*
X154442691Y-82170534D01*
X154408818Y-82174993D01*
X154408816Y-82174994D01*
X154408814Y-82174994D01*
X154299988Y-82225741D01*
X154215081Y-82310648D01*
X154164332Y-82419479D01*
X154157805Y-82469063D01*
X154157805Y-82888859D01*
X154158031Y-82890578D01*
X154164333Y-82938452D01*
X154164334Y-82938454D01*
X154164334Y-82938455D01*
X154215081Y-83047281D01*
X154251486Y-83083686D01*
X154284971Y-83145009D01*
X154287805Y-83171367D01*
X154287805Y-83465151D01*
X154268120Y-83532190D01*
X154251486Y-83552832D01*
X151779047Y-86025271D01*
X151717724Y-86058756D01*
X151691366Y-86061590D01*
X151685483Y-86061590D01*
X151605228Y-86083093D01*
X151605229Y-86083094D01*
X151596337Y-86085476D01*
X151516414Y-86131621D01*
X151516411Y-86131623D01*
X150309696Y-87338337D01*
X150298534Y-87357669D01*
X150290264Y-87365552D01*
X150278831Y-87383344D01*
X149830948Y-87831228D01*
X149830942Y-87831236D01*
X149792037Y-87889461D01*
X149792034Y-87889469D01*
X149773758Y-87981350D01*
X149773758Y-87981355D01*
X149792034Y-88073235D01*
X149792037Y-88073243D01*
X149830944Y-88131472D01*
X149830950Y-88131479D01*
X150012237Y-88312766D01*
X150012244Y-88312772D01*
X150070471Y-88351678D01*
X150070474Y-88351679D01*
X150070477Y-88351681D01*
X150070479Y-88351681D01*
X150076133Y-88354023D01*
X150130538Y-88397863D01*
X150143245Y-88421133D01*
X150145588Y-88426791D01*
X150145589Y-88426793D01*
X150183989Y-88484263D01*
X150184502Y-88485031D01*
X150365790Y-88666319D01*
X150365797Y-88666325D01*
X150424024Y-88705231D01*
X150424027Y-88705232D01*
X150424030Y-88705234D01*
X150424032Y-88705234D01*
X150429686Y-88707576D01*
X150484091Y-88751416D01*
X150487925Y-88757284D01*
X150497733Y-88773268D01*
X150499142Y-88780347D01*
X150535114Y-88834185D01*
X150536358Y-88836211D01*
X150544900Y-88867714D01*
X150554650Y-88898854D01*
X150553993Y-88901248D01*
X150554643Y-88903646D01*
X150544800Y-88934757D01*
X150536165Y-88966234D01*
X150534316Y-88967894D01*
X150533568Y-88970261D01*
X150508470Y-88991109D01*
X150484186Y-89012923D01*
X150481470Y-89013539D01*
X150479823Y-89014908D01*
X150470283Y-89016077D01*
X150430670Y-89025066D01*
X149354952Y-89025066D01*
X149287913Y-89005381D01*
X149267271Y-88988747D01*
X149238017Y-88959493D01*
X149238011Y-88959488D01*
X149112488Y-88887017D01*
X149112489Y-88887017D01*
X149101006Y-88883940D01*
X148972475Y-88849500D01*
X148827525Y-88849500D01*
X148698993Y-88883940D01*
X148687511Y-88887017D01*
X148561988Y-88959488D01*
X148561982Y-88959493D01*
X148459493Y-89061982D01*
X148459488Y-89061988D01*
X148387017Y-89187511D01*
X148387016Y-89187515D01*
X148349500Y-89327525D01*
X148349500Y-89472475D01*
X148387016Y-89612485D01*
X148387017Y-89612488D01*
X148459488Y-89738011D01*
X148459490Y-89738013D01*
X148459491Y-89738015D01*
X148561985Y-89840509D01*
X148561986Y-89840510D01*
X148561988Y-89840511D01*
X148687511Y-89912982D01*
X148687512Y-89912982D01*
X148687515Y-89912984D01*
X148827525Y-89950500D01*
X148827528Y-89950500D01*
X148972473Y-89950500D01*
X148972475Y-89950500D01*
X149112485Y-89912984D01*
X149238015Y-89840509D01*
X149316140Y-89762384D01*
X149377464Y-89728900D01*
X149403821Y-89726066D01*
X149578891Y-89726066D01*
X149645930Y-89745751D01*
X149691685Y-89798555D01*
X149701629Y-89867713D01*
X149672604Y-89931269D01*
X149666572Y-89937747D01*
X149591138Y-90013181D01*
X149529815Y-90046666D01*
X149503457Y-90049500D01*
X149427525Y-90049500D01*
X149287515Y-90087016D01*
X149182838Y-90147450D01*
X149182809Y-90147466D01*
X149161988Y-90159489D01*
X149161982Y-90159493D01*
X149059493Y-90261982D01*
X149059488Y-90261988D01*
X148987017Y-90387511D01*
X148987016Y-90387515D01*
X148949500Y-90527525D01*
X148949500Y-90672475D01*
X148982134Y-90794265D01*
X148987017Y-90812488D01*
X149059488Y-90938011D01*
X149059490Y-90938013D01*
X149059491Y-90938015D01*
X149161985Y-91040509D01*
X149161986Y-91040510D01*
X149161988Y-91040511D01*
X149287511Y-91112982D01*
X149287512Y-91112982D01*
X149287515Y-91112984D01*
X149427525Y-91150500D01*
X149427528Y-91150500D01*
X149572472Y-91150500D01*
X149572475Y-91150500D01*
X149712485Y-91112984D01*
X149793166Y-91066402D01*
X149861064Y-91049930D01*
X149927091Y-91072782D01*
X149970282Y-91127703D01*
X149976924Y-91197256D01*
X149944909Y-91259359D01*
X149942846Y-91261471D01*
X149691137Y-91513181D01*
X149629814Y-91546666D01*
X149603456Y-91549500D01*
X149527525Y-91549500D01*
X149415296Y-91579572D01*
X149387511Y-91587017D01*
X149261988Y-91659488D01*
X149261982Y-91659493D01*
X149159493Y-91761982D01*
X149159488Y-91761988D01*
X149087017Y-91887511D01*
X149084134Y-91898269D01*
X149049500Y-92027525D01*
X149049500Y-92172475D01*
X149080168Y-92286927D01*
X149087017Y-92312488D01*
X149159488Y-92438011D01*
X149159490Y-92438013D01*
X149159491Y-92438015D01*
X149261985Y-92540509D01*
X149261986Y-92540510D01*
X149261988Y-92540511D01*
X149387511Y-92612982D01*
X149387512Y-92612982D01*
X149387515Y-92612984D01*
X149527525Y-92650500D01*
X149527528Y-92650500D01*
X149672472Y-92650500D01*
X149672475Y-92650500D01*
X149812485Y-92612984D01*
X149938015Y-92540509D01*
X150040509Y-92438015D01*
X150106959Y-92322921D01*
X150131308Y-92299703D01*
X150155130Y-92275974D01*
X150156506Y-92275677D01*
X150157526Y-92274705D01*
X150190541Y-92268342D01*
X150223431Y-92261254D01*
X150224751Y-92261749D01*
X150226133Y-92261483D01*
X150257341Y-92273976D01*
X150288848Y-92285798D01*
X150289690Y-92286927D01*
X150290998Y-92287451D01*
X150310508Y-92314849D01*
X150330611Y-92341812D01*
X150330915Y-92343507D01*
X150331526Y-92344365D01*
X150338047Y-92376314D01*
X150338346Y-92380611D01*
X150338346Y-92534990D01*
X150349759Y-92577583D01*
X150352854Y-92589136D01*
X150352855Y-92589141D01*
X150358714Y-92611009D01*
X150357050Y-92680859D01*
X150326620Y-92730781D01*
X150184503Y-92872897D01*
X150184502Y-92872898D01*
X150145587Y-92931140D01*
X150143241Y-92936804D01*
X150099396Y-92991204D01*
X150076144Y-93003901D01*
X150070480Y-93006247D01*
X150012238Y-93045162D01*
X149830949Y-93226451D01*
X149792035Y-93284692D01*
X149789691Y-93290351D01*
X149745849Y-93344754D01*
X149722587Y-93357456D01*
X149716924Y-93359801D01*
X149658684Y-93398715D01*
X149477395Y-93580004D01*
X149438481Y-93638244D01*
X149436136Y-93643907D01*
X149392293Y-93698309D01*
X149369031Y-93711011D01*
X149363372Y-93713355D01*
X149363370Y-93713355D01*
X149363370Y-93713356D01*
X149334444Y-93732682D01*
X149305131Y-93752269D01*
X149123842Y-93933558D01*
X149123839Y-93933563D01*
X149088517Y-93986428D01*
X149084928Y-93991799D01*
X149082584Y-93997458D01*
X149038742Y-94051861D01*
X149015480Y-94064563D01*
X149009817Y-94066908D01*
X148951577Y-94105822D01*
X148770288Y-94287111D01*
X148731374Y-94345351D01*
X148729029Y-94351014D01*
X148685186Y-94405416D01*
X148661924Y-94418118D01*
X148656265Y-94420462D01*
X148656263Y-94420462D01*
X148656263Y-94420463D01*
X148644823Y-94428107D01*
X148598024Y-94459376D01*
X148416735Y-94640665D01*
X148377820Y-94698907D01*
X148375474Y-94704571D01*
X148337623Y-94754537D01*
X148316321Y-94771308D01*
X148302710Y-94774016D01*
X148244476Y-94812926D01*
X148174186Y-94883215D01*
X148168403Y-94887769D01*
X148142523Y-94898146D01*
X148118053Y-94911508D01*
X148110543Y-94910970D01*
X148103553Y-94913774D01*
X148076167Y-94908511D01*
X148048362Y-94906523D01*
X148042334Y-94902011D01*
X148034939Y-94900590D01*
X148014749Y-94881361D01*
X147992428Y-94864652D01*
X147984358Y-94852416D01*
X147984345Y-94852404D01*
X147984343Y-94852400D01*
X147984340Y-94852390D01*
X147984309Y-94852342D01*
X147981956Y-94848266D01*
X147966651Y-94821757D01*
X147211047Y-94066153D01*
X147211045Y-94066152D01*
X147211040Y-94066148D01*
X147142531Y-94026595D01*
X147142526Y-94026592D01*
X147117049Y-94019765D01*
X147066098Y-94006113D01*
X146705093Y-94006113D01*
X146627526Y-94006113D01*
X146560487Y-93986428D01*
X146524425Y-93951005D01*
X146512771Y-93933563D01*
X146512768Y-93933560D01*
X146512766Y-93933557D01*
X146331478Y-93752269D01*
X146331474Y-93752266D01*
X146273240Y-93713356D01*
X146273238Y-93713355D01*
X146267580Y-93711012D01*
X146213177Y-93667171D01*
X146200469Y-93643898D01*
X146198129Y-93638248D01*
X146198128Y-93638243D01*
X146198125Y-93638238D01*
X146198124Y-93638236D01*
X146159219Y-93580010D01*
X146159213Y-93580003D01*
X145977925Y-93398715D01*
X145977921Y-93398712D01*
X145919687Y-93359802D01*
X145919685Y-93359801D01*
X145914029Y-93357459D01*
X145859624Y-93313619D01*
X145846916Y-93290346D01*
X145844574Y-93284692D01*
X145844574Y-93284690D01*
X145844572Y-93284687D01*
X145844571Y-93284684D01*
X145805665Y-93226457D01*
X145805659Y-93226450D01*
X145624371Y-93045162D01*
X145624367Y-93045159D01*
X145566133Y-93006249D01*
X145566131Y-93006248D01*
X145560473Y-93003905D01*
X145506070Y-92960064D01*
X145493363Y-92936793D01*
X145491021Y-92931139D01*
X145491021Y-92931137D01*
X145491019Y-92931134D01*
X145491018Y-92931131D01*
X145452112Y-92872904D01*
X145452106Y-92872897D01*
X145270818Y-92691609D01*
X145270814Y-92691606D01*
X145212580Y-92652696D01*
X145212578Y-92652695D01*
X145206920Y-92650352D01*
X145152517Y-92606511D01*
X145139809Y-92583238D01*
X145137469Y-92577588D01*
X145137468Y-92577583D01*
X145137465Y-92577578D01*
X145137464Y-92577576D01*
X145098559Y-92519350D01*
X145098553Y-92519343D01*
X144917265Y-92338055D01*
X144894615Y-92322921D01*
X144859027Y-92299142D01*
X144859025Y-92299141D01*
X144853369Y-92296799D01*
X144798964Y-92252959D01*
X144786256Y-92229686D01*
X144783914Y-92224032D01*
X144783914Y-92224030D01*
X144783912Y-92224027D01*
X144783911Y-92224024D01*
X144745005Y-92165797D01*
X144744999Y-92165790D01*
X144563711Y-91984502D01*
X144563707Y-91984499D01*
X144505473Y-91945589D01*
X144505471Y-91945588D01*
X144499813Y-91943245D01*
X144445410Y-91899404D01*
X144432702Y-91876131D01*
X144430362Y-91870481D01*
X144430361Y-91870476D01*
X144430358Y-91870471D01*
X144430357Y-91870469D01*
X144391452Y-91812243D01*
X144391446Y-91812236D01*
X144210158Y-91630948D01*
X144203965Y-91626810D01*
X144151920Y-91592035D01*
X144151918Y-91592034D01*
X144146262Y-91589692D01*
X144091857Y-91545852D01*
X144079149Y-91522579D01*
X144076807Y-91516925D01*
X144076807Y-91516923D01*
X144076805Y-91516920D01*
X144076804Y-91516917D01*
X144037898Y-91458690D01*
X144037892Y-91458683D01*
X143856604Y-91277395D01*
X143856600Y-91277392D01*
X143798366Y-91238482D01*
X143798364Y-91238481D01*
X143792706Y-91236138D01*
X143738303Y-91192297D01*
X143725596Y-91169026D01*
X143723254Y-91163372D01*
X143723254Y-91163370D01*
X143723252Y-91163367D01*
X143723251Y-91163364D01*
X143684345Y-91105137D01*
X143684339Y-91105130D01*
X143503052Y-90923843D01*
X143503045Y-90923837D01*
X143444816Y-90884930D01*
X143444808Y-90884927D01*
X143352928Y-90866651D01*
X143352924Y-90866651D01*
X143261042Y-90884927D01*
X143261034Y-90884930D01*
X143202805Y-90923837D01*
X143202798Y-90923843D01*
X142165911Y-91960730D01*
X142126998Y-92018968D01*
X142126996Y-92018973D01*
X142125086Y-92028577D01*
X142092697Y-92090486D01*
X142091151Y-92092059D01*
X140441066Y-93742146D01*
X140379743Y-93775631D01*
X140353385Y-93778465D01*
X133418305Y-93778465D01*
X133418305Y-88266237D01*
X135405305Y-88266237D01*
X135405305Y-89591692D01*
X135420118Y-89704200D01*
X135420118Y-89704201D01*
X135476579Y-89840511D01*
X135478107Y-89844198D01*
X135570354Y-89964416D01*
X135690572Y-90056663D01*
X135690575Y-90056664D01*
X135690576Y-90056665D01*
X135734044Y-90074670D01*
X135828758Y-90113901D01*
X135844322Y-90126443D01*
X135862508Y-90134749D01*
X135870971Y-90147918D01*
X135883161Y-90157741D01*
X135889474Y-90176709D01*
X135900282Y-90193527D01*
X135904244Y-90221087D01*
X135905226Y-90224036D01*
X135905305Y-90228462D01*
X135905305Y-90308162D01*
X135885620Y-90375201D01*
X135832816Y-90420956D01*
X135803286Y-90428844D01*
X135803475Y-90429709D01*
X135796103Y-90431318D01*
X135667924Y-90476171D01*
X135667922Y-90476172D01*
X135558655Y-90556815D01*
X135478012Y-90666082D01*
X135478011Y-90666084D01*
X135433158Y-90794263D01*
X135433158Y-90794265D01*
X135430305Y-90824695D01*
X135430305Y-91433234D01*
X135433158Y-91463664D01*
X135433158Y-91463666D01*
X135476322Y-91587017D01*
X135478012Y-91591847D01*
X135558655Y-91701115D01*
X135667923Y-91781758D01*
X135710650Y-91796709D01*
X135796104Y-91826611D01*
X135826535Y-91829465D01*
X135826539Y-91829465D01*
X136885075Y-91829465D01*
X136915504Y-91826611D01*
X136915506Y-91826611D01*
X136979595Y-91804184D01*
X137043687Y-91781758D01*
X137152955Y-91701115D01*
X137205564Y-91629832D01*
X137209543Y-91626810D01*
X137211621Y-91622262D01*
X137237099Y-91605888D01*
X137261211Y-91587581D01*
X137267340Y-91586453D01*
X137270399Y-91584488D01*
X137305334Y-91579465D01*
X137533974Y-91579465D01*
X137601013Y-91599150D01*
X137646768Y-91651954D01*
X137656712Y-91721112D01*
X137627687Y-91784668D01*
X137621655Y-91791146D01*
X137554240Y-91858560D01*
X137504236Y-91965793D01*
X137497805Y-92014648D01*
X137497805Y-92363281D01*
X137504236Y-92412136D01*
X137516302Y-92438011D01*
X137554240Y-92519369D01*
X137637901Y-92603030D01*
X137745132Y-92653033D01*
X137793988Y-92659465D01*
X137793989Y-92659465D01*
X138242622Y-92659465D01*
X138258906Y-92657321D01*
X138291478Y-92653033D01*
X138295660Y-92651082D01*
X138348064Y-92639465D01*
X138618805Y-92639465D01*
X138685844Y-92659150D01*
X138731599Y-92711954D01*
X138742805Y-92763465D01*
X138742805Y-92918216D01*
X138758352Y-93016382D01*
X138770644Y-93040506D01*
X138818647Y-93134716D01*
X138818649Y-93134718D01*
X138818651Y-93134721D01*
X138912548Y-93228618D01*
X138912550Y-93228619D01*
X138912554Y-93228623D01*
X139030885Y-93288916D01*
X139030886Y-93288916D01*
X139030888Y-93288917D01*
X139030887Y-93288917D01*
X139129054Y-93304465D01*
X139129059Y-93304465D01*
X139707556Y-93304465D01*
X139805722Y-93288917D01*
X139805723Y-93288916D01*
X139805725Y-93288916D01*
X139924056Y-93228623D01*
X140017963Y-93134716D01*
X140078256Y-93016385D01*
X140078256Y-93016383D01*
X140078257Y-93016382D01*
X140093805Y-92918216D01*
X140093805Y-92414713D01*
X140078257Y-92316547D01*
X140076187Y-92312485D01*
X140017963Y-92198214D01*
X140017959Y-92198210D01*
X140017958Y-92198208D01*
X139924061Y-92104311D01*
X139924058Y-92104309D01*
X139924056Y-92104307D01*
X139805725Y-92044014D01*
X139805724Y-92044013D01*
X139805721Y-92044012D01*
X139805722Y-92044012D01*
X139707556Y-92028465D01*
X139707551Y-92028465D01*
X139468770Y-92028465D01*
X139401731Y-92008780D01*
X139381089Y-91992146D01*
X139217421Y-91828478D01*
X139217419Y-91828476D01*
X139136403Y-91781701D01*
X139114694Y-91769167D01*
X139114693Y-91769166D01*
X139114692Y-91769166D01*
X139076497Y-91758932D01*
X139076494Y-91758931D01*
X139044212Y-91750281D01*
X139000114Y-91738465D01*
X139000113Y-91738465D01*
X138542636Y-91738465D01*
X138475597Y-91718780D01*
X138429842Y-91665976D01*
X138419898Y-91596818D01*
X138448923Y-91533262D01*
X138454955Y-91526784D01*
X138468558Y-91513181D01*
X138482370Y-91499369D01*
X138532373Y-91392138D01*
X138538805Y-91343281D01*
X138538805Y-90994649D01*
X138532373Y-90945792D01*
X138482370Y-90838561D01*
X138398709Y-90754900D01*
X138291478Y-90704897D01*
X138291476Y-90704896D01*
X138291477Y-90704896D01*
X138242622Y-90698465D01*
X138242621Y-90698465D01*
X138128581Y-90698465D01*
X138096489Y-90694240D01*
X138037615Y-90678465D01*
X138037614Y-90678465D01*
X137305334Y-90678465D01*
X137238295Y-90658780D01*
X137205564Y-90628098D01*
X137152956Y-90556816D01*
X137141677Y-90548492D01*
X137043687Y-90476172D01*
X137043685Y-90476171D01*
X136915506Y-90431318D01*
X136913218Y-90430819D01*
X136912658Y-90430900D01*
X136911805Y-90430510D01*
X136908135Y-90429709D01*
X136908308Y-90428913D01*
X136883528Y-90417597D01*
X136853801Y-90405748D01*
X136851969Y-90403184D01*
X136849102Y-90401875D01*
X136831794Y-90374943D01*
X136813186Y-90348896D01*
X136812519Y-90344951D01*
X136811328Y-90343097D01*
X136806305Y-90308162D01*
X136806305Y-90228462D01*
X136825990Y-90161423D01*
X136878794Y-90115668D01*
X136882832Y-90113910D01*
X137021033Y-90056665D01*
X137021034Y-90056665D01*
X137021034Y-90056664D01*
X137021038Y-90056663D01*
X137141256Y-89964416D01*
X137233503Y-89844198D01*
X137291492Y-89704201D01*
X137306305Y-89591685D01*
X137306305Y-89503465D01*
X137325990Y-89436426D01*
X137378794Y-89390671D01*
X137430305Y-89379465D01*
X138964369Y-89379465D01*
X139026368Y-89396077D01*
X139105820Y-89441949D01*
X139245830Y-89479465D01*
X139245833Y-89479465D01*
X139390777Y-89479465D01*
X139390780Y-89479465D01*
X139530790Y-89441949D01*
X139578016Y-89414683D01*
X139628582Y-89385489D01*
X139690582Y-89368876D01*
X140998504Y-89368876D01*
X141065543Y-89388561D01*
X141086180Y-89405190D01*
X141137837Y-89456847D01*
X141187552Y-89506562D01*
X141187553Y-89506563D01*
X141227226Y-89537007D01*
X141227230Y-89537010D01*
X141340068Y-89578079D01*
X141391553Y-89578079D01*
X141458592Y-89597764D01*
X141479234Y-89614398D01*
X141820179Y-89955343D01*
X141900103Y-90001487D01*
X141989247Y-90025373D01*
X142742724Y-90025373D01*
X142809763Y-90045058D01*
X142830405Y-90061692D01*
X143202798Y-90434086D01*
X143202805Y-90434092D01*
X143261034Y-90472999D01*
X143261036Y-90472999D01*
X143261038Y-90473001D01*
X143261040Y-90473001D01*
X143261042Y-90473002D01*
X143352924Y-90491279D01*
X143352926Y-90491279D01*
X143352928Y-90491279D01*
X143444808Y-90473002D01*
X143444808Y-90473001D01*
X143444813Y-90473001D01*
X143503047Y-90434091D01*
X143684344Y-90252794D01*
X143723254Y-90194560D01*
X143729846Y-90161423D01*
X143741532Y-90102675D01*
X143741532Y-90102670D01*
X143723255Y-90010789D01*
X143723254Y-90010787D01*
X143723254Y-90010785D01*
X143723252Y-90010783D01*
X143723252Y-90010781D01*
X143684345Y-89952552D01*
X143684339Y-89952545D01*
X143236455Y-89504662D01*
X143224912Y-89493119D01*
X143205595Y-89459661D01*
X143140338Y-89394404D01*
X143106879Y-89375086D01*
X142873864Y-89142071D01*
X142647453Y-88915659D01*
X142647446Y-88915653D01*
X142589217Y-88876746D01*
X142589209Y-88876743D01*
X142497328Y-88858467D01*
X142497324Y-88858467D01*
X142405443Y-88876743D01*
X142405435Y-88876746D01*
X142347206Y-88915653D01*
X142347199Y-88915659D01*
X142165912Y-89096946D01*
X142165905Y-89096955D01*
X142165697Y-89097267D01*
X142165545Y-89097393D01*
X142162048Y-89101656D01*
X142161239Y-89100992D01*
X142112084Y-89142071D01*
X142042759Y-89150777D01*
X141979732Y-89120620D01*
X141943014Y-89061177D01*
X141938597Y-89028374D01*
X141938597Y-88979552D01*
X141938597Y-88979550D01*
X141897528Y-88866712D01*
X141890226Y-88857196D01*
X141867087Y-88827041D01*
X141867079Y-88827032D01*
X141570239Y-88530193D01*
X141570230Y-88530185D01*
X141530561Y-88499744D01*
X141530559Y-88499743D01*
X141530558Y-88499742D01*
X141530556Y-88499741D01*
X141530554Y-88499740D01*
X141417720Y-88458673D01*
X141297642Y-88458673D01*
X141297641Y-88458673D01*
X141184803Y-88499742D01*
X141184802Y-88499743D01*
X141145129Y-88530185D01*
X141145119Y-88530194D01*
X141043757Y-88631557D01*
X140982434Y-88665042D01*
X140956076Y-88667876D01*
X139874819Y-88667876D01*
X139807780Y-88648191D01*
X139767432Y-88605876D01*
X139758816Y-88590953D01*
X139758812Y-88590948D01*
X139656322Y-88488458D01*
X139656316Y-88488453D01*
X139530793Y-88415982D01*
X139530794Y-88415982D01*
X139493451Y-88405976D01*
X139390780Y-88378465D01*
X139245830Y-88378465D01*
X139105820Y-88415981D01*
X139105818Y-88415981D01*
X139105818Y-88415982D01*
X139087095Y-88426792D01*
X139026368Y-88461852D01*
X138964369Y-88478465D01*
X137430305Y-88478465D01*
X137363266Y-88458780D01*
X137317511Y-88405976D01*
X137306305Y-88354465D01*
X137306305Y-88266251D01*
X137306304Y-88266237D01*
X137299753Y-88216480D01*
X137291492Y-88153729D01*
X137233503Y-88013732D01*
X137141256Y-87893514D01*
X137021038Y-87801267D01*
X137021034Y-87801265D01*
X136957606Y-87774992D01*
X136881041Y-87743278D01*
X136866976Y-87741426D01*
X136768532Y-87728465D01*
X136768525Y-87728465D01*
X135943085Y-87728465D01*
X135943077Y-87728465D01*
X135830569Y-87743278D01*
X135830568Y-87743278D01*
X135690575Y-87801265D01*
X135690572Y-87801266D01*
X135690572Y-87801267D01*
X135570354Y-87893514D01*
X135478532Y-88013179D01*
X135478105Y-88013735D01*
X135420118Y-88153728D01*
X135420118Y-88153729D01*
X135405305Y-88266237D01*
X133418305Y-88266237D01*
X133418305Y-76258124D01*
X133448435Y-76185385D01*
X133488805Y-75982430D01*
X133488805Y-75775500D01*
X133488804Y-75775495D01*
X133927805Y-75775495D01*
X133927805Y-75982434D01*
X133930714Y-75997057D01*
X133968175Y-76185385D01*
X134047364Y-76376563D01*
X134104846Y-76462591D01*
X134162329Y-76548622D01*
X134308647Y-76694940D01*
X134308650Y-76694942D01*
X134480707Y-76809906D01*
X134671885Y-76889095D01*
X134842243Y-76922981D01*
X134874835Y-76929464D01*
X134874839Y-76929465D01*
X134874840Y-76929465D01*
X135081771Y-76929465D01*
X135081772Y-76929464D01*
X135284725Y-76889095D01*
X135405279Y-76839159D01*
X135425152Y-76837022D01*
X135443882Y-76830037D01*
X135459178Y-76833364D01*
X135474743Y-76831691D01*
X135492620Y-76840639D01*
X135512155Y-76844889D01*
X135534441Y-76861572D01*
X135537223Y-76862965D01*
X135540409Y-76866040D01*
X135681486Y-77007117D01*
X135714971Y-77068440D01*
X135717805Y-77094798D01*
X135717805Y-77818527D01*
X135728523Y-77858525D01*
X135738284Y-77894955D01*
X135749831Y-77914954D01*
X135761378Y-77934954D01*
X135777844Y-77963474D01*
X135777845Y-77963476D01*
X141270466Y-83456097D01*
X141303951Y-83517420D01*
X141298967Y-83587112D01*
X141257095Y-83643045D01*
X141214887Y-83663551D01*
X141205818Y-83665981D01*
X141205816Y-83665982D01*
X141080293Y-83738453D01*
X141080287Y-83738458D01*
X140977798Y-83840947D01*
X140977793Y-83840953D01*
X140905322Y-83966476D01*
X140905321Y-83966480D01*
X140867805Y-84106490D01*
X140867805Y-84251440D01*
X140879017Y-84293282D01*
X140905322Y-84391453D01*
X140977793Y-84516976D01*
X140977798Y-84516982D01*
X141019819Y-84559003D01*
X141053304Y-84620326D01*
X141048320Y-84690018D01*
X141006448Y-84745951D01*
X140964233Y-84766458D01*
X140887516Y-84787015D01*
X140887511Y-84787017D01*
X140761988Y-84859488D01*
X140761982Y-84859493D01*
X140659493Y-84961982D01*
X140659488Y-84961988D01*
X140587017Y-85087511D01*
X140587016Y-85087515D01*
X140549500Y-85227525D01*
X140549500Y-85372475D01*
X140576409Y-85472899D01*
X140587017Y-85512488D01*
X140659488Y-85638011D01*
X140659490Y-85638013D01*
X140659491Y-85638015D01*
X140761985Y-85740509D01*
X140761986Y-85740510D01*
X140761988Y-85740511D01*
X140887511Y-85812982D01*
X140887512Y-85812982D01*
X140887515Y-85812984D01*
X141027525Y-85850500D01*
X141036239Y-85850500D01*
X141103278Y-85870185D01*
X141149033Y-85922989D01*
X141160239Y-85974500D01*
X141160239Y-86835835D01*
X141173891Y-86886786D01*
X141180718Y-86912263D01*
X141180719Y-86912264D01*
X141212206Y-86966801D01*
X141212208Y-86966804D01*
X141220276Y-86980780D01*
X141220280Y-86980785D01*
X142798258Y-88558763D01*
X142831743Y-88620086D01*
X142832193Y-88622247D01*
X142834103Y-88631849D01*
X142834105Y-88631855D01*
X142856279Y-88665042D01*
X142873018Y-88690093D01*
X143909905Y-89726980D01*
X143909912Y-89726986D01*
X143968141Y-89765893D01*
X143968143Y-89765893D01*
X143968145Y-89765895D01*
X143968147Y-89765895D01*
X143968149Y-89765896D01*
X144060031Y-89784173D01*
X144060033Y-89784173D01*
X144060035Y-89784173D01*
X144151915Y-89765896D01*
X144151915Y-89765895D01*
X144151920Y-89765895D01*
X144210154Y-89726985D01*
X144391451Y-89545688D01*
X144430361Y-89487454D01*
X144430362Y-89487446D01*
X144432702Y-89481799D01*
X144476541Y-89427393D01*
X144499817Y-89414683D01*
X144505468Y-89412341D01*
X144505473Y-89412341D01*
X144505476Y-89412338D01*
X144505478Y-89412338D01*
X144541063Y-89388561D01*
X144563707Y-89373431D01*
X144745004Y-89192134D01*
X144764328Y-89163211D01*
X144783911Y-89133905D01*
X144783911Y-89133903D01*
X144783914Y-89133900D01*
X144783914Y-89133895D01*
X144786256Y-89128244D01*
X144830096Y-89073839D01*
X144853372Y-89061129D01*
X144859019Y-89058789D01*
X144859027Y-89058788D01*
X144917261Y-89019878D01*
X145098558Y-88838581D01*
X145137468Y-88780347D01*
X145137469Y-88780339D01*
X145139809Y-88774692D01*
X145183648Y-88720286D01*
X145206924Y-88707576D01*
X145212575Y-88705234D01*
X145212580Y-88705234D01*
X145212583Y-88705231D01*
X145212585Y-88705231D01*
X145268491Y-88667876D01*
X145270814Y-88666324D01*
X145452111Y-88485027D01*
X145474601Y-88451368D01*
X145491018Y-88426798D01*
X145491018Y-88426796D01*
X145491021Y-88426793D01*
X145491021Y-88426788D01*
X145493363Y-88421137D01*
X145537203Y-88366732D01*
X145560477Y-88354023D01*
X145566128Y-88351681D01*
X145566133Y-88351681D01*
X145566136Y-88351678D01*
X145566138Y-88351678D01*
X145595444Y-88332095D01*
X145624367Y-88312771D01*
X145805664Y-88131474D01*
X145827191Y-88099256D01*
X145844571Y-88073245D01*
X145844571Y-88073243D01*
X145844574Y-88073240D01*
X145844574Y-88073235D01*
X145846916Y-88067584D01*
X145890756Y-88013179D01*
X145914032Y-88000469D01*
X145919679Y-87998129D01*
X145919687Y-87998128D01*
X145977921Y-87959218D01*
X146159218Y-87777921D01*
X146198128Y-87719687D01*
X146198129Y-87719679D01*
X146200469Y-87714032D01*
X146244308Y-87659626D01*
X146267584Y-87646916D01*
X146273235Y-87644574D01*
X146273240Y-87644574D01*
X146273243Y-87644571D01*
X146273245Y-87644571D01*
X146329181Y-87607196D01*
X146331474Y-87605664D01*
X146512771Y-87424367D01*
X146551681Y-87366133D01*
X146551681Y-87366128D01*
X146554023Y-87360477D01*
X146597863Y-87306072D01*
X146621139Y-87293362D01*
X146626786Y-87291022D01*
X146626794Y-87291021D01*
X146685028Y-87252111D01*
X146866325Y-87070814D01*
X146905235Y-87012580D01*
X146905236Y-87012572D01*
X146907576Y-87006925D01*
X146951415Y-86952519D01*
X146974691Y-86939809D01*
X146980342Y-86937467D01*
X146980347Y-86937467D01*
X146980350Y-86937464D01*
X146980352Y-86937464D01*
X147018068Y-86912263D01*
X147038581Y-86898557D01*
X147219878Y-86717260D01*
X147258788Y-86659026D01*
X147258788Y-86659021D01*
X147261130Y-86653370D01*
X147304970Y-86598965D01*
X147328244Y-86586256D01*
X147333895Y-86583914D01*
X147333900Y-86583914D01*
X147333903Y-86583911D01*
X147333905Y-86583911D01*
X147371552Y-86558756D01*
X147392134Y-86545004D01*
X147573431Y-86363707D01*
X147612341Y-86305473D01*
X147630619Y-86213586D01*
X147630619Y-86213583D01*
X148005991Y-86213583D01*
X148005991Y-86213588D01*
X148024267Y-86305468D01*
X148024270Y-86305476D01*
X148063177Y-86363705D01*
X148063183Y-86363712D01*
X148244470Y-86544999D01*
X148244477Y-86545005D01*
X148302704Y-86583911D01*
X148302707Y-86583912D01*
X148302710Y-86583914D01*
X148302712Y-86583914D01*
X148308366Y-86586256D01*
X148362771Y-86630096D01*
X148375478Y-86653366D01*
X148377821Y-86659024D01*
X148377822Y-86659026D01*
X148416731Y-86717258D01*
X148416735Y-86717264D01*
X148598023Y-86898552D01*
X148598030Y-86898558D01*
X148656257Y-86937464D01*
X148656260Y-86937465D01*
X148656263Y-86937467D01*
X148656265Y-86937467D01*
X148661919Y-86939809D01*
X148716324Y-86983649D01*
X148729032Y-87006922D01*
X148731374Y-87012578D01*
X148731375Y-87012580D01*
X148767892Y-87067232D01*
X148770288Y-87070818D01*
X148951576Y-87252106D01*
X148951583Y-87252112D01*
X149009809Y-87291017D01*
X149009811Y-87291018D01*
X149009816Y-87291021D01*
X149009821Y-87291022D01*
X149015471Y-87293362D01*
X149069877Y-87337201D01*
X149082585Y-87360473D01*
X149084928Y-87366131D01*
X149084929Y-87366133D01*
X149096429Y-87383344D01*
X149123842Y-87424371D01*
X149305130Y-87605659D01*
X149305137Y-87605665D01*
X149363366Y-87644572D01*
X149363368Y-87644572D01*
X149363370Y-87644574D01*
X149363372Y-87644574D01*
X149363374Y-87644575D01*
X149455255Y-87662852D01*
X149455257Y-87662852D01*
X149455259Y-87662852D01*
X149547140Y-87644575D01*
X149547140Y-87644574D01*
X149547145Y-87644574D01*
X149605379Y-87605664D01*
X150053270Y-87157771D01*
X150064299Y-87149308D01*
X150066632Y-87146193D01*
X150069995Y-87144938D01*
X150078940Y-87138074D01*
X150098269Y-87126916D01*
X151098774Y-86126410D01*
X151144919Y-86046486D01*
X151145957Y-86042611D01*
X151168805Y-85957342D01*
X151168805Y-85323257D01*
X151188490Y-85256218D01*
X151241294Y-85210463D01*
X151292805Y-85199257D01*
X151317718Y-85199257D01*
X151317720Y-85199257D01*
X151430558Y-85158188D01*
X151470236Y-85127741D01*
X151767080Y-84830896D01*
X151797528Y-84791218D01*
X151799057Y-84787017D01*
X151807121Y-84764861D01*
X151835961Y-84719588D01*
X152653795Y-83901757D01*
X152713104Y-83799030D01*
X152725012Y-83754587D01*
X152743805Y-83684452D01*
X152743805Y-81931946D01*
X152752793Y-81901334D01*
X152760216Y-81870298D01*
X152762729Y-81867497D01*
X152763490Y-81864907D01*
X152781942Y-81842484D01*
X152793360Y-81831524D01*
X152799056Y-81828623D01*
X152862793Y-81764885D01*
X152863713Y-81764003D01*
X152893640Y-81748449D01*
X152923218Y-81732299D01*
X152925108Y-81732095D01*
X152925710Y-81731783D01*
X152926952Y-81731897D01*
X152949576Y-81729465D01*
X153143293Y-81729465D01*
X153210332Y-81749150D01*
X153243616Y-81780586D01*
X153244781Y-81782190D01*
X153340079Y-81877488D01*
X153340083Y-81877491D01*
X153340085Y-81877493D01*
X153460179Y-81938684D01*
X153460181Y-81938684D01*
X153460183Y-81938685D01*
X153559812Y-81954465D01*
X153559817Y-81954465D01*
X154076798Y-81954465D01*
X154176426Y-81938685D01*
X154176426Y-81938684D01*
X154176431Y-81938684D01*
X154296525Y-81877493D01*
X154391833Y-81782185D01*
X154453024Y-81662091D01*
X154454072Y-81655473D01*
X154468805Y-81562458D01*
X154468805Y-80995471D01*
X154453025Y-80895843D01*
X154453024Y-80895841D01*
X154453024Y-80895839D01*
X154391833Y-80775745D01*
X154391831Y-80775743D01*
X154391828Y-80775739D01*
X154296530Y-80680441D01*
X154296526Y-80680438D01*
X154296525Y-80680437D01*
X154176431Y-80619246D01*
X154176429Y-80619245D01*
X154176426Y-80619244D01*
X154076798Y-80603465D01*
X154076793Y-80603465D01*
X153559817Y-80603465D01*
X153559812Y-80603465D01*
X153460183Y-80619244D01*
X153340083Y-80680438D01*
X153340079Y-80680441D01*
X153244781Y-80775739D01*
X153243616Y-80777344D01*
X153241697Y-80778823D01*
X153238815Y-80781705D01*
X153237006Y-80785668D01*
X153211906Y-80801798D01*
X153188288Y-80820013D01*
X153181612Y-80821266D01*
X153178228Y-80823442D01*
X153143293Y-80828465D01*
X152974577Y-80828465D01*
X152907538Y-80808780D01*
X152886896Y-80792146D01*
X152799061Y-80704311D01*
X152799058Y-80704309D01*
X152799056Y-80704307D01*
X152680725Y-80644014D01*
X152680724Y-80644013D01*
X152680721Y-80644012D01*
X152680722Y-80644012D01*
X152582556Y-80628465D01*
X152582551Y-80628465D01*
X152004059Y-80628465D01*
X152004054Y-80628465D01*
X151905887Y-80644012D01*
X151834401Y-80680437D01*
X151787554Y-80704307D01*
X151787553Y-80704308D01*
X151787548Y-80704311D01*
X151693651Y-80798208D01*
X151693648Y-80798213D01*
X151693647Y-80798214D01*
X151680793Y-80823442D01*
X151633352Y-80916547D01*
X151617805Y-81014713D01*
X151617805Y-81518216D01*
X151633352Y-81616382D01*
X151633354Y-81616385D01*
X151693647Y-81734716D01*
X151787554Y-81828623D01*
X151787556Y-81828624D01*
X151787557Y-81828625D01*
X151791690Y-81831628D01*
X151834356Y-81886958D01*
X151842805Y-81931946D01*
X151842805Y-83387177D01*
X151823120Y-83454216D01*
X151806486Y-83474858D01*
X151562181Y-83719163D01*
X151500858Y-83752648D01*
X151431166Y-83747664D01*
X151375233Y-83705792D01*
X151350816Y-83640328D01*
X151350500Y-83631482D01*
X151350500Y-83527527D01*
X151350500Y-83527525D01*
X151312984Y-83387515D01*
X151240509Y-83261985D01*
X151138015Y-83159491D01*
X151138013Y-83159490D01*
X151138011Y-83159488D01*
X151012488Y-83087017D01*
X151012489Y-83087017D01*
X151000057Y-83083686D01*
X150872475Y-83049500D01*
X150727525Y-83049500D01*
X150727522Y-83049500D01*
X150724736Y-83050247D01*
X150722296Y-83050188D01*
X150719469Y-83050561D01*
X150719410Y-83050119D01*
X150654886Y-83048578D01*
X150597027Y-83009410D01*
X150569529Y-82945179D01*
X150577051Y-82890578D01*
X150576202Y-82890351D01*
X150578015Y-82883584D01*
X150578094Y-82883012D01*
X150578300Y-82882510D01*
X150578306Y-82882501D01*
X150615822Y-82742491D01*
X150615822Y-82597541D01*
X150578306Y-82457531D01*
X150555196Y-82417504D01*
X150505833Y-82332004D01*
X150505828Y-82331998D01*
X150497891Y-82324061D01*
X150493552Y-82316115D01*
X150486305Y-82310690D01*
X150477070Y-82285930D01*
X150464406Y-82262738D01*
X150465051Y-82253708D01*
X150461888Y-82245226D01*
X150467504Y-82219405D01*
X150469390Y-82193046D01*
X150475208Y-82183992D01*
X150476740Y-82176953D01*
X150497888Y-82148702D01*
X150659771Y-81986818D01*
X150721094Y-81953334D01*
X150747452Y-81950500D01*
X150872472Y-81950500D01*
X150872475Y-81950500D01*
X151012485Y-81912984D01*
X151138015Y-81840509D01*
X151240509Y-81738015D01*
X151312984Y-81612485D01*
X151350500Y-81472475D01*
X151350500Y-81327525D01*
X151312984Y-81187515D01*
X151240509Y-81061985D01*
X151138015Y-80959491D01*
X151138013Y-80959490D01*
X151138011Y-80959488D01*
X151012488Y-80887017D01*
X151012489Y-80887017D01*
X151001006Y-80883940D01*
X150872475Y-80849500D01*
X150727525Y-80849500D01*
X150598993Y-80883940D01*
X150587511Y-80887017D01*
X150461988Y-80959488D01*
X150461982Y-80959493D01*
X150359493Y-81061982D01*
X150359488Y-81061988D01*
X150287017Y-81187511D01*
X150287016Y-81187515D01*
X150249500Y-81327525D01*
X150249500Y-81327527D01*
X150249500Y-81354365D01*
X150240855Y-81383805D01*
X150234332Y-81413792D01*
X150230577Y-81418807D01*
X150229815Y-81421404D01*
X150213181Y-81442046D01*
X150172026Y-81483201D01*
X150110703Y-81516686D01*
X150084345Y-81519520D01*
X149581106Y-81519520D01*
X149493188Y-81543076D01*
X149493189Y-81543077D01*
X149491962Y-81543405D01*
X149491961Y-81543406D01*
X149412041Y-81589547D01*
X149412036Y-81589551D01*
X148541929Y-82459658D01*
X148541925Y-82459664D01*
X148498586Y-82534728D01*
X148496967Y-82537533D01*
X148495782Y-82539586D01*
X148495781Y-82539588D01*
X148471897Y-82628729D01*
X148471897Y-85603383D01*
X148452212Y-85670422D01*
X148435578Y-85691064D01*
X148063183Y-86063458D01*
X148063177Y-86063465D01*
X148024270Y-86121694D01*
X148024267Y-86121702D01*
X148005991Y-86213583D01*
X147630619Y-86213583D01*
X147612342Y-86121702D01*
X147612341Y-86121700D01*
X147612341Y-86121698D01*
X147612339Y-86121696D01*
X147612339Y-86121694D01*
X147573432Y-86063465D01*
X147573426Y-86063458D01*
X147151032Y-85641064D01*
X147117547Y-85579741D01*
X147114713Y-85553383D01*
X147114713Y-83258890D01*
X147134398Y-83191851D01*
X147151032Y-83171209D01*
X150882528Y-79439713D01*
X151617805Y-79439713D01*
X151617805Y-79943216D01*
X151633352Y-80041382D01*
X151633354Y-80041385D01*
X151693647Y-80159716D01*
X151693649Y-80159718D01*
X151693651Y-80159721D01*
X151787548Y-80253618D01*
X151787550Y-80253619D01*
X151787554Y-80253623D01*
X151905885Y-80313916D01*
X151905886Y-80313916D01*
X151905888Y-80313917D01*
X151905887Y-80313917D01*
X152004054Y-80329465D01*
X152004059Y-80329465D01*
X152582556Y-80329465D01*
X152680722Y-80313917D01*
X152680723Y-80313916D01*
X152680725Y-80313916D01*
X152799056Y-80253623D01*
X152813276Y-80239403D01*
X152886896Y-80165784D01*
X152913823Y-80151080D01*
X152939642Y-80134488D01*
X152945842Y-80133596D01*
X152948219Y-80132299D01*
X152974577Y-80129465D01*
X153143293Y-80129465D01*
X153210332Y-80149150D01*
X153243616Y-80180586D01*
X153244781Y-80182190D01*
X153340079Y-80277488D01*
X153340083Y-80277491D01*
X153340085Y-80277493D01*
X153460179Y-80338684D01*
X153460181Y-80338684D01*
X153460183Y-80338685D01*
X153559812Y-80354465D01*
X153559817Y-80354465D01*
X154076798Y-80354465D01*
X154176426Y-80338685D01*
X154176426Y-80338684D01*
X154176431Y-80338684D01*
X154296525Y-80277493D01*
X154391833Y-80182185D01*
X154453024Y-80062091D01*
X154456236Y-80041813D01*
X154468805Y-79962458D01*
X154468805Y-79395472D01*
X154459314Y-79335553D01*
X154468268Y-79266260D01*
X154513264Y-79212807D01*
X154519773Y-79208775D01*
X154638015Y-79140509D01*
X154740509Y-79038015D01*
X154812984Y-78912485D01*
X154850500Y-78772475D01*
X154850500Y-78627525D01*
X154812984Y-78487515D01*
X154740509Y-78361985D01*
X154638015Y-78259491D01*
X154638013Y-78259490D01*
X154638011Y-78259488D01*
X154512488Y-78187017D01*
X154512489Y-78187017D01*
X154501006Y-78183940D01*
X154372475Y-78149500D01*
X154227525Y-78149500D01*
X154098993Y-78183940D01*
X154087511Y-78187017D01*
X153961988Y-78259488D01*
X153961982Y-78259493D01*
X153859493Y-78361982D01*
X153859488Y-78361988D01*
X153787017Y-78487511D01*
X153787015Y-78487516D01*
X153763269Y-78576132D01*
X153731177Y-78631717D01*
X153457815Y-78905082D01*
X153457814Y-78905084D01*
X153390344Y-79021945D01*
X153389361Y-79021377D01*
X153366091Y-79060998D01*
X153352675Y-79074021D01*
X153340085Y-79080437D01*
X153244777Y-79175745D01*
X153241730Y-79181724D01*
X153229665Y-79193437D01*
X153207827Y-79204944D01*
X153188288Y-79220013D01*
X153174213Y-79222656D01*
X153167852Y-79226009D01*
X153159987Y-79225329D01*
X153143293Y-79228465D01*
X152949576Y-79228465D01*
X152882537Y-79208780D01*
X152861899Y-79192150D01*
X152799056Y-79129307D01*
X152680725Y-79069014D01*
X152680724Y-79069013D01*
X152680721Y-79069012D01*
X152680722Y-79069012D01*
X152582556Y-79053465D01*
X152582551Y-79053465D01*
X152004059Y-79053465D01*
X152004054Y-79053465D01*
X151905887Y-79069012D01*
X151826997Y-79109209D01*
X151787554Y-79129307D01*
X151787553Y-79129308D01*
X151787548Y-79129311D01*
X151693651Y-79223208D01*
X151693648Y-79223213D01*
X151693647Y-79223214D01*
X151686646Y-79236955D01*
X151633352Y-79341547D01*
X151617805Y-79439713D01*
X150882528Y-79439713D01*
X150975075Y-79347166D01*
X151960259Y-78361982D01*
X152998765Y-77323476D01*
X153038327Y-77254953D01*
X153058805Y-77178527D01*
X153058805Y-77099403D01*
X153058805Y-76974400D01*
X153078490Y-76907361D01*
X153131294Y-76861606D01*
X153135317Y-76859854D01*
X153255903Y-76809906D01*
X153427960Y-76694942D01*
X153574282Y-76548620D01*
X153689246Y-76376563D01*
X153768435Y-76185385D01*
X153808805Y-75982430D01*
X153808805Y-75775500D01*
X153808804Y-75775495D01*
X156787805Y-75775495D01*
X156787805Y-75982434D01*
X156790714Y-75997057D01*
X156828175Y-76185385D01*
X156907364Y-76376563D01*
X156964846Y-76462591D01*
X157022329Y-76548622D01*
X157168647Y-76694940D01*
X157168650Y-76694942D01*
X157340707Y-76809906D01*
X157531885Y-76889095D01*
X157702243Y-76922981D01*
X157734835Y-76929464D01*
X157734839Y-76929465D01*
X157734840Y-76929465D01*
X157941771Y-76929465D01*
X157941772Y-76929464D01*
X158144725Y-76889095D01*
X158335903Y-76809906D01*
X158507960Y-76694942D01*
X158654282Y-76548620D01*
X158769246Y-76376563D01*
X158848435Y-76185385D01*
X158888805Y-75982430D01*
X158888805Y-75775500D01*
X158888804Y-75775495D01*
X159327805Y-75775495D01*
X159327805Y-75982434D01*
X159330714Y-75997057D01*
X159368175Y-76185385D01*
X159447364Y-76376563D01*
X159504846Y-76462591D01*
X159562329Y-76548622D01*
X159708647Y-76694940D01*
X159708650Y-76694942D01*
X159880707Y-76809906D01*
X160071885Y-76889095D01*
X160242243Y-76922981D01*
X160274835Y-76929464D01*
X160274839Y-76929465D01*
X160274840Y-76929465D01*
X160481771Y-76929465D01*
X160481772Y-76929464D01*
X160684725Y-76889095D01*
X160875903Y-76809906D01*
X161047960Y-76694942D01*
X161194282Y-76548620D01*
X161309246Y-76376563D01*
X161388435Y-76185385D01*
X161428805Y-75982430D01*
X161428805Y-75775500D01*
X161428804Y-75775495D01*
X161867805Y-75775495D01*
X161867805Y-75982434D01*
X161870714Y-75997057D01*
X161908175Y-76185385D01*
X161987364Y-76376563D01*
X162044846Y-76462591D01*
X162102329Y-76548622D01*
X162248647Y-76694940D01*
X162248650Y-76694942D01*
X162420707Y-76809906D01*
X162611885Y-76889095D01*
X162782243Y-76922981D01*
X162814835Y-76929464D01*
X162814839Y-76929465D01*
X162814840Y-76929465D01*
X163021771Y-76929465D01*
X163021772Y-76929464D01*
X163224725Y-76889095D01*
X163415903Y-76809906D01*
X163587960Y-76694942D01*
X163734282Y-76548620D01*
X163849246Y-76376563D01*
X163928435Y-76185385D01*
X163968805Y-75982430D01*
X163968805Y-75775500D01*
X163968804Y-75775495D01*
X164407805Y-75775495D01*
X164407805Y-75982434D01*
X164410714Y-75997057D01*
X164448175Y-76185385D01*
X164527364Y-76376563D01*
X164584846Y-76462591D01*
X164642329Y-76548622D01*
X164788647Y-76694940D01*
X164788650Y-76694942D01*
X164960707Y-76809906D01*
X165151885Y-76889095D01*
X165322243Y-76922981D01*
X165354835Y-76929464D01*
X165354839Y-76929465D01*
X165354840Y-76929465D01*
X165561771Y-76929465D01*
X165561772Y-76929464D01*
X165764725Y-76889095D01*
X165955903Y-76809906D01*
X166127960Y-76694942D01*
X166274282Y-76548620D01*
X166389246Y-76376563D01*
X166468435Y-76185385D01*
X166508805Y-75982430D01*
X166508805Y-75775500D01*
X166508804Y-75775495D01*
X166947805Y-75775495D01*
X166947805Y-75982434D01*
X166950714Y-75997057D01*
X166988175Y-76185385D01*
X167067364Y-76376563D01*
X167124846Y-76462591D01*
X167182329Y-76548622D01*
X167328647Y-76694940D01*
X167328650Y-76694942D01*
X167500707Y-76809906D01*
X167691885Y-76889095D01*
X167862243Y-76922981D01*
X167894835Y-76929464D01*
X167894839Y-76929465D01*
X167894840Y-76929465D01*
X168101771Y-76929465D01*
X168101772Y-76929464D01*
X168304725Y-76889095D01*
X168495903Y-76809906D01*
X168667960Y-76694942D01*
X168814282Y-76548620D01*
X168929246Y-76376563D01*
X169008435Y-76185385D01*
X169048805Y-75982430D01*
X169048805Y-75775500D01*
X169048804Y-75775495D01*
X169487805Y-75775495D01*
X169487805Y-75982434D01*
X169490714Y-75997057D01*
X169528175Y-76185385D01*
X169607364Y-76376563D01*
X169664846Y-76462591D01*
X169722329Y-76548622D01*
X169868647Y-76694940D01*
X169868650Y-76694942D01*
X170040707Y-76809906D01*
X170231885Y-76889095D01*
X170402243Y-76922981D01*
X170434835Y-76929464D01*
X170434839Y-76929465D01*
X170434840Y-76929465D01*
X170641771Y-76929465D01*
X170641772Y-76929464D01*
X170844725Y-76889095D01*
X171035903Y-76809906D01*
X171207960Y-76694942D01*
X171354282Y-76548620D01*
X171469246Y-76376563D01*
X171548435Y-76185385D01*
X171588805Y-75982430D01*
X171588805Y-75775500D01*
X171588804Y-75775495D01*
X172027805Y-75775495D01*
X172027805Y-75982434D01*
X172030714Y-75997057D01*
X172068175Y-76185385D01*
X172147364Y-76376563D01*
X172204846Y-76462591D01*
X172262329Y-76548622D01*
X172408647Y-76694940D01*
X172408650Y-76694942D01*
X172580707Y-76809906D01*
X172771885Y-76889095D01*
X172942243Y-76922981D01*
X172974835Y-76929464D01*
X172974839Y-76929465D01*
X172974840Y-76929465D01*
X173181771Y-76929465D01*
X173181772Y-76929464D01*
X173384725Y-76889095D01*
X173575903Y-76809906D01*
X173747960Y-76694942D01*
X173894282Y-76548620D01*
X174009246Y-76376563D01*
X174088435Y-76185385D01*
X174128805Y-75982430D01*
X174128805Y-75775500D01*
X174125894Y-75760867D01*
X178817805Y-75760867D01*
X178817805Y-75997062D01*
X178854751Y-76230333D01*
X178927738Y-76454961D01*
X179034962Y-76665398D01*
X179173788Y-76856475D01*
X179340795Y-77023482D01*
X179531872Y-77162308D01*
X179563700Y-77178525D01*
X179742308Y-77269531D01*
X179742310Y-77269531D01*
X179742313Y-77269533D01*
X179807806Y-77290813D01*
X179966936Y-77342518D01*
X180200208Y-77379465D01*
X180200213Y-77379465D01*
X180436402Y-77379465D01*
X180669673Y-77342518D01*
X180679260Y-77339403D01*
X180894297Y-77269533D01*
X181104738Y-77162308D01*
X181295815Y-77023482D01*
X181462822Y-76856475D01*
X181601648Y-76665398D01*
X181708873Y-76454957D01*
X181781858Y-76230333D01*
X181788978Y-76185377D01*
X181818805Y-75997062D01*
X181818805Y-75760867D01*
X181781858Y-75527596D01*
X181743238Y-75408737D01*
X181708873Y-75302973D01*
X181708871Y-75302970D01*
X181708871Y-75302968D01*
X181619455Y-75127481D01*
X181601648Y-75092532D01*
X181462822Y-74901455D01*
X181295815Y-74734448D01*
X181104738Y-74595622D01*
X181103929Y-74595210D01*
X180894301Y-74488398D01*
X180669673Y-74415411D01*
X180436402Y-74378465D01*
X180436397Y-74378465D01*
X180200213Y-74378465D01*
X180200208Y-74378465D01*
X179966936Y-74415411D01*
X179742308Y-74488398D01*
X179531871Y-74595622D01*
X179422855Y-74674827D01*
X179340795Y-74734448D01*
X179340793Y-74734450D01*
X179340792Y-74734450D01*
X179173790Y-74901452D01*
X179173790Y-74901453D01*
X179173788Y-74901455D01*
X179139954Y-74948023D01*
X179034962Y-75092531D01*
X178927738Y-75302968D01*
X178854751Y-75527596D01*
X178817805Y-75760867D01*
X174125894Y-75760867D01*
X174088436Y-75572552D01*
X174088435Y-75572545D01*
X174009246Y-75381367D01*
X173894282Y-75209310D01*
X173894280Y-75209307D01*
X173747962Y-75062989D01*
X173661931Y-75005506D01*
X173575903Y-74948024D01*
X173463471Y-74901453D01*
X173384725Y-74868835D01*
X173384717Y-74868833D01*
X173181774Y-74828465D01*
X173181770Y-74828465D01*
X172974840Y-74828465D01*
X172974835Y-74828465D01*
X172771892Y-74868833D01*
X172771884Y-74868835D01*
X172580708Y-74948023D01*
X172408647Y-75062989D01*
X172262329Y-75209307D01*
X172147363Y-75381368D01*
X172068175Y-75572544D01*
X172068173Y-75572552D01*
X172027805Y-75775495D01*
X171588804Y-75775495D01*
X171548435Y-75572545D01*
X171469246Y-75381367D01*
X171354282Y-75209310D01*
X171354280Y-75209307D01*
X171207962Y-75062989D01*
X171121931Y-75005506D01*
X171035903Y-74948024D01*
X170923471Y-74901453D01*
X170844725Y-74868835D01*
X170844717Y-74868833D01*
X170641774Y-74828465D01*
X170641770Y-74828465D01*
X170434840Y-74828465D01*
X170434835Y-74828465D01*
X170231892Y-74868833D01*
X170231884Y-74868835D01*
X170040708Y-74948023D01*
X169868647Y-75062989D01*
X169722329Y-75209307D01*
X169607363Y-75381368D01*
X169528175Y-75572544D01*
X169528173Y-75572552D01*
X169487805Y-75775495D01*
X169048804Y-75775495D01*
X169008435Y-75572545D01*
X168929246Y-75381367D01*
X168814282Y-75209310D01*
X168814280Y-75209307D01*
X168667962Y-75062989D01*
X168581931Y-75005506D01*
X168495903Y-74948024D01*
X168383471Y-74901453D01*
X168304725Y-74868835D01*
X168304717Y-74868833D01*
X168101774Y-74828465D01*
X168101770Y-74828465D01*
X167894840Y-74828465D01*
X167894835Y-74828465D01*
X167691892Y-74868833D01*
X167691884Y-74868835D01*
X167500708Y-74948023D01*
X167328647Y-75062989D01*
X167182329Y-75209307D01*
X167067363Y-75381368D01*
X166988175Y-75572544D01*
X166988173Y-75572552D01*
X166947805Y-75775495D01*
X166508804Y-75775495D01*
X166468435Y-75572545D01*
X166389246Y-75381367D01*
X166274282Y-75209310D01*
X166274280Y-75209307D01*
X166127962Y-75062989D01*
X166041931Y-75005506D01*
X165955903Y-74948024D01*
X165843471Y-74901453D01*
X165764725Y-74868835D01*
X165764717Y-74868833D01*
X165561774Y-74828465D01*
X165561770Y-74828465D01*
X165354840Y-74828465D01*
X165354835Y-74828465D01*
X165151892Y-74868833D01*
X165151884Y-74868835D01*
X164960708Y-74948023D01*
X164788647Y-75062989D01*
X164642329Y-75209307D01*
X164527363Y-75381368D01*
X164448175Y-75572544D01*
X164448173Y-75572552D01*
X164407805Y-75775495D01*
X163968804Y-75775495D01*
X163928435Y-75572545D01*
X163849246Y-75381367D01*
X163734282Y-75209310D01*
X163734280Y-75209307D01*
X163587962Y-75062989D01*
X163501931Y-75005506D01*
X163415903Y-74948024D01*
X163303471Y-74901453D01*
X163224725Y-74868835D01*
X163224717Y-74868833D01*
X163021774Y-74828465D01*
X163021770Y-74828465D01*
X162814840Y-74828465D01*
X162814835Y-74828465D01*
X162611892Y-74868833D01*
X162611884Y-74868835D01*
X162420708Y-74948023D01*
X162248647Y-75062989D01*
X162102329Y-75209307D01*
X161987363Y-75381368D01*
X161908175Y-75572544D01*
X161908173Y-75572552D01*
X161867805Y-75775495D01*
X161428804Y-75775495D01*
X161388435Y-75572545D01*
X161309246Y-75381367D01*
X161194282Y-75209310D01*
X161194280Y-75209307D01*
X161047962Y-75062989D01*
X160961931Y-75005506D01*
X160875903Y-74948024D01*
X160763471Y-74901453D01*
X160684725Y-74868835D01*
X160684717Y-74868833D01*
X160481774Y-74828465D01*
X160481770Y-74828465D01*
X160274840Y-74828465D01*
X160274835Y-74828465D01*
X160071892Y-74868833D01*
X160071884Y-74868835D01*
X159880708Y-74948023D01*
X159708647Y-75062989D01*
X159562329Y-75209307D01*
X159447363Y-75381368D01*
X159368175Y-75572544D01*
X159368173Y-75572552D01*
X159327805Y-75775495D01*
X158888804Y-75775495D01*
X158848435Y-75572545D01*
X158769246Y-75381367D01*
X158654282Y-75209310D01*
X158654280Y-75209307D01*
X158507962Y-75062989D01*
X158421931Y-75005506D01*
X158335903Y-74948024D01*
X158223471Y-74901453D01*
X158144725Y-74868835D01*
X158144717Y-74868833D01*
X157941774Y-74828465D01*
X157941770Y-74828465D01*
X157734840Y-74828465D01*
X157734835Y-74828465D01*
X157531892Y-74868833D01*
X157531884Y-74868835D01*
X157340708Y-74948023D01*
X157168647Y-75062989D01*
X157022329Y-75209307D01*
X156907363Y-75381368D01*
X156828175Y-75572544D01*
X156828173Y-75572552D01*
X156787805Y-75775495D01*
X153808804Y-75775495D01*
X153768435Y-75572545D01*
X153689246Y-75381367D01*
X153574282Y-75209310D01*
X153574280Y-75209307D01*
X153427962Y-75062989D01*
X153341931Y-75005506D01*
X153255903Y-74948024D01*
X153143471Y-74901453D01*
X153064725Y-74868835D01*
X153064717Y-74868833D01*
X152861774Y-74828465D01*
X152861770Y-74828465D01*
X152654840Y-74828465D01*
X152654835Y-74828465D01*
X152451892Y-74868833D01*
X152451884Y-74868835D01*
X152260708Y-74948023D01*
X152088647Y-75062989D01*
X151942329Y-75209307D01*
X151827363Y-75381368D01*
X151748175Y-75572544D01*
X151748173Y-75572552D01*
X151707805Y-75775495D01*
X151707805Y-75982434D01*
X151710714Y-75997057D01*
X151748175Y-76185385D01*
X151827364Y-76376563D01*
X151884846Y-76462591D01*
X151942329Y-76548622D01*
X152088647Y-76694940D01*
X152088650Y-76694942D01*
X152260707Y-76809906D01*
X152373289Y-76856539D01*
X152427692Y-76900380D01*
X152449757Y-76966674D01*
X152432478Y-77034373D01*
X152413517Y-77058781D01*
X146629702Y-82842597D01*
X146573754Y-82898544D01*
X146573748Y-82898552D01*
X146534195Y-82967061D01*
X146534192Y-82967066D01*
X146513713Y-83043496D01*
X146513713Y-84845380D01*
X146494028Y-84912419D01*
X146441224Y-84958174D01*
X146408096Y-84968010D01*
X146391803Y-84970452D01*
X146386413Y-84969380D01*
X146348042Y-84977012D01*
X146345118Y-84977451D01*
X146313311Y-84973072D01*
X146281334Y-84970210D01*
X146278924Y-84968338D01*
X146275901Y-84967922D01*
X146251510Y-84947042D01*
X146226157Y-84927347D01*
X146225141Y-84924469D01*
X146222824Y-84922485D01*
X146213592Y-84891730D01*
X146202913Y-84861457D01*
X146202756Y-84855630D01*
X146202737Y-84855565D01*
X146202753Y-84855507D01*
X146202735Y-84854821D01*
X146202735Y-81870868D01*
X146222420Y-81803829D01*
X146239054Y-81783187D01*
X148283736Y-79738505D01*
X150458765Y-77563476D01*
X150498327Y-77494953D01*
X150518805Y-77418527D01*
X150518805Y-77339403D01*
X150518805Y-76974400D01*
X150538490Y-76907361D01*
X150591294Y-76861606D01*
X150595317Y-76859854D01*
X150715903Y-76809906D01*
X150887960Y-76694942D01*
X151034282Y-76548620D01*
X151149246Y-76376563D01*
X151228435Y-76185385D01*
X151268805Y-75982430D01*
X151268805Y-75775500D01*
X151228435Y-75572545D01*
X151149246Y-75381367D01*
X151034282Y-75209310D01*
X151034280Y-75209307D01*
X150887962Y-75062989D01*
X150801931Y-75005506D01*
X150715903Y-74948024D01*
X150603471Y-74901453D01*
X150524725Y-74868835D01*
X150524717Y-74868833D01*
X150321774Y-74828465D01*
X150321770Y-74828465D01*
X150114840Y-74828465D01*
X150114835Y-74828465D01*
X149911892Y-74868833D01*
X149911884Y-74868835D01*
X149720708Y-74948023D01*
X149548647Y-75062989D01*
X149402329Y-75209307D01*
X149287363Y-75381368D01*
X149208175Y-75572544D01*
X149208173Y-75572552D01*
X149167805Y-75775495D01*
X149167805Y-75982434D01*
X149170714Y-75997057D01*
X149208175Y-76185385D01*
X149287364Y-76376563D01*
X149344846Y-76462591D01*
X149402329Y-76548622D01*
X149548647Y-76694940D01*
X149548650Y-76694942D01*
X149720707Y-76809906D01*
X149841258Y-76859840D01*
X149856822Y-76872381D01*
X149875008Y-76880687D01*
X149883471Y-76893856D01*
X149895661Y-76903679D01*
X149901974Y-76922648D01*
X149912782Y-76939465D01*
X149916744Y-76967024D01*
X149917726Y-76969973D01*
X149917805Y-76974400D01*
X149917805Y-77203132D01*
X149898120Y-77270171D01*
X149881486Y-77290813D01*
X145730486Y-81441813D01*
X145669163Y-81475298D01*
X145599471Y-81470314D01*
X145543538Y-81428442D01*
X145519121Y-81362978D01*
X145518805Y-81354132D01*
X145518805Y-80454798D01*
X145538490Y-80387759D01*
X145555124Y-80367117D01*
X146730095Y-79192146D01*
X147918765Y-78003476D01*
X147941859Y-77963476D01*
X147958326Y-77934954D01*
X147978805Y-77858527D01*
X147978805Y-76974400D01*
X147998490Y-76907361D01*
X148051294Y-76861606D01*
X148055317Y-76859854D01*
X148175903Y-76809906D01*
X148347960Y-76694942D01*
X148494282Y-76548620D01*
X148609246Y-76376563D01*
X148688435Y-76185385D01*
X148728805Y-75982430D01*
X148728805Y-75775500D01*
X148688435Y-75572545D01*
X148609246Y-75381367D01*
X148494282Y-75209310D01*
X148494280Y-75209307D01*
X148347962Y-75062989D01*
X148261931Y-75005506D01*
X148175903Y-74948024D01*
X148063471Y-74901453D01*
X147984725Y-74868835D01*
X147984717Y-74868833D01*
X147781774Y-74828465D01*
X147781770Y-74828465D01*
X147574840Y-74828465D01*
X147574835Y-74828465D01*
X147371892Y-74868833D01*
X147371884Y-74868835D01*
X147180708Y-74948023D01*
X147008647Y-75062989D01*
X146862329Y-75209307D01*
X146747363Y-75381368D01*
X146668175Y-75572544D01*
X146668173Y-75572552D01*
X146627805Y-75775495D01*
X146627805Y-75982434D01*
X146630714Y-75997057D01*
X146668175Y-76185385D01*
X146747364Y-76376563D01*
X146804846Y-76462591D01*
X146862329Y-76548622D01*
X147008647Y-76694940D01*
X147008650Y-76694942D01*
X147180707Y-76809906D01*
X147301258Y-76859840D01*
X147355661Y-76903679D01*
X147377726Y-76969973D01*
X147377805Y-76974400D01*
X147377805Y-77643132D01*
X147358120Y-77710171D01*
X147341486Y-77730813D01*
X145030486Y-80041813D01*
X144969163Y-80075298D01*
X144899471Y-80070314D01*
X144843538Y-80028442D01*
X144819121Y-79962978D01*
X144818805Y-79954132D01*
X144818805Y-78454798D01*
X144838490Y-78387759D01*
X144855124Y-78367117D01*
X145072741Y-78149500D01*
X145378765Y-77843476D01*
X145393169Y-77818527D01*
X145415755Y-77779408D01*
X145415759Y-77779399D01*
X145418326Y-77774954D01*
X145438805Y-77698527D01*
X145438805Y-76974400D01*
X145458490Y-76907361D01*
X145511294Y-76861606D01*
X145515317Y-76859854D01*
X145635903Y-76809906D01*
X145807960Y-76694942D01*
X145954282Y-76548620D01*
X146069246Y-76376563D01*
X146148435Y-76185385D01*
X146188805Y-75982430D01*
X146188805Y-75775500D01*
X146148435Y-75572545D01*
X146069246Y-75381367D01*
X145954282Y-75209310D01*
X145954280Y-75209307D01*
X145807962Y-75062989D01*
X145721931Y-75005506D01*
X145635903Y-74948024D01*
X145523471Y-74901453D01*
X145444725Y-74868835D01*
X145444717Y-74868833D01*
X145241774Y-74828465D01*
X145241770Y-74828465D01*
X145034840Y-74828465D01*
X145034835Y-74828465D01*
X144831892Y-74868833D01*
X144831884Y-74868835D01*
X144640708Y-74948023D01*
X144468647Y-75062989D01*
X144322329Y-75209307D01*
X144207363Y-75381368D01*
X144128175Y-75572544D01*
X144128173Y-75572552D01*
X144087805Y-75775495D01*
X144087805Y-75982434D01*
X144090714Y-75997057D01*
X144128175Y-76185385D01*
X144207364Y-76376563D01*
X144264846Y-76462591D01*
X144322329Y-76548622D01*
X144468647Y-76694940D01*
X144468650Y-76694942D01*
X144640707Y-76809906D01*
X144761258Y-76859840D01*
X144815661Y-76903679D01*
X144837726Y-76969973D01*
X144837805Y-76974400D01*
X144837805Y-77483132D01*
X144818120Y-77550171D01*
X144801486Y-77570813D01*
X144277846Y-78094452D01*
X144277840Y-78094460D01*
X144238287Y-78162969D01*
X144238284Y-78162974D01*
X144217805Y-78239404D01*
X144217805Y-78654132D01*
X144198120Y-78721171D01*
X144145316Y-78766926D01*
X144076158Y-78776870D01*
X144012602Y-78747845D01*
X144006124Y-78741813D01*
X142935124Y-77670813D01*
X142901639Y-77609490D01*
X142898805Y-77583132D01*
X142898805Y-76974400D01*
X142918490Y-76907361D01*
X142971294Y-76861606D01*
X142975317Y-76859854D01*
X143095903Y-76809906D01*
X143267960Y-76694942D01*
X143414282Y-76548620D01*
X143529246Y-76376563D01*
X143608435Y-76185385D01*
X143648805Y-75982430D01*
X143648805Y-75775500D01*
X143608435Y-75572545D01*
X143529246Y-75381367D01*
X143414282Y-75209310D01*
X143414280Y-75209307D01*
X143267962Y-75062989D01*
X143181931Y-75005506D01*
X143095903Y-74948024D01*
X142983471Y-74901453D01*
X142904725Y-74868835D01*
X142904717Y-74868833D01*
X142701774Y-74828465D01*
X142701770Y-74828465D01*
X142494840Y-74828465D01*
X142494835Y-74828465D01*
X142291892Y-74868833D01*
X142291884Y-74868835D01*
X142100708Y-74948023D01*
X141928647Y-75062989D01*
X141782329Y-75209307D01*
X141667363Y-75381368D01*
X141588175Y-75572544D01*
X141588173Y-75572552D01*
X141547805Y-75775495D01*
X141547805Y-75982434D01*
X141550714Y-75997057D01*
X141588175Y-76185385D01*
X141667364Y-76376563D01*
X141724846Y-76462591D01*
X141782329Y-76548622D01*
X141928647Y-76694940D01*
X141928650Y-76694942D01*
X142100707Y-76809906D01*
X142221258Y-76859840D01*
X142275661Y-76903679D01*
X142297726Y-76969973D01*
X142297805Y-76974400D01*
X142297805Y-77798527D01*
X142309850Y-77843477D01*
X142318284Y-77874954D01*
X142352925Y-77934955D01*
X142357846Y-77943477D01*
X142357846Y-77943478D01*
X143581486Y-79167117D01*
X143596189Y-79194044D01*
X143612782Y-79219863D01*
X143613673Y-79226063D01*
X143614971Y-79228440D01*
X143617805Y-79254798D01*
X143617805Y-79454132D01*
X143598120Y-79521171D01*
X143545316Y-79566926D01*
X143476158Y-79576870D01*
X143412602Y-79547845D01*
X143406124Y-79541813D01*
X141555124Y-77690813D01*
X141521639Y-77629490D01*
X141518805Y-77603132D01*
X141518805Y-76999405D01*
X141518805Y-76999403D01*
X141500065Y-76929465D01*
X141500065Y-76929464D01*
X141500065Y-76929463D01*
X141498328Y-76922981D01*
X141498327Y-76922977D01*
X141458765Y-76854454D01*
X141045380Y-76441069D01*
X141011895Y-76379746D01*
X141016879Y-76310054D01*
X141018468Y-76306014D01*
X141068435Y-76185385D01*
X141108805Y-75982430D01*
X141108805Y-75775500D01*
X141068435Y-75572545D01*
X140989246Y-75381367D01*
X140874282Y-75209310D01*
X140874280Y-75209307D01*
X140727962Y-75062989D01*
X140641931Y-75005506D01*
X140555903Y-74948024D01*
X140443471Y-74901453D01*
X140364725Y-74868835D01*
X140364717Y-74868833D01*
X140161774Y-74828465D01*
X140161770Y-74828465D01*
X139954840Y-74828465D01*
X139954835Y-74828465D01*
X139751892Y-74868833D01*
X139751884Y-74868835D01*
X139560708Y-74948023D01*
X139388647Y-75062989D01*
X139242329Y-75209307D01*
X139127363Y-75381368D01*
X139048175Y-75572544D01*
X139048173Y-75572552D01*
X139007805Y-75775495D01*
X139007805Y-75982434D01*
X139010714Y-75997057D01*
X139048175Y-76185385D01*
X139127364Y-76376563D01*
X139184846Y-76462591D01*
X139242329Y-76548622D01*
X139388647Y-76694940D01*
X139388650Y-76694942D01*
X139560707Y-76809906D01*
X139751885Y-76889095D01*
X139922243Y-76922981D01*
X139954835Y-76929464D01*
X139954839Y-76929465D01*
X139954840Y-76929465D01*
X140161771Y-76929465D01*
X140161772Y-76929464D01*
X140364725Y-76889095D01*
X140485279Y-76839159D01*
X140554743Y-76831691D01*
X140617223Y-76862965D01*
X140620409Y-76866040D01*
X140881486Y-77127117D01*
X140914971Y-77188440D01*
X140917805Y-77214798D01*
X140917805Y-77818527D01*
X140928523Y-77858525D01*
X140938284Y-77894955D01*
X140949831Y-77914954D01*
X140961378Y-77934954D01*
X140977844Y-77963474D01*
X140977845Y-77963476D01*
X143081486Y-80067117D01*
X143114971Y-80128440D01*
X143117805Y-80154798D01*
X143117805Y-81254132D01*
X143098120Y-81321171D01*
X143045316Y-81366926D01*
X142976158Y-81376870D01*
X142912602Y-81347845D01*
X142906124Y-81341813D01*
X139255124Y-77690813D01*
X139221639Y-77629490D01*
X139218805Y-77603132D01*
X139218805Y-77239404D01*
X139202493Y-77178527D01*
X139198326Y-77162976D01*
X139177623Y-77127117D01*
X139158769Y-77094460D01*
X139158763Y-77094452D01*
X138505380Y-76441069D01*
X138471895Y-76379746D01*
X138476879Y-76310054D01*
X138478468Y-76306014D01*
X138528435Y-76185385D01*
X138568805Y-75982430D01*
X138568805Y-75775500D01*
X138528435Y-75572545D01*
X138449246Y-75381367D01*
X138334282Y-75209310D01*
X138334280Y-75209307D01*
X138187962Y-75062989D01*
X138101931Y-75005506D01*
X138015903Y-74948024D01*
X137903471Y-74901453D01*
X137824725Y-74868835D01*
X137824717Y-74868833D01*
X137621774Y-74828465D01*
X137621770Y-74828465D01*
X137414840Y-74828465D01*
X137414835Y-74828465D01*
X137211892Y-74868833D01*
X137211884Y-74868835D01*
X137020708Y-74948023D01*
X136848647Y-75062989D01*
X136702329Y-75209307D01*
X136587363Y-75381368D01*
X136508175Y-75572544D01*
X136508173Y-75572552D01*
X136467805Y-75775495D01*
X136467805Y-75982434D01*
X136470714Y-75997057D01*
X136508175Y-76185385D01*
X136587364Y-76376563D01*
X136644846Y-76462591D01*
X136702329Y-76548622D01*
X136848647Y-76694940D01*
X136848650Y-76694942D01*
X137020707Y-76809906D01*
X137211885Y-76889095D01*
X137382243Y-76922981D01*
X137414835Y-76929464D01*
X137414839Y-76929465D01*
X137414840Y-76929465D01*
X137621771Y-76929465D01*
X137621772Y-76929464D01*
X137824725Y-76889095D01*
X137945279Y-76839159D01*
X138014743Y-76831691D01*
X138077223Y-76862965D01*
X138080409Y-76866040D01*
X138581486Y-77367117D01*
X138614971Y-77428440D01*
X138617805Y-77454798D01*
X138617805Y-77818527D01*
X138628523Y-77858525D01*
X138638284Y-77894955D01*
X138649831Y-77914954D01*
X138661378Y-77934954D01*
X138677844Y-77963474D01*
X138677845Y-77963476D01*
X142681486Y-81967117D01*
X142714971Y-82028440D01*
X142717805Y-82054798D01*
X142717805Y-83754132D01*
X142698120Y-83821171D01*
X142645316Y-83866926D01*
X142576158Y-83876870D01*
X142512602Y-83847845D01*
X142506124Y-83841813D01*
X136355124Y-77690813D01*
X136321639Y-77629490D01*
X136318805Y-77603132D01*
X136318805Y-76879404D01*
X136314027Y-76861572D01*
X136298326Y-76802976D01*
X136298322Y-76802969D01*
X136258769Y-76734460D01*
X136258763Y-76734452D01*
X135965380Y-76441069D01*
X135931895Y-76379746D01*
X135936879Y-76310054D01*
X135938468Y-76306014D01*
X135988435Y-76185385D01*
X136028805Y-75982430D01*
X136028805Y-75775500D01*
X135988435Y-75572545D01*
X135909246Y-75381367D01*
X135794282Y-75209310D01*
X135794280Y-75209307D01*
X135647962Y-75062989D01*
X135561931Y-75005506D01*
X135475903Y-74948024D01*
X135363471Y-74901453D01*
X135284725Y-74868835D01*
X135284717Y-74868833D01*
X135081774Y-74828465D01*
X135081770Y-74828465D01*
X134874840Y-74828465D01*
X134874835Y-74828465D01*
X134671892Y-74868833D01*
X134671884Y-74868835D01*
X134480708Y-74948023D01*
X134308647Y-75062989D01*
X134162329Y-75209307D01*
X134047363Y-75381368D01*
X133968175Y-75572544D01*
X133968173Y-75572552D01*
X133927805Y-75775495D01*
X133488804Y-75775495D01*
X133448435Y-75572545D01*
X133418305Y-75499805D01*
X133418305Y-73379465D01*
X180252413Y-73379465D01*
X180314824Y-73379465D01*
X180321777Y-73379660D01*
G37*
%TD.AperFunction*%
%TA.AperFunction,Conductor*%
G36*
X134160511Y-94799150D02*
G01*
X134206266Y-94851954D01*
X134216210Y-94921112D01*
X134187185Y-94984668D01*
X134181153Y-94991146D01*
X133418305Y-95753994D01*
X133418305Y-94779465D01*
X134093472Y-94779465D01*
X134160511Y-94799150D01*
G37*
%TD.AperFunction*%
%TD*%
M02*
