%TF.GenerationSoftware,KiCad,Pcbnew,10.0.3*%
%TF.CreationDate,2026-08-05T11:00:14+03:00*%
%TF.ProjectId,STM32-Breakout-Board,53544d33-322d-4427-9265-616b6f75742d,rev?*%
%TF.SameCoordinates,Original*%
%TF.FileFunction,Paste,Top*%
%TF.FilePolarity,Positive*%
%FSLAX46Y46*%
G04 Gerber Fmt 4.6, Leading zero omitted, Abs format (unit mm)*
G04 Created by KiCad (PCBNEW 10.0.3) date 2026-08-05 11:00:14*
%MOMM*%
%LPD*%
G01*
G04 APERTURE LIST*
G04 Aperture macros list*
%AMRoundRect*
0 Rectangle with rounded corners*
0 $1 Rounding radius*
0 $2 $3 $4 $5 $6 $7 $8 $9 X,Y pos of 4 corners*
0 Add a 4 corners polygon primitive as box body*
4,1,4,$2,$3,$4,$5,$6,$7,$8,$9,$2,$3,0*
0 Add four circle primitives for the rounded corners*
1,1,$1+$1,$2,$3*
1,1,$1+$1,$4,$5*
1,1,$1+$1,$6,$7*
1,1,$1+$1,$8,$9*
0 Add four rect primitives between the rounded corners*
20,1,$1+$1,$2,$3,$4,$5,0*
20,1,$1+$1,$4,$5,$6,$7,0*
20,1,$1+$1,$6,$7,$8,$9,0*
20,1,$1+$1,$8,$9,$2,$3,0*%
G04 Aperture macros list end*
%ADD10RoundRect,0.140000X0.219203X0.021213X0.021213X0.219203X-0.219203X-0.021213X-0.021213X-0.219203X0*%
%ADD11RoundRect,0.112500X-0.537500X0.112500X-0.537500X-0.112500X0.537500X-0.112500X0.537500X0.112500X0*%
%ADD12RoundRect,0.140000X-0.219203X-0.021213X-0.021213X-0.219203X0.219203X0.021213X0.021213X0.219203X0*%
%ADD13RoundRect,0.140000X0.140000X0.170000X-0.140000X0.170000X-0.140000X-0.170000X0.140000X-0.170000X0*%
%ADD14RoundRect,0.250000X-0.475000X0.250000X-0.475000X-0.250000X0.475000X-0.250000X0.475000X0.250000X0*%
%ADD15RoundRect,0.250000X0.250000X0.475000X-0.250000X0.475000X-0.250000X-0.475000X0.250000X-0.475000X0*%
%ADD16RoundRect,0.140000X0.021213X-0.219203X0.219203X-0.021213X-0.021213X0.219203X-0.219203X0.021213X0*%
%ADD17RoundRect,0.135000X-0.185000X0.135000X-0.185000X-0.135000X0.185000X-0.135000X0.185000X0.135000X0*%
%ADD18RoundRect,0.225000X-0.225000X-0.250000X0.225000X-0.250000X0.225000X0.250000X-0.225000X0.250000X0*%
%ADD19RoundRect,0.218750X-0.256250X0.218750X-0.256250X-0.218750X0.256250X-0.218750X0.256250X0.218750X0*%
%ADD20R,0.800000X1.000000*%
%ADD21R,1.500000X0.700000*%
%ADD22RoundRect,0.375000X0.375000X-0.625000X0.375000X0.625000X-0.375000X0.625000X-0.375000X-0.625000X0*%
%ADD23RoundRect,0.500000X1.400000X-0.500000X1.400000X0.500000X-1.400000X0.500000X-1.400000X-0.500000X0*%
%ADD24RoundRect,0.250000X0.565685X-0.070711X-0.070711X0.565685X-0.565685X0.070711X0.070711X-0.565685X0*%
%ADD25RoundRect,0.218750X0.256250X-0.218750X0.256250X0.218750X-0.256250X0.218750X-0.256250X-0.218750X0*%
%ADD26RoundRect,0.035000X0.427800X0.576292X-0.576292X-0.427800X-0.427800X-0.576292X0.576292X0.427800X0*%
%ADD27RoundRect,0.035000X-0.427800X0.576292X-0.576292X0.427800X0.427800X-0.576292X0.576292X-0.427800X0*%
G04 APERTURE END LIST*
D10*
%TO.C,C11*%
X154818305Y-86878965D03*
X154139483Y-86200143D03*
%TD*%
D11*
%TO.C,USB*%
X125473305Y-89373965D03*
X125473305Y-90023965D03*
X125473305Y-90673965D03*
X125473305Y-91323965D03*
X125473305Y-91973965D03*
%TD*%
D12*
%TO.C,C1*%
X154178894Y-88939554D03*
X154857716Y-89618376D03*
%TD*%
D13*
%TO.C,C9*%
X155598305Y-82678965D03*
X154638305Y-82678965D03*
%TD*%
D10*
%TO.C,C3*%
X146157716Y-97118376D03*
X145478894Y-96439554D03*
%TD*%
D14*
%TO.C,C12*%
X131755805Y-91128965D03*
X131755805Y-93028965D03*
%TD*%
D15*
%TO.C,C5*%
X150168305Y-100278965D03*
X148268305Y-100278965D03*
%TD*%
D16*
%TO.C,C2*%
X154078894Y-92518376D03*
X154757716Y-91839554D03*
%TD*%
D17*
%TO.C,R1*%
X159568305Y-89918965D03*
X159568305Y-90938965D03*
%TD*%
D12*
%TO.C,C6*%
X151278894Y-84639554D03*
X151957716Y-85318376D03*
%TD*%
D17*
%TO.C,R4*%
X138018305Y-91168965D03*
X138018305Y-92188965D03*
%TD*%
D18*
%TO.C,C8*%
X153818305Y-79678965D03*
X155368305Y-79678965D03*
%TD*%
D19*
%TO.C,D1*%
X139418305Y-91091465D03*
X139418305Y-92666465D03*
%TD*%
D20*
%TO.C,BOOT*%
X180163305Y-94328965D03*
X182373305Y-94328965D03*
X180163305Y-87028965D03*
X182373305Y-87028965D03*
D21*
X179513305Y-92928965D03*
X179513305Y-89928965D03*
X179513305Y-88428965D03*
%TD*%
D14*
%TO.C,C13*%
X136355805Y-91128965D03*
X136355805Y-93028965D03*
%TD*%
D22*
%TO.C,U2*%
X131755805Y-88928965D03*
X134055805Y-88928965D03*
D23*
X134055805Y-82628965D03*
D22*
X136355805Y-88928965D03*
%TD*%
D18*
%TO.C,C7*%
X153818305Y-81278965D03*
X155368305Y-81278965D03*
%TD*%
D24*
%TO.C,Y1*%
X158197163Y-85755742D03*
X156641528Y-84200107D03*
X155439447Y-85402188D03*
X156995082Y-86957823D03*
%TD*%
D16*
%TO.C,C4*%
X141378894Y-89018376D03*
X142057716Y-88339554D03*
%TD*%
D12*
%TO.C,C10*%
X155478894Y-87539554D03*
X156157716Y-88218376D03*
%TD*%
D25*
%TO.C,FB1*%
X152293305Y-81266465D03*
X152293305Y-79691465D03*
%TD*%
D26*
%TO.C,U1*%
X152711484Y-89674873D03*
X152357931Y-89321320D03*
X152004377Y-88967767D03*
X151650824Y-88614213D03*
X151297270Y-88260660D03*
X150943717Y-87907106D03*
X150590164Y-87553553D03*
X150236610Y-87200000D03*
X149883057Y-86846446D03*
X149529503Y-86492893D03*
X149175950Y-86139339D03*
X148822397Y-85785786D03*
D27*
X146814213Y-85785786D03*
X146460660Y-86139339D03*
X146107107Y-86492893D03*
X145753553Y-86846446D03*
X145400000Y-87200000D03*
X145046446Y-87553553D03*
X144692893Y-87907106D03*
X144339340Y-88260660D03*
X143985786Y-88614213D03*
X143632233Y-88967767D03*
X143278679Y-89321320D03*
X142925126Y-89674873D03*
D26*
X142925126Y-91683057D03*
X143278679Y-92036610D03*
X143632233Y-92390163D03*
X143985786Y-92743717D03*
X144339340Y-93097270D03*
X144692893Y-93450824D03*
X145046446Y-93804377D03*
X145400000Y-94157930D03*
X145753553Y-94511484D03*
X146107107Y-94865037D03*
X146460660Y-95218591D03*
X146814213Y-95572144D03*
D27*
X148822397Y-95572144D03*
X149175950Y-95218591D03*
X149529503Y-94865037D03*
X149883057Y-94511484D03*
X150236610Y-94157930D03*
X150590164Y-93804377D03*
X150943717Y-93450824D03*
X151297270Y-93097270D03*
X151650824Y-92743717D03*
X152004377Y-92390163D03*
X152357931Y-92036610D03*
X152711484Y-91683057D03*
%TD*%
M02*
